<svg width="430" height="280" viewBox="0 0 430 280" fill="none" xmlns="http://www.w3.org/2000/svg">
<path d="M216.151 243.136C215.958 252.562 215.664 262.026 215.271 271.526C215.178 273.832 214.914 276.082 214.481 278.276C214.181 279.796 213.921 279.789 213.701 278.256C213.274 275.256 213.014 272.339 212.921 269.506C212.127 244.239 211.627 218.942 211.421 193.616C211.021 143.756 210.991 89.0357 212.161 36.7757C212.414 25.3557 212.874 13.6924 213.541 1.78571C213.674 -0.547619 214.071 -0.594285 214.731 1.64571C214.751 1.71905 214.794 2.34572 214.861 3.52572C215.588 16.8457 216.061 30.4191 216.281 44.2457C216.541 60.7057 216.901 77.4757 216.951 94.2757C217.101 145.176 217.191 193.186 216.151 243.136Z" fill="white"/>
<path d="M138.071 272.476C102.561 263.696 67.8608 247.616 41.1908 223.706C21.0808 205.686 4.99085 181.436 1.06085 154.276C-6.84915 99.5958 30.6208 56.4558 75.2908 31.4558C94.5242 20.6891 115.521 12.5091 138.281 6.91575C140.148 6.45575 140.221 6.65241 138.501 7.50574C86.5108 33.1757 51.4108 83.9658 52.7208 143.116C53.9708 199.306 88.5409 247.076 138.301 271.836C140.161 272.762 140.084 272.976 138.071 272.476Z" fill="white"/>
<path d="M289.991 6.70575C316.757 13.1524 341.101 23.1824 363.021 36.7957C378.171 46.2057 392.591 58.4058 403.801 72.1458C408.534 77.9524 412.364 83.4691 415.291 88.6957C433.457 121.082 434.221 153.689 417.581 186.516C412.121 197.289 404.107 207.962 393.541 218.536C366.071 246.036 329.451 262.536 291.911 272.336C289.284 273.016 289.184 272.752 291.611 271.546C345.211 244.796 380.801 190.576 376.381 130.046C372.431 75.8157 338.211 30.2258 289.581 6.93576C289.201 6.74909 289.221 6.65576 289.641 6.65576C289.761 6.65576 289.877 6.67242 289.991 6.70575Z" fill="white"/>
<path d="M260.161 36.0858C254.647 25.1991 247.277 15.7825 238.051 7.83581C237.957 7.75581 237.947 7.66248 238.021 7.55581C238.074 7.48248 238.141 7.46579 238.221 7.50579C246.121 12.1058 253.331 17.8358 259.241 24.7758C266.874 33.7291 273.054 43.3291 277.781 53.5758C295.851 92.7058 299.811 139.356 292.091 181.846C287.411 207.566 277.861 232.956 261.621 253.236C255.367 261.049 247.751 267.622 238.771 272.956C238.604 273.056 238.464 273.026 238.351 272.866L238.211 272.656C238.184 272.622 238.187 272.592 238.221 272.566C243.087 268.799 247.314 264.416 250.901 259.416C264.181 240.926 271.891 219.656 276.661 197.066C282.474 169.559 283.917 141.052 280.991 111.546C278.381 85.2758 272.071 59.5858 260.161 36.0858Z" fill="white"/>
<path d="M134.441 97.0058C139.311 71.0558 149.861 44.1358 166.951 24.6858C172.578 18.2858 179.431 12.6324 187.511 7.72578C187.604 7.66578 187.691 7.67912 187.771 7.76579L187.951 7.9658C187.991 8.0058 187.991 8.0458 187.951 8.0858C174.741 18.9058 166.091 33.9758 159.601 50.1558C153.508 65.3558 149.211 81.5891 146.711 98.8558C141.618 134.062 142.848 168.229 150.401 201.356C156.341 227.366 167.391 255.076 187.611 272.566C187.724 272.666 187.784 272.789 187.791 272.936C187.791 272.969 187.781 273.002 187.761 273.036C187.721 273.096 187.671 273.109 187.611 273.076C161.811 258.326 146.071 228.376 138.401 200.456C129.141 166.729 127.821 132.246 134.441 97.0058Z" fill="white"/>
<path d="M164.461 9.66573C134.914 22.1457 112.284 42.0557 96.5709 69.3957C62.9309 127.896 75.8109 202.696 126.841 246.776C138.181 256.569 150.778 264.182 164.631 269.616C164.731 269.656 164.764 269.726 164.731 269.826V269.836C164.684 269.956 164.598 269.996 164.471 269.956C140.178 261.936 119.524 249.066 102.511 231.346C81.5609 209.536 67.8009 181.126 65.4709 150.966C63.4176 124.446 68.6109 99.8924 81.0509 77.3057C98.9609 44.7857 129.081 21.1157 164.371 9.44572C164.444 9.41906 164.494 9.4424 164.521 9.51573L164.531 9.52574C164.558 9.59241 164.534 9.63906 164.461 9.66573Z" fill="white"/>
<path d="M335.901 75.0458C320.508 45.2858 297.131 23.6091 265.771 10.0158C264.058 9.27581 264.084 9.20582 265.851 9.80582C291.304 18.3792 312.744 32.3292 330.171 51.6558C363.211 88.2858 373.251 138.986 356.181 185.176C341.011 226.236 305.761 256.366 264.901 270.026C264.814 270.052 264.754 270.022 264.721 269.936L264.621 269.666C264.601 269.626 264.611 269.599 264.651 269.586C277.098 264.772 288.514 258.159 298.901 249.746C318.714 233.699 333.154 213.849 342.221 190.196C356.421 153.126 354.031 110.106 335.901 75.0458Z" fill="white"/>
</svg>
