<?xml version="1.0" encoding="utf-8"?>
<!-- Generator: Adobe Illustrator 25.2.3, SVG Export Plug-In . SVG Version: 6.00 Build 0)  -->
<svg version="1.1" id="Layer_1" xmlns="http://www.w3.org/2000/svg" xmlns:xlink="http://www.w3.org/1999/xlink" x="0px" y="0px"
	 viewBox="0 0 691 691" style="enable-background:new 0 0 691 691;" xml:space="preserve">
<style type="text/css">
	.st0{fill-rule:evenodd;clip-rule:evenodd;fill:#87888A;}
	.st1{fill-rule:evenodd;clip-rule:evenodd;fill:#D8D8D8;stroke:#979797;}
	.st2{fill-rule:evenodd;clip-rule:evenodd;fill:#FBFBFB;}
	.st3{fill-rule:evenodd;clip-rule:evenodd;fill:#B8BFC4;}
	.st4{fill-rule:evenodd;clip-rule:evenodd;fill:#FFFFFF;}
	.st5{fill-rule:evenodd;clip-rule:evenodd;fill:#5CCB6F;}
	.st6{fill:#FFFFFF;}
	.st7{fill-rule:evenodd;clip-rule:evenodd;fill:#FF7602;}
	.st8{fill-rule:evenodd;clip-rule:evenodd;fill:#56A3F1;}
	.st9{fill-rule:evenodd;clip-rule:evenodd;fill:#FF7600;}
	.st10{fill-rule:evenodd;clip-rule:evenodd;fill:#C0614C;}
	.st11{fill-rule:evenodd;clip-rule:evenodd;fill:#974431;}
	.st12{fill-rule:evenodd;clip-rule:evenodd;fill:#0A0E17;}
	.st13{fill:none;stroke:#974431;stroke-width:1.195;}
	.st14{fill:none;stroke:#0A0E17;stroke-width:1.7304;stroke-linecap:round;}
	.st15{fill:none;stroke:#B8BFC3;stroke-width:0.96;}
	.st16{fill-rule:evenodd;clip-rule:evenodd;fill:#DBDFE1;}
	.st17{fill:#87888A;}
	.st18{fill-rule:evenodd;clip-rule:evenodd;fill:#E8EBEE;}
</style>
<g id="Having-a-video-call">
	<g id="Group_1_" transform="translate(141.000000, 229.000000)">
		<path id="Rectangle" class="st0" d="M169-40h82c2.2,0,4,1.8,4,4v29l0,0h-90v-29C165-38.2,166.8-40,169-40z"/>
		<circle id="Oval" class="st1" cx="210" cy="-29" r="4.5"/>
		<circle id="Oval-Copy-5" class="st2" cx="210" cy="-29" r="3"/>
		<path id="Path" class="st3" d="M393.3-20h-367c-5.1,0-9.3,4.2-9.3,9.3v244.9h385.5V-10.7C402.6-15.8,398.4-20,393.3-20z"/>
		<rect id="Rectangle_1_" x="34.2" y="-4" class="st4" width="351.6" height="226.2"/>
		<g id="Group-7" transform="translate(204.000000, 226.000000)">
			<circle id="Oval_1_" class="st5" cx="-34" cy="-26" r="14"/>
			<g id="_x34_5010" transform="translate(6.086957, 7.304348)">
				<path id="Shape" class="st6" d="M-37.5-32.2c0,1.5-1.1,2.7-2.6,2.7c-1.4,0-2.6-1.2-2.6-2.7c0-1.5,1.1-2.7,2.6-2.7
					C-38.7-34.8-37.5-33.7-37.5-32.2z M-32.2-36v7.5c0,1-0.8,1.8-1.7,1.8h-12.3c-1,0-1.7-0.8-1.7-1.8V-36c0-1,0.8-1.8,1.7-1.8h2.2
					v-0.6c0-0.9,0.7-1.6,1.5-1.6h5c0.8,0,1.5,0.7,1.5,1.6v0.6h2.2C-33-37.8-32.2-37-32.2-36z M-36.2-32.2c0-2.2-1.7-4-3.9-4
					c-2.1,0-3.9,1.8-3.9,4c0,2.2,1.7,4,3.9,4C-38-28.2-36.2-30-36.2-32.2z"/>
			</g>
		</g>
		<g id="Group-6" transform="translate(244.000000, 226.000000)">
			<circle id="Oval-Copy-2" class="st7" cx="-34" cy="-26" r="14"/>
			<g id="_x36_33544" transform="translate(7.304348, 7.304348)">
				<path id="Path_1_" class="st6" d="M-34.5-30.4c-0.9,0-1.8-0.1-2.6-0.4c-0.4-0.1-0.9,0-1.1,0.2l-1.7,1.3c-1.9-1-3.1-2.2-4.1-4.1
					l1.2-1.6c0.3-0.3,0.4-0.8,0.3-1.2c-0.3-0.8-0.4-1.7-0.4-2.6c0-0.6-0.5-1.2-1.2-1.2h-2.7c-0.6,0-1.2,0.5-1.2,1.2
					c0,7.4,6,13.5,13.5,13.5c0.6,0,1.2-0.5,1.2-1.2v-2.7C-33.4-29.9-33.9-30.4-34.5-30.4z"/>
			</g>
		</g>
		<g id="Group-5" transform="translate(283.000000, 226.000000)">
			<circle id="Oval-Copy-4" class="st8" cx="-34" cy="-26" r="14"/>
			<g id="_x32_5682" transform="translate(8.521739, 6.086957)">
				<path id="Path_2_" class="st6" d="M-42.5-29c0.8,0,1.6-0.3,2.1-0.9c0.6-0.6,0.9-1.3,0.9-2.1V-37c0-0.8-0.3-1.6-0.9-2.1
					c-0.6-0.6-1.3-0.9-2.1-0.9c-0.8,0-1.6,0.3-2.1,0.9c-0.6,0.6-0.9,1.3-0.9,2.1v4.9c0,0.8,0.3,1.6,0.9,2.1S-43.4-29-42.5-29z"/>
				<path id="Path_3_" class="st6" d="M-37.2-33.7c-0.1-0.1-0.3-0.2-0.4-0.2c-0.2,0-0.3,0.1-0.4,0.2c-0.1,0.1-0.2,0.3-0.2,0.4v1.2
					c0,1.2-0.4,2.2-1.3,3c-0.8,0.8-1.8,1.3-3,1.3c-1.2,0-2.2-0.4-3-1.3c-0.8-0.8-1.3-1.8-1.3-3v-1.2c0-0.2-0.1-0.3-0.2-0.4
					c-0.1-0.1-0.3-0.2-0.4-0.2c-0.2,0-0.3,0.1-0.4,0.2c-0.1,0.1-0.2,0.3-0.2,0.4v1.2c0,1.4,0.5,2.6,1.4,3.7c0.9,1,2.1,1.6,3.5,1.8
					v1.3h-2.4c-0.2,0-0.3,0.1-0.4,0.2c-0.1,0.1-0.2,0.3-0.2,0.4c0,0.2,0.1,0.3,0.2,0.4c0.1,0.1,0.3,0.2,0.4,0.2h6.1
					c0.2,0,0.3-0.1,0.4-0.2c0.1-0.1,0.2-0.3,0.2-0.4c0-0.2-0.1-0.3-0.2-0.4c-0.1-0.1-0.3-0.2-0.4-0.2h-2.4v-1.3
					c1.4-0.2,2.5-0.7,3.5-1.8c0.9-1,1.4-2.3,1.4-3.7v-1.2C-37-33.5-37.1-33.6-37.2-33.7z"/>
			</g>
		</g>
		<g id="Group-2-Copy" transform="translate(173.000000, 72.000000)">
			<path id="Path_4_" class="st9" d="M15.5,44.8c5.8-0.5,11.6-0.6,17.3-0.2l2.2,0.2l46.4,7.5c5.5,0.9,10.5,3.7,14.1,7.9
				c3.7,4.3,6,9.5,6.8,15.1l4.6,32.9l0,0H-48l3.9-32.6c0.7-5.8,3.2-11.2,7.2-15.5c4-4.3,9.2-7.2,14.9-8.2L15.5,44.8L15.5,44.8z"/>
			<g id="Group-4" transform="translate(43.000000, 0.000000)">
				<g id="Group-3" transform="translate(-0.000000, 0.000000)">
					<g id="Group-2" transform="translate(-0.000000, 0.000000)">
						<path id="Rectangle_2_" class="st10" d="M-27.8,29.5H2.6v19.3C2.6,57.2-4.2,64-12.6,64s-15.2-6.8-15.2-15.2V29.5L-27.8,29.5z"
							/>
						<path id="Path_5_" class="st11" d="M2.6,29.5l0,2.5c-5.1,7.2-15.2,12-30.4,14.4l0-16.9H2.6z"/>
						<g id="Group-18" transform="translate(-0.000000, 0.000000)">
							<g id="Group-19" transform="translate(-0.000000, 0.000000)">
								<path id="Path-42" class="st12" d="M-34.7,12.7c-6.1-14.9-7-28.2-2.9-39.8c6.2-17.4,44.7-17.8,48.4,2.3
									c2.5,13.4,1.6,24.6-2.5,33.7l-21,2.3L-34.7,12.7z"/>
								<path id="Path-39" class="st10" d="M-34.7-10.7c-0.9,3.5-3,3.2-2.8,11.2h-1.1c-4.1-2.1-7-2.1-8.6,0c-2.4,3.1,0,12.7,9,16.7
									c5.1,16,13.4,24.2,24.8,24.5C-2,42.1,6.4,33.4,11.7,15.7C20,12.7,23.2,1.4,19.5-1.1c-2.5-1.6-5.2-1.1-8.3,1.6h-1
									c0.1-4.6-0.8-8.4-2.6-11.2c-2.2-3.5-1-15.6-5.5-13c-4.6,1.9-9.5,2.9-14.7,2.9c-5.6,0-11.2-1-16.8-2.9
									C-33.3-24.6-32.7-18.7-34.7-10.7z"/>
								<g id="Group" transform="translate(58.890090, 42.347306)">
									<path id="Path-119" class="st13" d="M-48-33.4c0.7-4.7,2.8-6.9,6.4-6.5"/>
									<line id="Path-120" class="st13" x1="-46.8" y1="-37.1" x2="-44.8" y2="-34.3"/>
								</g>
								
									<g id="Group-Copy-2" transform="translate(6.679718, 45.910060) scale(-1, 1) rotate(9.000000) translate(-6.679718, -45.910060) translate(3.473826, 42.631349)">
									<path id="Path-119_1_" class="st13" d="M41.2-40.5c0.7-4.7,2.8-6.9,6.4-6.5"/>
									<line id="Path-120_1_" class="st13" x1="42.3" y1="-44.1" x2="44.4" y2="-41.3"/>
								</g>
								<path id="Path_6_" class="st12" d="M-35.4,12.4c0.5,2.5,2,4.7,4.1,6.2l0.8,0.6c1.4,1,3.4-1.4,4.9-2.3l0.1-0.1
									c1.7-1,3.6-1.6,5.5-1.6h15.5c1.6,0,3.1,0.5,4.4,1.5L0,16.8c1.2,0.9,2.8,3.4,4,2.5l1-0.7c1.9-1.5,3.2-3.6,3.6-6L11-6.2
									l0.7,21.8l0,0C6.4,34.9-1.8,42-13,41.8l-0.3,0c-11.4-0.4-19.7-6.9-24.8-24.5l0,0l-0.4-18.8c0-1.2,0-2.4,0.1-3.7l0,0l0,0
									L-35.4,12.4z"/>
								<path id="Path-6" class="st11" d="M-17.2,11.2c1,2,2.3,3.1,3.9,3.1s2.7-1,3.3-3.1c-0.8,0.8-1.9,1.3-3.3,1.3
									C-14.7,12.5-16,12-17.2,11.2z"/>
								<path id="Oval_2_" class="st12" d="M-5.3,1.7c1,0,1.8-0.8,1.8-1.8c0-1-0.8-1.8-1.8-1.8c-1,0-1.8,0.8-1.8,1.8
									C-7.1,0.9-6.3,1.7-5.3,1.7z"/>
								<path id="Oval-Copy-3" class="st12" d="M-22.3,1.6c1,0,1.8-0.8,1.8-1.8s-0.8-1.8-1.8-1.8c-1,0-1.8,0.8-1.8,1.8
									S-23.3,1.6-22.3,1.6z"/>
								<path id="Path-30" class="st14" d="M-28.6-8c4.3-2,8.2-2,11.8,0"/>
								<path id="Path-30-Copy" class="st14" d="M0.8-7.7c-4.3-2-8.2-2-11.8,0"/>
								<path id="Mask" class="st4" d="M-20.1,21.6c1.4,4.4,3.8,6.6,6.9,6.6s5.5-2.2,6.9-6.6H-20.1z"/>
							</g>
						</g>
					</g>
				</g>
			</g>
		</g>
		<path id="Rectangle_3_" class="st15" d="M69.2,13.5h282.7c4.2,0,7.7,3.4,7.7,7.7v150.7c0,4.2-3.4,7.7-7.7,7.7H69.2
			c-4.2,0-7.7-3.4-7.7-7.7V21.2C61.5,16.9,64.9,13.5,69.2,13.5z"/>
		<polygon id="Path_7_" class="st16" points="443.9,257 -24.9,257 -48,248.5 467,248.5 		"/>
		<path id="Path_8_" class="st17" d="M211.1-10.4c0,0.9-0.7,1.6-1.6,1.6c-0.9,0-1.6-0.7-1.6-1.6c0-0.9,0.7-1.6,1.6-1.6
			C210.4-12.1,211.1-11.3,211.1-10.4z"/>
		<rect id="Rectangle_4_" x="167.6" y="234.1" class="st6" width="83.5" height="8.5"/>
		<path id="Path_9_" class="st18" d="M244.4,234.1v3.1c0,2.1-1.7,3.9-3.8,3.9h-62.5c-2.1,0-3.8-1.7-3.8-3.9v-3.1H-48v14.4h515v-14.4
			H244.4z"/>
	</g>
</g>
</svg>
