<?xml version="1.0" encoding="utf-8"?>
<!-- Generator: Adobe Illustrator 25.2.3, SVG Export Plug-In . SVG Version: 6.00 Build 0)  -->
<svg version="1.1" id="Layer_1" xmlns="http://www.w3.org/2000/svg" xmlns:xlink="http://www.w3.org/1999/xlink" x="0px" y="0px"
	 viewBox="0 0 754 754" style="enable-background:new 0 0 754 754;" xml:space="preserve">
<style type="text/css">
	.st0{fill-rule:evenodd;clip-rule:evenodd;fill:#B8BFC4;}
	.st1{fill-rule:evenodd;clip-rule:evenodd;fill:#E8EBEE;}
	.st2{opacity:0.3;fill-rule:evenodd;clip-rule:evenodd;fill:#FFFFFF;enable-background:new    ;}
	.st3{fill-rule:evenodd;clip-rule:evenodd;fill:#FF7600;}
	.st4{fill:none;stroke:#FF7600;stroke-width:3.808;}
	.st5{fill:none;stroke:#FF7600;stroke-width:4.48;stroke-linecap:round;}
	.st6{fill-rule:evenodd;clip-rule:evenodd;fill:#5BCC70;}
	.st7{opacity:0.5;fill-rule:evenodd;clip-rule:evenodd;fill:#B8BFC4;enable-background:new    ;}
	.st8{fill:#FFFFFF;}
	.st9{fill-rule:evenodd;clip-rule:evenodd;fill:#56A3F1;}
	.st10{fill:none;stroke:#FFFFFF;stroke-width:3;stroke-linecap:round;}
	.st11{fill-rule:evenodd;clip-rule:evenodd;fill:#5BCC70;stroke:#FFFFFF;stroke-width:3;}
</style>
<g id="Reporting">
	<g id="Group-2" transform="translate(140.000000, 216.000000)">
		<g id="Group" transform="translate(65.000000, -0.000000)">
			<path id="Rectangle-Copy" class="st0" d="M-16.7,1.3L-2.2,0l0,0l375.4,3.1c12.8,0.1,23.2,10.6,23.2,23.4v272.1
				c0,12.9-10.5,23.4-23.4,23.4H-14.6c-12.9,0-23.4-10.5-23.4-23.4v-274C-38,12.5-28.8,2.4-16.7,1.3z"/>
			<path id="Rectangle" class="st1" d="M2.9,0h387.7C403.5,0,414,10.5,414,23.4V298c0,12.9-10.5,23.4-23.4,23.4H2.9
				c-12.9,0-23.4-10.5-23.4-23.4V23.4C-20.5,10.5-10,0,2.9,0z"/>
			<path id="Rectangle-Copy-2" class="st2" d="M69.2,128.5h321.4c12.9,0,23.4,10.5,23.4,23.4v146c0,12.9-10.5,23.4-23.4,23.4H45.8
				l0,0V151.9C45.8,139,56.3,128.5,69.2,128.5z"/>
			<g id="Group-13" transform="translate(69.000000, 111.000000)">
				<polygon id="Path-28" class="st3" points="-4,176 -38,176 -38,146 -4,146 				"/>
				<polygon id="Path-28_1_" class="st3" points="57,176 23,176 23,94 57,94 				"/>
				<polygon id="Path-28_2_" class="st3" points="116,176 82,176 82,104 116,104 				"/>
				<polygon id="Path-28_3_" class="st3" points="174,176 140,176 140,76 174,76 				"/>
				<polygon id="Path-28_4_" class="st3" points="235,176 201,176 201,46 235,46 				"/>
				<polygon id="Path-28_5_" class="st3" points="294,176 260,176 260,31 294,31 				"/>
				<line id="Path-13" class="st4" x1="-38" y1="177" x2="294" y2="177"/>
				<path id="Path-10" class="st5" d="M-38,98.6c14.5,2.5,31.5-6.5,50.9-26.8C42,41.2,61.1,40.3,90.3,56.5s67.2,6.4,111.1-25.6
					C230.8,9.6,261.6-0.7,294,0"/>
				<circle id="Oval" class="st6" cx="223" cy="18" r="12"/>
			</g>
			<path id="Rectangle-Copy-47" class="st7" d="M2.9,0h387.7C403.5,0,414,10.5,414,23.4v70.1l0,0H-20.5V23.4C-20.5,10.5-10,0,2.9,0z
				"/>
			<path id="Reports" class="st8" d="M132.9,59v-8.2h5l4,8.2h5.1l-4.4-9c0.7-0.3,1.3-0.8,1.9-1.4c1.3-1.3,2.2-3.4,2.2-5.7
				c0-2.5-0.7-4.2-2.4-5.9c-1.4-1.3-2.9-2-5.8-2h-10.1v24H132.9z M138.6,46.6h-5.7v-7.3h5.7c1.2,0,2.1,0.3,2.7,1
				c0.6,0.7,0.8,1.8,0.8,2.7c0,0.8-0.2,1.8-0.8,2.4C140.6,46.2,139.5,46.6,138.6,46.6z M160.2,59.5c1.7,0,3.5-0.5,4.9-1.4
				c1.4-0.9,2.5-2.3,3.1-3.8l-4.5-1.3c-0.2,0.4-0.5,0.9-1.2,1.5c-0.7,0.5-1.5,0.8-2.6,0.8c-1.3,0-2.6-0.5-3.3-1.5
				c-0.5-0.7-0.8-1.6-0.9-2.5h12.7c0.2-3.1-0.2-5.8-2-7.9c-1.7-2-3.8-2.8-6.4-2.8s-5.2,1-6.9,3c-1.4,1.7-2.2,4.1-2.2,6.7
				c0,2.3,0.7,4.5,2.2,6.3C154.7,58.5,157.5,59.5,160.2,59.5z M163.9,47.8h-8c0.2-0.7,0.4-1.3,0.9-1.9c0.9-1.1,2.1-1.5,3.3-1.5
				c1.2,0,2.5,0.4,3.2,1.3C163.6,46.4,163.8,47,163.9,47.8z M178.6,67v-8.7c1.3,0.8,2.9,1.2,4.6,1.2c2.4,0,4.7-1,6.2-2.9
				c1.5-1.9,2.1-4.2,2.1-6.6c0-2.5-0.7-4.9-2.1-6.6c-1.5-1.9-3.9-2.9-6.4-2.9c-1.8,0-3.6,0.6-5,1.6V41h-4v26H178.6z M182.5,55.5
				c-1.3,0-2.4-0.4-3.2-1.3c-0.9-1-1.3-2.6-1.3-4.2s0.4-3.2,1.3-4.2c0.7-0.9,1.8-1.3,3-1.3c1.5,0,2.7,0.4,3.4,1.6
				c0.6,0.9,1,2.3,1,3.9c0,1.5-0.3,2.9-0.9,3.9C185.1,55,183.8,55.5,182.5,55.5z M205.2,59.5c2.7,0,5.2-1,6.9-3
				c1.5-1.9,2.2-3.9,2.2-6.5c0-2.4-0.6-4.6-2.2-6.5c-1.7-2-4.2-3-6.9-3c-2.6,0-5.2,1-6.9,3c-1.4,1.7-2.2,4-2.2,6.5
				c0,2.5,0.7,4.6,2.2,6.5C199.9,58.5,202.5,59.5,205.2,59.5z M205.2,55.3c-1.3,0-2.6-0.5-3.3-1.5c-0.8-1-1-2.4-1-3.7
				c0-1.4,0.2-2.8,1-3.8c0.7-1,2-1.5,3.3-1.5c1.3,0,2.6,0.5,3.3,1.5c0.8,1,1,2.4,1,3.8c0,1.4-0.3,2.7-1,3.7
				C207.7,54.7,206.5,55.3,205.2,55.3z M224.4,59v-9.6c0-1.3,0.4-2.5,1.2-3.4c0.6-0.7,1.6-1.1,2.9-1.2c1.3-0.1,2.5,0.1,3.5,0.5V41
				c-1-0.4-2-0.6-3-0.5c-1.1,0.1-2.2,0.3-3.1,0.9c-0.8,0.5-1.5,1.2-1.9,2V41h-4v18H224.4z M247.8,59v-3.8c-1,0.1-2.1,0.2-2.9,0.1
				c-0.7-0.1-1.5-0.3-1.9-1c-0.4-0.7-0.4-1.8-0.4-3.2v-6.6h5.2V41h-5.2v-5H238v5H235v3.5h3.1v6.9c0,2.2-0.2,4,0.8,5.5
				c1,1.4,2,2,3.7,2.3C243.8,59.4,246.4,59.4,247.8,59z M261.1,59.5c1.7,0,3.2-0.2,4.7-1.2c1.6-0.9,2.6-2.7,2.6-4.5
				c0-3-2.3-4.8-5.7-5.8l-3.3-0.9c-1.1-0.3-2-0.5-2-1.3c0-0.9,1.5-1.5,2.9-1.4c1.6,0.1,3,0.7,3.7,2.4l4.2-1.1
				c-0.7-1.9-2.1-3.5-3.8-4.3c-1.2-0.6-2.6-0.9-3.8-0.9s-2.5,0.1-3.9,0.7c-1.9,0.8-3.3,2.6-3.3,4.8c0,0.8,0.3,2.1,0.9,2.9
				c0.7,0.9,1.9,1.5,2.9,2c0.6,0.2,1.1,0.4,4.6,1.3c1.3,0.4,2.6,0.6,2.6,1.7c0,0.5-0.2,0.8-0.7,1.1c-0.5,0.4-1.8,0.6-2.4,0.6
				c-1.2,0-2.5-0.3-3.4-1.2c-0.5-0.5-0.9-1.4-1.1-2.2l-4.1,1c0.3,1.2,0.7,2.5,1.9,3.9C256.2,58.9,258.4,59.5,261.1,59.5z"/>
		</g>
		<path id="Rectangle_1_" class="st9" d="M-32,112H93c3.3,0,6,2.7,6,6v71c0,3.3-2.7,6-6,6H-32c-3.3,0-6-2.7-6-6v-71
			C-38,114.7-35.3,112-32,112z"/>
		<path id="Path-40" class="st10" d="M-28.1,175c8.8-25.6,17.6-31.5,26.5-17.8c13.3,20.6,23.8,15.3,28.6,0s19.6-25.2,35.1-9.3
			c10.4,10.6,19.5,6.6,27.2-12"/>
		<circle id="Oval_1_" class="st11" cx="45.5" cy="138.5" r="6"/>
	</g>
</g>
</svg>
