<?xml version="1.0" encoding="utf-8"?>
<!-- Generator: Adobe Illustrator 25.2.3, SVG Export Plug-In . SVG Version: 6.00 Build 0)  -->
<svg version="1.1" id="Layer_1" xmlns="http://www.w3.org/2000/svg" xmlns:xlink="http://www.w3.org/1999/xlink" x="0px" y="0px"
	 viewBox="0 0 754 754" style="enable-background:new 0 0 754 754;" xml:space="preserve">
<style type="text/css">
	.st0{fill-rule:evenodd;clip-rule:evenodd;fill:#F8F7F8;}
	.st1{fill-rule:evenodd;clip-rule:evenodd;fill:#0F2C2B;}
	.st2{fill-rule:evenodd;clip-rule:evenodd;fill:#FFBCAD;}
	.st3{fill-rule:evenodd;clip-rule:evenodd;fill:#EB957D;}
	.st4{fill:none;stroke:#CC8271;stroke-width:0.7469;}
	.st5{fill:none;stroke:#D08574;stroke-width:1.1428;}
	.st6{fill-rule:evenodd;clip-rule:evenodd;fill:#020D21;}
	.st7{fill-rule:evenodd;clip-rule:evenodd;fill:#1E1D1D;}
	.st8{fill-rule:evenodd;clip-rule:evenodd;fill:#333333;}
	.st9{opacity:0.2;fill:none;stroke:#FFFFFF;stroke-width:1.067;enable-background:new    ;}
	.st10{fill-rule:evenodd;clip-rule:evenodd;fill:#1E2632;}
	.st11{fill-rule:evenodd;clip-rule:evenodd;fill:#FF7600;}
	.st12{fill-rule:evenodd;clip-rule:evenodd;fill:#EC7006;}
	.st13{fill:none;stroke:#FFFFFF;stroke-width:1.0633;}
	.st14{fill:none;stroke:#FFFFFF;stroke-width:1.0633;stroke-linecap:round;}
	.st15{fill-rule:evenodd;clip-rule:evenodd;fill:#352324;}
	.st16{fill-rule:evenodd;clip-rule:evenodd;fill:#242B3B;}
	.st17{fill-rule:evenodd;clip-rule:evenodd;fill:#FFFFFF;}
	.st18{fill:none;stroke:#C65F07;stroke-width:0.7868;stroke-linecap:round;}
	.st19{opacity:0.3;fill-rule:evenodd;clip-rule:evenodd;fill:#B8BFC4;enable-background:new    ;}
	.st20{filter:url(#Adobe_OpacityMaskFilter);}
	.st21{mask:url(#mask-2_1_);}
	.st22{fill-rule:evenodd;clip-rule:evenodd;fill:#56A3F1;}
	.st23{opacity:0.5;fill-rule:evenodd;clip-rule:evenodd;fill:#CC5D37;enable-background:new    ;}
	.st24{fill-rule:evenodd;clip-rule:evenodd;fill:#0A0E17;}
	.st25{fill:none;stroke:#0A0E17;stroke-width:1.0815;stroke-linecap:round;}
	.st26{filter:url(#Adobe_OpacityMaskFilter_1_);}
	.st27{mask:url(#mask-2_2_);fill:none;stroke:#B8BFC4;}
	.st28{filter:url(#Adobe_OpacityMaskFilter_2_);}
	.st29{mask:url(#mask-4_1_);}
	.st30{fill-rule:evenodd;clip-rule:evenodd;fill:#782C1A;}
	.st31{fill-rule:evenodd;clip-rule:evenodd;fill:#FFB590;}
	.st32{fill-rule:evenodd;clip-rule:evenodd;fill:#E8A685;}
	.st33{fill-rule:evenodd;clip-rule:evenodd;fill:#D19476;}
	.st34{fill-rule:evenodd;clip-rule:evenodd;fill:#19243D;}
	.st35{fill:none;stroke:#782C1A;stroke-width:1.05;stroke-linecap:round;}
	.st36{fill:none;stroke:#FFFFFF;stroke-width:0.75;stroke-linecap:round;}
	.st37{fill:none;stroke:#FFFFFF;stroke-width:0.75;}
	.st38{fill:none;stroke:#19243D;stroke-width:0.75;stroke-linecap:round;}
	.st39{fill:none;stroke:#782C1A;stroke-width:0.75;}
	.st40{opacity:0.2372;fill:none;stroke:#FFFFFF;stroke-width:0.75;enable-background:new    ;}
	.st41{filter:url(#Adobe_OpacityMaskFilter_3_);}
	.st42{mask:url(#mask-4_2_);fill:none;stroke:#B8BFC4;}
	.st43{fill-rule:evenodd;clip-rule:evenodd;fill:#5CCD71;}
	.st44{fill:none;stroke:#B8BFC4;}
	.st45{fill:none;stroke:#782C1A;stroke-width:1.0815;stroke-linecap:round;}
	.st46{fill:none;stroke:#FFFFFF;stroke-width:0.7725;stroke-linecap:round;}
	.st47{fill:none;stroke:#FFFFFF;stroke-width:0.7725;}
	.st48{fill:none;stroke:#19243D;stroke-width:0.7725;stroke-linecap:round;}
	.st49{opacity:0.6775;fill-rule:evenodd;clip-rule:evenodd;fill:#E8A685;enable-background:new    ;}
</style>
<g id="Suggested-people-matches">
	<g id="Group-6" transform="translate(132.000000, 77.459912)">
		<ellipse id="Oval" class="st0" cx="244.5" cy="531" rx="364.5" ry="43.5"/>
		
			<g id="Woman" transform="translate(411.494496, 310.040088) scale(-1, 1) translate(-411.494496, -310.040088) translate(258.000000, 75.540088)">
			<g id="Body" transform="translate(0.000000, 0.000000)">
				<path id="Path-56" class="st1" d="M377.6,82.7c6,0.4,10.8,4,14.3,10.8c-3.2,1-6.4,0.5-9.8-1.4C378.8,90.3,377.3,87.1,377.6,82.7
					z"/>
				<g id="Left-hand" transform="translate(257.730196, 54.197309)">
					<path id="Mask" class="st2" d="M134.8,32.6c2.1-2.3,14.9-4.1,19.3-4.9c2.7-0.5,9.3-5.3,14.9-15.8c0.7-1.3,0.3-2.2-1.2-2.6
						c1.1-2.5,0.9-4.2-0.5-5.1c1.6-2.8,0.9-4.2-0.8-4.2c-1.7,0-8.7,10.1-13.6,13.2c-3.2,2-7,2.8-11.3,2.4c2.4-3,5.8-8,4.1-8
						s-8.9,5.1-13.1,8.6c-2.8,2.4-7,8.7-12.6,19.2l10.2,5C131.9,36.7,133.4,34.1,134.8,32.6z"/>
					<path id="Path" class="st3" d="M133.8,33.7l-0.4,0.7c-0.9,1.4-1.9,3.2-2.9,5.4l-0.2,0.4l-9.1-7c0.8-1.5,1.6-2.9,2.4-4.2
						C127.3,32.6,130.7,34.2,133.8,33.7z"/>
					<line id="Path-42" class="st4" x1="167.2" y1="4.2" x2="156.2" y2="16.2"/>
					<path id="Path-59" class="st4" d="M154,14.1c2.2,1.4,3.5,3.4,4.1,6"/>
					<path id="Path-60" class="st4" d="M143.5,16.2c1.2,2.6,0.5,4.8-1.9,6.7"/>
					<line id="Path-23" class="st4" x1="167.7" y1="9.3" x2="158" y2="19.6"/>
				</g>
				<g transform="translate(0.000000, 0.000000)">
					<path id="Path-4" class="st1" d="M159,139.4c-1.7,1.9-2.3,4.7-1.9,8.3c0.7,6.2,3.4,12.8,7.1,12.5l10.1-5.1l-10.1-11.6
						L159,139.4z"/>
					
						<g id="right-hand" transform="translate(26.848303, 152.772063) rotate(-77.000000) translate(-26.848303, -152.772063) translate(10.416112, 129.011210)">
						<path id="Mask_1_" class="st2" d="M45.1,164.4l-2.7-7.8c-7.8-10-11.9-15.8-12.5-17.7c-0.8-2.8-1.1-5.8-1.4-6.3
							c-0.2-0.5-3-8.7-0.7-9c-0.4-1.3-0.3-2.2,0.2-2.7c0.5-0.5,1.4-0.4,2.5,0.1c-0.2-1.1,0-1.8,0.5-2.2c0.8-0.6,2.6,0.4,3.7,1.9
							c-0.6-1.9-0.7-3.2-0.1-3.7c0.8-0.8,3.1,1.2,4.1,2.8c1,1.6,10.3,17.8,11.6,17.1c1.3-0.7,0.8-4.8,1.1-6.4c0.3-1.6,0.8-3.4,3.6-4
							c-0.1,2.3,0.1,4.6,0.6,7c0.8,3.5,0.3,13-0.6,15.2c-0.2,0.3,1.4,3.5,4.6,9.4L45.1,164.4z"/>
						<path id="Path-219" class="st5" d="M38.1,143.6l11.1-5.4c-3.5,5-4.6,9.1-3.3,12.4"/>
						<path id="Path-220" class="st5" d="M31.8,134.1c2.6-2.4,6.2-4.2,10.7-5.3"/>
						<line id="Path-221" class="st5" x1="27.9" y1="123.7" x2="32.8" y2="133.3"/>
						<line id="Path-222" class="st5" x1="30.7" y1="121.1" x2="36.4" y2="130.7"/>
						<line id="Path-223" class="st5" x1="34.9" y1="120.8" x2="40.1" y2="129.6"/>
					</g>
					<g id="Pants-3" transform="translate(112.984646, 149.014338)">
						<g id="Pants" transform="translate(49.116994, 159.992831) scale(-1, 1) translate(-49.116994, -159.992831) ">
							<g id="Path-2" transform="translate(0.000000, 0.000000)">
								
									<g id="Group-3" transform="translate(49.116994, 159.992831) scale(-1, 1) translate(-49.116994, -159.992831) translate(-0.000000, 0.000000)">
									<g id="Group-11" transform="translate(42.034056, 272.835743)">
										<path id="Path-32-Copy" class="st6" d="M150.5,31.7l11.5,12.2c0.6,0.6,0.5,1.5-0.1,2.1c-0.1,0.1-0.2,0.2-0.4,0.3
											c-1.2,0.6-2.5,0.8-3.9,0.8l-15.5-1.1c-5-0.3-9.4-3.4-11.4-8l-5-11.3l0,0L123.8,40c-0.2,0.9-1,1.6-1.9,1.4c0,0-0.1,0-0.1,0
											c-1-0.2-1.7-1.1-1.7-2.1V26.4c0-6.2,2.1-12.3,5.9-17.2l0,0l0,0L150.5,31.7z"/>
										<path id="Path-21" class="st2" d="M124.9,0l0.8,11.9c0.3,4.2,1.9,8.2,4.7,11.3l8.4,9.7c2.5,2.9,6,4.7,9.7,5.2l3.4,0.5
											c0.7,0.1,1.4-0.4,1.5-1.1c0-0.3,0-0.5-0.1-0.8l-4-7.9c-3.4-6.6-5-14-4.9-21.4l0.2-7.5l0,0H124.9z"/>
									</g>
									
										<g id="Group-11-Copy" transform="translate(30.429636, 273.837856) rotate(29.000000) translate(-30.429636, -273.837856) translate(8.705601, 250.262897)">
										<path id="Path-32-Copy_1_" class="st6" d="M135.5-26.5L147-14.3c0.6,0.6,0.5,1.5-0.1,2.1c-0.1,0.1-0.2,0.2-0.4,0.3
											c-1.2,0.6-2.5,0.8-3.9,0.8l-15.5-1.1c-5-0.3-9.4-3.4-11.4-8l-5-11.3l0,0l-2.2,13.4c-0.2,0.9-1,1.6-1.9,1.4
											c0,0-0.1,0-0.1,0c-1-0.2-1.7-1.1-1.7-2.1v-12.8C105-38,107-44,110.9-49l0,0l0,0L135.5-26.5z"/>
										<path id="Path-21_1_" class="st2" d="M109.9-58.2l0.8,11.9c0.3,4.2,1.9,8.2,4.7,11.3l8.4,9.7c2.5,2.9,6,4.7,9.7,5.2
											l3.4,0.5c0.7,0.1,1.4-0.4,1.5-1.1c0-0.3,0-0.5-0.1-0.8l-4-7.9c-3.4-6.6-5-14-4.9-21.4l0.2-7.5l0,0L109.9-58.2z"/>
									</g>
									<path id="Path_1_" class="st7" d="M155.6,211.1l9.6,47.4c-3.5,0.7-7.2,0.1-11.1-1.9c-3.9-2-7.3-5.3-10.3-10L155.6,211.1z"
										/>
									<path id="Path-252" class="st8" d="M149.6,1l51.4-1l11.8,33.9c2.2,6.4,3.4,13,3.6,19.8l1.5,67.7c0.2,9.7-1.7,19.3-5.8,28.2
										l-24.6,54.2l0,0l2.1,73.8c-2.6,2-6.8,3-12.4,3c-5.6,0-9.6-1-11.9-3l-10.3-67.2l-8.3-73.5l-12.9-77.5
										c-0.6-3.5-0.9-7-0.9-10.6v-5.5c0-7.1,1.7-14.2,5.1-20.5L149.6,1L149.6,1z"/>
									<polygon id="Path_2_" class="st7" points="187.5,45.3 205.2,164.9 187.5,203.9 									"/>
									<path id="Path-9" class="st9" d="M170.4,279.8L145.7,72.9c-0.6-5-0.8-10.1-0.5-15.2l0.7-12.6c0.4-7.2,1.7-14.2,3.9-21.1
										l0,0l0,0"/>
									<line id="Path-8" class="st9" x1="187.5" y1="47.4" x2="187.5" y2="200.6"/>
								</g>
							</g>
						</g>
					</g>
					<path id="Path-7" class="st10" d="M307.3,7.9c4.9,6.8,2.9,18-2.4,26.1c13.3,21.4,13.7,40,1.3,55.7
						c-12.5,15.8-31.7,12.2-57.6-10.5c-4.8-14,0.4-30.6,15.5-49.8c1.5-13.7,6.6-22.5,15.5-26.6C292.8-3.2,302.4,1.1,307.3,7.9z"/>
					<path id="Mask_2_" class="st11" d="M249.1,173.1l1.3-8.5c1.6-10.4,1.8-20.9,0.3-31.3l-1.8-12.9l0,0l-15,20.4
						c-1.8,2.4-4,4.5-6.6,6.2c-2.5,1.6-5.4,2.8-8.4,3.3l-54.8,9.9l0,0c0.8-3.2,0.8-6.8,0-10.7c-0.8-3.9-2.5-7.3-5.2-10l54.5-13.5
						c16.7-33.6,27.6-51.5,32.6-53.9c5.6-2.6,16.2-5.2,31.7-7.7c10.9-0.2,16.5-0.3,16.8-0.2C323.1,67,330.2,75,334,82.7
						c3.9,7.9,9.5,20.1,16.9,36.5l26.7-36.5c1.3,2.4,3.2,4.5,5.8,6.4s5.4,3.4,8.5,4.4c-19.6,39.1-34.1,58.2-43.6,57.3
						s-18.3-11.4-26.4-31.6c1.9,6.1,0.4,12.1-4.4,18.1l6.3,35.8c-8.3,5.6-21.5,8.4-39.7,8.4S254.2,178.7,249.1,173.1z"/>
					<path id="Path_3_" class="st12" d="M322.6,98.7l-0.6,9.4c-0.1,2.1,0.2,4.1,0.9,6.1c0.7,2,1.4,3.9,2.2,5.7l0.6,1.6
						c5.1,12.4,10.5,21.4,16.2,27.1c-4.7-2.7-9.1-7.8-13.4-15.4l-0.6-1.1c-0.8-1.5-1.6-3.1-2.4-4.8l-0.6-1.3c-0.3-0.6-0.6-1.3-0.9-2
						l-0.6-1.4l0,0l-0.6-1.4c-0.3-0.7-0.6-1.4-0.9-2.1c0.7,2.2,0.9,4.4,0.7,6.6c0-7-2.3-12.3-7-15.9l-0.3-0.2L322.6,98.7z"/>
					<path id="Path_4_" class="st12" d="M246.1,103.6l2-3.7l4.2,24.9c0.7,4.3,3.5,7.9,7.4,9.7c4.1,1.9,8.6,2.9,13.2,2.8l37.5-0.8
						c2.6-0.1,5.2-0.9,7.3-2.5c2.1-1.6,3.6-3.8,4.4-6.3l0.6-1.9l0,0c-0.4,3.8-2.1,7.6-5.1,11.4l6.3,35.8c-8.3,5.6-21.5,8.4-39.7,8.4
						l-1.4,0c-0.2,0-0.5,0-0.7,0l-1.4,0l-1.4,0l-1.3,0l-1.3-0.1c-0.4,0-0.9,0-1.3-0.1l-1.3-0.1l-1.2-0.1c-0.2,0-0.4,0-0.6-0.1
						l-1.2-0.1l-1.2-0.1c-1.1-0.1-2.3-0.3-3.3-0.4l-1.1-0.2c-7.8-1.3-13.2-3.7-16.2-7l1.3-8.5c1.6-10.4,1.8-20.9,0.3-31.4l-0.9-6.2
						c-0.7-6.9-1.9-14.3-3.5-22L246.1,103.6z"/>
					<path id="Path_5_" class="st2" d="M294.6,64.1c3.3,0.3,6.3,0.7,9.1,1.2l0-0.1c-1.7,11.7-7.2,17.9-16.6,18.6
						c-9.3,0.7-15.2-5.3-17.9-18.1l1-0.2l0,0l2.1-0.3l0,0l2.2-0.3c0.4-0.1,0.7-0.1,1.1-0.2l2.3-0.3l0,0l15.3-0.2l0,0l0.7,0l0,0
						L294.6,64.1L294.6,64.1L294.6,64.1L294.6,64.1z"/>
					<g id="Group_1_" transform="translate(126.759045, 13.895226)">
						<path id="Path-16" class="st2" d="M179.8,5.8l1.4,17.5c0.3,4.3-0.9,8.5-3.6,11.9l-1,1.2c-2,2.5-5,4-8.2,4l0,0l0,0v14.8
							c0,4.6-3.7,8.4-8.4,8.4s-8.4-3.7-8.4-8.4V41.8c0-3.4-0.6-6.7-1.6-9.9l-1.8-5.3l0,0c-5.2-2.6-7.6-5.1-7.2-7.4
							c0.6-3.5,4.9-3.5,6.7-2.4c7.9,1.7,14-1.7,18.3-10.2c3.5-7,7.9-8.3,12-4.4c0.9,0.8,1.5,1.9,1.8,3.3
							C179.8,5.6,179.8,5.7,179.8,5.8z"/>
						<g id="Group-5" transform="translate(26.670289, 10.635030)">
							
								<g id="Group-2" transform="translate(17.850314, 8.803707) rotate(-5.000000) translate(-17.850314, -8.803707) translate(0.573105, 1.477213)">
								
									<g id="Group" transform="translate(17.277209, 6.544188) rotate(1.000000) translate(-17.277209, -6.544188) translate(0.078382, 1.905118)">
									<path id="Oval_1_" class="st13" d="M149.7,17.6c2.4,0,4.4-2,4.4-4.4s-2-4.4-4.4-4.4c-2.4,0-4.4,2-4.4,4.4
										C145.2,15.7,147.2,17.6,149.7,17.6z"/>
									<path id="Oval-Copy" class="st13" d="M138.5,17.2c2.4,0,4.4-2,4.4-4.4s-2-4.4-4.4-4.4c-2.4,0-4.4,2-4.4,4.4
										C134.1,15.2,136.1,17.2,138.5,17.2z"/>
									<line id="Path-2_1_" class="st13" x1="142.8" y1="13" x2="145" y2="13.1"/>
									<line id="Path-3" class="st14" x1="134.1" y1="12" x2="119.7" y2="9"/>
								</g>
								
									<ellipse id="Oval_2_" transform="matrix(-0.9976 6.975975e-02 -6.975975e-02 -0.9976 278.7742 23.8662)" class="st15" cx="139" cy="16.8" rx="1.3" ry="-1.3"/>
								
									<ellipse id="Oval-Copy-4" transform="matrix(-0.9976 6.975975e-02 -6.975975e-02 -0.9976 298.3325 23.8249)" class="st15" cx="148.8" cy="17.1" rx="1.3" ry="-1.3"/>
								<path id="Path-44-Copy" class="st16" d="M151.1,11.3c-0.8-0.4-2.5-0.6-3.6-0.6c-1.2,0-1,1-0.3,0.9c0.8-0.1,1.9-0.1,3.2,0.2
									C151.7,12.1,151.8,11.7,151.1,11.3z"/>
								<path id="Path-44-Copy_1_" class="st16" d="M135.4,11.1c0.8-0.4,3.8-0.7,5-0.7c1.2,0,1.1,1.2,0.2,1
									c-0.9-0.2-3.4-0.1-4.5,0.2C135,11.8,134.6,11.5,135.4,11.1z"/>
								<path id="Path-6" class="st3" d="M141.2,23.3c0.7,1.2,1.6,1.8,2.7,1.8c1.1,0,1.7-0.5,1.7-1.5c0,0.3-0.5,0.4-1.5,0.4
									S142.2,23.7,141.2,23.3z"/>
							</g>
							<path id="Path-10" class="st17" d="M148.6,17.8h-8c1,2.5,2.4,3.7,4.2,3.7C146.6,21.5,147.9,20.3,148.6,17.8z"/>
						</g>
						<path id="Path_6_" class="st3" d="M154.8,37.3l13.7,11.6l0-8.4h0.2c1.1,0,2.2-0.1,3.2-0.4l-0.7,0.1
							C165.1,41.1,159.7,40.1,154.8,37.3z"/>
						<path id="Path-3_1_" class="st10" d="M148.3,26.6c8.8,17.8,9,32.1,0.6,42.9c-12.7,16.3-34,1.7-27.8-20.3
							C125.2,34.5,134.3,27,148.3,26.6z"/>
					</g>
					<line id="Path-28" class="st18" x1="350.9" y1="119.2" x2="350.9" y2="130.3"/>
					<line id="Path-5" class="st18" x1="213.5" y1="125.9" x2="218.7" y2="133.1"/>
				</g>
			</g>
		</g>
		<circle id="Oval-Copy-2" class="st19" cx="175.1" cy="64" r="61"/>
		<g id="Group-24" transform="translate(231.081986, 0.000000)">
			<g id="Oval_3_">
				<circle id="path-1_1_" class="st17" cx="-59" cy="61" r="61"/>
			</g>
			<defs>
				<filter id="Adobe_OpacityMaskFilter" filterUnits="userSpaceOnUse" x="-105.4" y="19.9" width="93.1" height="102.5">
					<feColorMatrix  type="matrix" values="1 0 0 0 0  0 1 0 0 0  0 0 1 0 0  0 0 0 1 0"/>
				</filter>
			</defs>
			<mask maskUnits="userSpaceOnUse" x="-105.4" y="19.9" width="93.1" height="102.5" id="mask-2_1_">
				<g class="st20">
					<circle id="path-1_2_" class="st17" cx="-59" cy="61" r="61"/>
				</g>
			</mask>
			<g id="Group-2-Copy-6" class="st21">
				<g transform="translate(14.593565, 19.946630)">
					<path id="Path_7_" class="st22" d="M-81.9,54.3c3.5-0.3,6.9-0.4,10.4-0.1l1.3,0.1l27.9,4.5c3.3,0.5,6.3,2.2,8.5,4.8
						c2.2,2.6,3.6,5.8,3.9,9.1l3,29.8l0,0H-120l2.5-29.6c0.3-3.5,1.8-6.8,4.1-9.3c2.4-2.6,5.5-4.3,9-5L-81.9,54.3L-81.9,54.3z"/>
					<g id="Group-4" transform="translate(25.476282, 0.000000)">
						<g id="Group-3_1_" transform="translate(-0.000000, 0.000000)">
							<g id="Group-2_1_" transform="translate(-0.000000, 0.000000)">
								<path id="Rectangle" class="st2" d="M-107.4,43.5h19v12.1c0,5.3-4.3,9.5-9.5,9.5s-9.5-4.3-9.5-9.5V43.5L-107.4,43.5z"/>
								<path id="Path_8_" class="st23" d="M-88.4,43.5l0,1.6c-3.2,4.5-9.5,7.5-19,9l0-10.6H-88.4z"/>
								<g id="Group-18" transform="translate(-0.000000, 0.000000)">
									<g id="Group-19" transform="translate(-0.000000, 0.000000)">
										<path id="Path-42_1_" class="st24" d="M-111.7,33c-3.8-9.4-4.4-17.7-1.8-24.9c3.9-10.9,28-11.1,30.3,1.4
											c1.5,8.4,1,15.4-1.5,21.1L-97.8,32L-111.7,33z"/>
										<path id="Path-39" class="st2" d="M-111.7,18.3c-0.5,2.2-1.9,2-1.7,7h-0.7c-2.6-1.3-4.4-1.3-5.4,0c-1.5,2,0,7.9,5.6,10.5
											c3.2,10,8.4,15.1,15.5,15.4S-86,46-82.7,34.8c5.2-1.8,7.2-8.9,4.9-10.5c-1.5-1-3.3-0.7-5.2,1h-0.6c0-2.9-0.5-5.2-1.6-7
											c-1.4-2.2-0.6-9.8-3.5-8.2c-2.9,1.2-5.9,1.8-9.2,1.8c-3.5,0-7-0.6-10.5-1.8C-110.8,9.7-110.4,13.4-111.7,18.3z"/>
										<g id="Group_2_" transform="translate(36.828343, 26.506528)">
											<path id="Path-119" class="st4" d="M-120,4.1c0.4-2.9,1.8-4.3,4-4.1"/>
											<line id="Path-120" class="st4" x1="-119.3" y1="1.8" x2="-118" y2="3.6"/>
										</g>
										
											<g id="Group-Copy-2" transform="translate(4.177324, 28.736569) scale(-1, 1) rotate(9.000000) translate(-4.177324, -28.736569) translate(2.172441, 26.684319)">
											<path id="Path-119_1_" class="st4" d="M118.5-14.7c0.4-2.9,1.8-4.3,4-4.1"/>
											<line id="Path-120_1_" class="st4" x1="119.2" y1="-17" x2="120.5" y2="-15.2"/>
										</g>
										<path id="Path_9_" class="st24" d="M-112.1,32.8c0.3,1.6,1.2,2.9,2.5,3.9l0.5,0.3c0.9,0.6,2.1-0.9,3-1.4l0.1,0
											c1-0.7,2.2-1,3.5-1h9.7c1,0,1.9,0.3,2.7,0.9l0.1,0.1c0.7,0.6,1.8,2.1,2.5,1.6l0.6-0.5c1.2-0.9,2-2.2,2.3-3.7l1.5-11.7
											l0.5,13.6l0,0c-3.3,12-8.4,16.5-15.5,16.3l-0.2,0c-7.1-0.2-12.3-4.3-15.5-15.4l0,0l-0.2-11.8c0-0.8,0-1.5,0.1-2.3l0,0l0,0
											L-112.1,32.8z"/>
										<path id="Path-6_1_" class="st23" d="M-100.7,32c0.6,1.3,1.4,1.9,2.4,1.9s1.7-0.6,2-1.9c-0.5,0.5-1.2,0.8-2,0.8
											C-99.2,32.8-100,32.6-100.7,32z"/>
										<path id="Oval_4_" class="st24" d="M-93.3,26.1c0.6,0,1.1-0.5,1.1-1.1s-0.5-1.1-1.1-1.1s-1.1,0.5-1.1,1.1
											S-93.9,26.1-93.3,26.1z"/>
										<path id="Oval-Copy-3" class="st24" d="M-103.9,26.1c0.6,0,1.1-0.5,1.1-1.1c0-0.6-0.5-1.1-1.1-1.1c-0.6,0-1.1,0.5-1.1,1.1
											C-105,25.6-104.5,26.1-103.9,26.1z"/>
										<path id="Path-30" class="st25" d="M-107.9,20c2.7-1.3,5.1-1.3,7.4,0"/>
										<path id="Path-30-Copy" class="st25" d="M-89.5,20.2c-2.7-1.3-5.1-1.3-7.4,0"/>
										<path id="Mask_3_" class="st17" d="M-102.5,38.5c0.9,2.8,2.4,4.2,4.3,4.2s3.4-1.4,4.3-4.2H-102.5z"/>
									</g>
								</g>
							</g>
						</g>
					</g>
				</g>
			</g>
			<defs>
				<filter id="Adobe_OpacityMaskFilter_1_" filterUnits="userSpaceOnUse" x="-120" y="0" width="122" height="122">
					<feColorMatrix  type="matrix" values="1 0 0 0 0  0 1 0 0 0  0 0 1 0 0  0 0 0 1 0"/>
				</filter>
			</defs>
			<mask maskUnits="userSpaceOnUse" x="-120" y="0" width="122" height="122" id="mask-2_2_">
				<g class="st26">
					<circle id="path-1_3_" class="st17" cx="-59" cy="61" r="61"/>
				</g>
			</mask>
			<circle id="Oval-Copy-2_1_" class="st27" cx="-59" cy="61" r="60.5"/>
		</g>
		<circle id="Oval-Copy-2_2_" class="st19" cx="18.1" cy="106" r="61"/>
		<g id="Group-26" transform="translate(74.081986, 42.000000)">
			<g id="Oval_5_">
				<circle id="path-3_1_" class="st17" cx="-59" cy="61" r="61"/>
			</g>
			<defs>
				<filter id="Adobe_OpacityMaskFilter_2_" filterUnits="userSpaceOnUse" x="-99.9" y="20.8" width="82.4" height="101.2">
					<feColorMatrix  type="matrix" values="1 0 0 0 0  0 1 0 0 0  0 0 1 0 0  0 0 0 1 0"/>
				</filter>
			</defs>
			<mask maskUnits="userSpaceOnUse" x="-99.9" y="20.8" width="82.4" height="101.2" id="mask-4_1_">
				<g class="st28">
					<circle id="path-3_2_" class="st17" cx="-59" cy="61" r="61"/>
				</g>
			</mask>
			<g id="Group-2-Copy-7" class="st29">
				<g transform="translate(20.066727, 20.848958)">
					<path id="Path-50" class="st30" d="M-98.5,16.3c-4.3,15-1.5,31.2-7.9,40.4c-4.2,6.1,4.4,13.7,26,22.8c5-15.1-9.6-23.1-7.4-33.5
						h16.6c-4.7,15.1-4.7,25.9,0,32.4c4.7,6.5,13.8,1.5,27.3-15c0-12-15.2-14.6-13.5-25.9C-54.7,18.2-64,2-73.1,0.4
						S-94.2,1.3-98.5,16.3z"/>
					<path id="Path_10_" class="st11" d="M-76.8,54.6l1.2,0.1l25.4,4.5c3.2,0.6,6,2.3,8,4.8c2,2.6,3.3,5.7,3.6,8.9l1.1,12
						c-10.9,10.1-25.5,16.3-41.5,16.3c-15.8,0-30.1-6-40.9-15.8l1-12.3c0.3-3.4,1.6-6.6,3.8-9.1c2.2-2.6,5.2-4.3,8.4-5l20.4-4.2
						C-83.2,54.4-80,54.3-76.8,54.6z"/>
					<path id="Rectangle_1_" class="st31" d="M-85.4,46.1h16v13.6c0,4.4-3.6,8-8,8c-4.4,0-8-3.6-8-8V46.1L-85.4,46.1z"/>
					<path id="Path_11_" class="st32" d="M-69.4,46.1l0,1.6c0,0,0,0.5,0,0.5c-2.9,5.4-6.6,8.5-16,8.5l0-10.6H-69.4z"/>
					<path id="Path-43" class="st31" d="M-92.9,30.4l0.4,3.6c0.3,3.3,1.4,6.6,3.2,9.5c1.7,2.9,4.1,5.3,6.9,7.2L-82,51
						c2.8,1.8,6.4,1.8,9.1-0.1l0.5-0.3c2.7-1.8,4.9-4.3,6.4-7.2c1.5-2.9,2.3-6.1,2.3-9.3v-4.6c0-3.4-0.9-6.8-2.6-9.8
						c-2.9-5-6.1-8-9.5-9.1C-78,9.9-82.5,9-86.8,13c-2.1,2-3.8,5-5.2,9C-92.9,24.7-93.2,27.5-92.9,30.4z"/>
					<g id="Group-21" transform="translate(27.171082, 23.112769)">
						<path id="Path-6_2_" class="st33" d="M-106.8,13.7c0.6,1.2,1.4,1.9,2.4,1.9c1,0,1.6-0.6,2-1.9c-0.5,0.5-1.1,0.8-2,0.8
							C-105.3,14.5-106.1,14.2-106.8,13.7z"/>
						<g id="Group-11_1_">
							<path id="Oval_6_" class="st34" d="M-99.4,6.9c0.6,0,1.1-0.5,1.1-1.1s-0.5-1.1-1.1-1.1c-0.6,0-1.1,0.5-1.1,1.1
								S-100,6.9-99.4,6.9z"/>
							<path id="Oval-Copy-3_1_" class="st34" d="M-109.6,6.9c0.6,0,1.1-0.5,1.1-1.1s-0.5-1.1-1.1-1.1c-0.6,0-1.1,0.5-1.1,1.1
								S-110.1,6.9-109.6,6.9z"/>
							<path id="Path-30_1_" class="st35" d="M-113.6,1.5c2.6-1.2,5-1.2,7.2,0"/>
							<g id="Group-17" transform="translate(0.000000, 2.092828)">
								<path id="Oval_7_" class="st36" d="M-99.4,7.5c2.1,0,3.7-1.7,3.7-3.8S-97.3,0-99.4,0c-2.1,0-3.7,1.7-3.7,3.8
									S-101.5,7.5-99.4,7.5z"/>
								<path id="Oval-Copy_1_" class="st36" d="M-109.6,7.5c2.1,0,3.7-1.7,3.7-3.8s-1.7-3.8-3.7-3.8c-2.1,0-3.7,1.7-3.7,3.8
									S-111.7,7.5-109.6,7.5z"/>
								<line id="Path-33" class="st37" x1="-105.9" y1="3.8" x2="-102.9" y2="3.8"/>
								<line id="Path-35" class="st36" x1="-113.4" y1="3.8" x2="-120" y2="3"/>
								<line id="Path-35-Copy" class="st36" x1="-95.4" y1="3.8" x2="-90.9" y2="3.3"/>
							</g>
							<path id="Path-30-Copy_1_" class="st35" d="M-95.7,1.2c-2.6-1.2-5-1.2-7.2,0"/>
						</g>
						<path id="Path-36" class="st38" d="M-108.5,19.3c2.5,2.2,5.2,2.2,8,0"/>
					</g>
					<path id="Path-49" class="st39" d="M-83,9c4.8,0.4,8.6,2.2,11.6,5.3c5.3,5.6,6.1,8.9,8.2,16.8"/>
					<path id="Path-50-Copy" class="st30" d="M-98.5,16.3c-4.3,15-1.5,31.2-7.9,40.4c-6.3,9.2-13.5,13.2-9.5,25.5s26.8,15.1,31.8,0
						c5-15.1-2.2-22.2,0-32.6c-2.7-2.4-4.6-4.6-5.7-6.7c-0.5-0.9-0.9-1.2-1-1.5C-94.2,33.3-96.8,24.9-98.5,16.3z"/>
					<path id="Path-51" class="st40" d="M-95.9,11.2c-2.2,6.5-3.8,16-4.6,28.3c-0.5,7.6-1.8,13-4,17.2c-3.2,6-7.8,9.7-10.1,14.5"/>
					<path id="Path-52" class="st39" d="M-95.2,10c-1.7,2.8-2.8,4.9-3.3,6.3c-2.6,6.8-3.4,13.7-3.8,21.1
						c-0.7,14.5-6.5,25.7-12.3,31.7"/>
					<path id="Path-53" class="st39" d="M-61,12.8c4,7,5.5,15,4.5,24c-0.6,5,0.8,9.2,2.7,12.3c1,1.7,3.2,3.6,6.5,5.8"/>
				</g>
			</g>
			<defs>
				<filter id="Adobe_OpacityMaskFilter_3_" filterUnits="userSpaceOnUse" x="-120" y="0" width="122" height="122">
					<feColorMatrix  type="matrix" values="1 0 0 0 0  0 1 0 0 0  0 0 1 0 0  0 0 0 1 0"/>
				</filter>
			</defs>
			<mask maskUnits="userSpaceOnUse" x="-120" y="0" width="122" height="122" id="mask-4_2_">
				<g class="st41">
					<circle id="path-3_3_" class="st17" cx="-59" cy="61" r="61"/>
				</g>
			</mask>
			<circle id="Oval-Copy-2_3_" class="st42" cx="-59" cy="61" r="60.5"/>
		</g>
		<circle id="Oval-Copy-2_4_" class="st19" cx="93.1" cy="239" r="61"/>
		<g id="Group-23" transform="translate(149.000000, 174.540088)">
			<circle id="Oval_8_" class="st17" cx="-59" cy="61" r="61"/>
			<path id="Path_12_" class="st43" d="M-57.2,74.8l1.3,0.1l27.9,4.5c3.3,0.5,6.3,2.2,8.5,4.8c2.2,2.6,3.6,5.8,3.9,9.1l1,9.5
				C-25.7,114.6-41.5,122-59,122c-17.8,0-33.8-7.6-44.9-19.7l0.7-8.7c0.3-3.5,1.8-6.8,4.1-9.3c2.4-2.6,5.5-4.3,9-5l22.5-4.3
				C-64.1,74.7-60.6,74.6-57.2,74.8z"/>
			<circle id="Oval-Copy-2_5_" class="st44" cx="-59" cy="61" r="60.5"/>
			<g id="Group-2-Copy" transform="translate(14.304917, 18.605509)">
				<g id="Group-2_2_" transform="translate(24.691646, 0.000000)">
					<path id="Path-118" class="st30" d="M-114.4,32.2c-3.6-8.4-4.8-14.2-3.6-17.4s3.5-4.6,6.8-4.3c1.6-8.9,6.9-12.2,15.9-9.8
						c3.4,1.5,6,3.3,7.8,5.4c2.7,3.1,8.3,3.4,9.3,9.3c0.7,4-0.6,10.1-3.9,18.4l-8.2,4.1L-114,36L-114.4,32.2z"/>
					<path id="Rectangle_2_" class="st31" d="M-107.7,49.4h19.6v12.5c0,5.4-4.4,9.8-9.8,9.8c-5.4,0-9.8-4.4-9.8-9.8V49.4
						L-107.7,49.4z"/>
					<path id="Path_13_" class="st32" d="M-88.1,49.4l0,1.6c-3.3,4.6-9.8,7.7-19.6,9.3l0-10.9H-88.1z"/>
					<path id="Path-117" class="st31" d="M-109.3,16.5l-0.5,0.4c-1.5,1.3-2.5,3.3-2.6,5.3l-0.7,11l0,0c-1.8-2.6-3.7-3-5.7-1.3
						c-3,2.5-0.2,8.4,5.7,9c2.3,8.8,6.8,13.6,13.7,14.3c10.2,1.2,15.8-9.2,15.8-14.3c3.8-0.6,6.1-2,6.7-4.3c0.9-3.5-1.8-7.5-6.1-3.5
						l-1.7-14.5c-4.5,2.4-8.8,2.2-13.1-0.6c-1.6-1-2.9-1.8-4.1-2.5C-104.3,14.4-107.3,14.7-109.3,16.5z"/>
					<g id="Group-21_1_" transform="translate(5.740117, 25.723159)">
						<path id="Path-6_3_" class="st33" d="M-105.9,14.2c0.6,1.3,1.4,1.9,2.4,1.9s1.7-0.6,2-1.9c-0.5,0.5-1.2,0.8-2,0.8
							C-104.3,15-105.1,14.7-105.9,14.2z"/>
						<g id="Group-11_2_">
							<path id="Oval_9_" class="st34" d="M-98.2,7.2c0.6,0,1.1-0.5,1.1-1.1s-0.5-1.1-1.1-1.1s-1.1,0.5-1.1,1.1S-98.8,7.2-98.2,7.2z
								"/>
							<path id="Oval-Copy-3_2_" class="st34" d="M-108.7,7.2c0.6,0,1.1-0.5,1.1-1.1s-0.5-1.1-1.1-1.1s-1.1,0.5-1.1,1.1
								S-109.3,7.2-108.7,7.2z"/>
							<path id="Path-30_2_" class="st45" d="M-113.2,1.3c2.7-1.3,5.1-1.3,7.4,0"/>
							<g id="Group-17_1_" transform="translate(0.000000, 2.192943)">
								<path id="Oval_10_" class="st46" d="M-98.3,7.7c2.1,0,3.9-1.7,3.9-3.9S-96.1,0-98.3,0c-2.1,0-3.9,1.7-3.9,3.9
									S-100.4,7.7-98.3,7.7z"/>
								<path id="Oval-Copy_2_" class="st46" d="M-108.8,7.7c2.1,0,3.9-1.7,3.9-3.9s-1.7-3.9-3.9-3.9s-3.9,1.7-3.9,3.9
									S-110.9,7.7-108.8,7.7z"/>
								<line id="Path-33_1_" class="st47" x1="-104.9" y1="3.9" x2="-101.9" y2="3.9"/>
								<line id="Path-35_1_" class="st46" x1="-112.6" y1="3.9" x2="-120" y2="3"/>
								<line id="Path-35-Copy_1_" class="st46" x1="-93.8" y1="3.9" x2="-87.5" y2="3"/>
							</g>
							<path id="Path-30-Copy_2_" class="st45" d="M-94.8,1.3c-2.7-1.3-5.1-1.3-7.4,0"/>
						</g>
						<path id="Path-36_1_" class="st48" d="M-107.6,19.9c2.6,2.3,5.4,2.3,8.3,0"/>
					</g>
					<path id="Path_14_" class="st49" d="M-108.9,16.1c2-1.5,4.7-1.7,6.9-0.4c1.2,0.6,2.5,1.5,4.1,2.5c4.2,2.7,8.5,3,12.9,0.7
						l0.2-0.1l0.4,3.5c-7.7,3.6-13.2,0.1-17.4-3.7l-0.4-0.4c-2.3-2.1-4.5-2.8-6.6-2.1L-108.9,16.1z"/>
					<g id="Group_3_" transform="translate(37.469339, 33.359201)">
						<path id="Path-119_2_" class="st48" d="M-120,4.1c0.4-2.9,1.8-4.3,4-4.1"/>
						<line id="Path-120_2_" class="st48" x1="-119.3" y1="1.8" x2="-118" y2="3.6"/>
					</g>
					
						<g id="Group-Copy" transform="translate(3.735234, 35.411451) scale(-1, 1) translate(-3.735234, -35.411451) translate(1.730352, 33.359201)">
						<path id="Path-119_3_" class="st48" d="M120,4.1c0.4-2.9,1.8-4.3,4-4.1"/>
						<line id="Path-120_3_" class="st48" x1="120.7" y1="1.8" x2="122" y2="3.6"/>
					</g>
					<line id="Path-2_2_" class="st46" x1="-111.2" y1="10.6" x2="-109.9" y2="12.3"/>
				</g>
			</g>
		</g>
	</g>
</g>
</svg>
