<?xml version="1.0" encoding="utf-8"?>
<!-- Generator: Adobe Illustrator 25.2.3, SVG Export Plug-In . SVG Version: 6.00 Build 0)  -->
<svg version="1.1" id="Layer_1" xmlns="http://www.w3.org/2000/svg" xmlns:xlink="http://www.w3.org/1999/xlink" x="0px" y="0px"
	 viewBox="0 0 989 989" style="enable-background:new 0 0 989 989;" xml:space="preserve">
<style type="text/css">
	.st0{fill-rule:evenodd;clip-rule:evenodd;fill:#F8F7F8;}
	.st1{fill:none;stroke:#22262F;stroke-width:0.8454;}
	.st2{fill-rule:evenodd;clip-rule:evenodd;fill:#B8BFC4;}
	.st3{fill-rule:evenodd;clip-rule:evenodd;fill:#9DA1A5;}
	.st4{fill-rule:evenodd;clip-rule:evenodd;fill:#86B2D0;}
	.st5{fill-rule:evenodd;clip-rule:evenodd;fill:#D1D9DF;}
	.st6{fill-rule:evenodd;clip-rule:evenodd;fill:#B1BFE2;}
	.st7{fill-rule:evenodd;clip-rule:evenodd;fill:#D9DFE4;}
	.st8{fill-rule:evenodd;clip-rule:evenodd;fill:#F0F2F4;}
	.st9{fill:none;stroke:#D1D9DF;stroke-width:0.8795;}
	.st10{fill-rule:evenodd;clip-rule:evenodd;fill:#C1CAD0;}
	.st11{fill-rule:evenodd;clip-rule:evenodd;fill:#D1DAF0;}
	.st12{fill:none;stroke:#5F7BC0;stroke-width:0.8454;}
	.st13{fill-rule:evenodd;clip-rule:evenodd;fill:#97746C;}
	.st14{fill:none;stroke:#72493E;stroke-width:1.2705;stroke-linecap:round;}
	.st15{fill-rule:evenodd;clip-rule:evenodd;fill:#9B776F;stroke:#72493E;stroke-width:1.2705;stroke-linecap:round;}
	.st16{fill-rule:evenodd;clip-rule:evenodd;fill:#56A3F1;}
	.st17{fill-rule:evenodd;clip-rule:evenodd;fill:#5299E1;}
	.st18{fill-rule:evenodd;clip-rule:evenodd;fill:#FFFFFF;}
	.st19{fill-rule:evenodd;clip-rule:evenodd;fill:#2B3545;}
	.st20{fill-rule:evenodd;clip-rule:evenodd;fill:#3D2D29;}
	.st21{fill:#72493E;stroke:#97746C;stroke-width:1.2007;}
	.st22{fill:none;stroke:#2B3545;stroke-width:1.2007;stroke-linecap:round;}
	.st23{fill:none;stroke:#2B3545;stroke-width:1.2007;stroke-miterlimit:4.0001;}
	.st24{fill:none;stroke:#2B3545;stroke-width:1.2007;}
	.st25{opacity:0.3;fill-rule:evenodd;clip-rule:evenodd;fill:#703519;enable-background:new    ;}
	.st26{fill-rule:evenodd;clip-rule:evenodd;fill:#F9F9F9;}
	.st27{fill-rule:evenodd;clip-rule:evenodd;fill:#1E1D1D;}
	.st28{opacity:0.2;fill:none;stroke:#FFFFFF;enable-background:new    ;}
	.st29{fill-rule:evenodd;clip-rule:evenodd;fill:#333333;}
	.st30{fill:none;stroke:#715651;stroke-width:1.3464;stroke-linecap:round;}
	.st31{fill:none;stroke:#4F3C37;stroke-width:1.3464;stroke-linecap:round;}
	.st32{fill-rule:evenodd;clip-rule:evenodd;fill:#E8EBEE;}
	.st33{fill:none;stroke:#D1D9DF;stroke-width:0.8454;}
	.st34{fill:none;stroke:#19243D;stroke-width:1.224;}
	.st35{fill-rule:evenodd;clip-rule:evenodd;fill:#5CCD71;}
	.st36{fill:none;stroke:#F9F9F9;stroke-width:0.612;}
	.st37{fill-rule:evenodd;clip-rule:evenodd;fill:#41A152;}
	.st38{fill-rule:evenodd;clip-rule:evenodd;fill:#D6DAED;}
	.st39{fill:none;stroke:#FBFBFB;stroke-width:0.612;}
	.st40{fill:none;stroke:#22262F;stroke-width:0.9499;}
	.st41{fill-rule:evenodd;clip-rule:evenodd;fill:#FFBCAD;}
	.st42{fill:none;stroke:#B88479;stroke-width:1.0924;stroke-linecap:round;}
	.st43{fill:none;stroke:#B88479;stroke-width:0.9499;stroke-linecap:round;}
	.st44{fill-rule:evenodd;clip-rule:evenodd;fill:#19243D;}
	.st45{opacity:0.2;fill:none;stroke:#FFFFFF;stroke-width:0.9499;enable-background:new    ;}
	.st46{fill-rule:evenodd;clip-rule:evenodd;fill:#081C15;}
	.st47{fill-rule:evenodd;clip-rule:evenodd;fill:#FF7600;}
	.st48{fill-rule:evenodd;clip-rule:evenodd;fill:#EC7006;}
	.st49{fill-rule:evenodd;clip-rule:evenodd;fill:#E69190;}
	.st50{fill:none;stroke:#FFFFFF;stroke-width:1.2286;stroke-miterlimit:4.0002;}
	.st51{fill:none;stroke:#FFFFFF;stroke-width:1.2286;}
	.st52{fill:none;stroke:#FFFFFF;stroke-width:1.2286;stroke-linecap:round;}
	.st53{fill-rule:evenodd;clip-rule:evenodd;fill:#352324;}
	.st54{fill-rule:evenodd;clip-rule:evenodd;fill:#242B3B;}
	.st55{fill-rule:evenodd;clip-rule:evenodd;fill:#E5A799;}
	.st56{fill-rule:evenodd;clip-rule:evenodd;fill:#8F4447;}
	.st57{fill:none;stroke:#E5A799;stroke-width:1.1581;stroke-linecap:round;}
	.st58{fill:none;stroke:#D86C77;stroke-width:0.9499;stroke-linecap:round;}
</style>
<g id="pushfar---1">
	<g id="Group-7" transform="translate(109.000000, 136.000000)">
		<ellipse id="Oval" class="st0" cx="386" cy="565" rx="386" ry="61"/>
		<g id="Group-29" transform="translate(160.356146, 0.000000)">
			
				<g id="Chair-2" transform="translate(396.926472, 286.878144) scale(-1, 1) translate(-396.926472, -286.878144) translate(318.741155, 147.202190)">
				
					<g id="Chair" transform="translate(78.185316, 139.675954) scale(-1, 1) translate(-78.185316, -139.675954) translate(0.000000, 0.000000)">
					<line id="Path-190" class="st1" x1="42.9" y1="291.4" x2="113.1" y2="357"/>
					<line id="Path-190-Copy" class="st1" x1="96.7" y1="295.1" x2="30.1" y2="357"/>
					<g id="Rectangle-Copy-12" transform="translate(4.229002, 127.187267)">
						<path id="Mask" class="st2" d="M34.5,143L1,290.9c-0.4,1.9,0.8,3.8,2.7,4.2c0.3,0.1,0.5,0.1,0.8,0.1c2.6,0,4.9-1.8,5.5-4.3
							L47.4,143l0,0H34.5z"/>
						<path id="Combined-Shape" class="st3" d="M47.4,143l-3,11.1H31.8l2.7-11.1H47.4z"/>
					</g>
					<g id="Rectangle" transform="translate(88.665707, 127.187267)">
						<path id="Mask_1_" class="st4" d="M13,143l33.1,141.6c0.4,1.9-0.7,3.8-2.6,4.2c-0.3,0.1-0.5,0.1-0.8,0.1
							c-2.6,0-4.9-1.8-5.5-4.3L0,143l0,0H13z"/>
						<polygon id="Path" class="st3" points="13,143 15.7,154.1 3,154.1 0,143 						"/>
					</g>
					<g id="Path-189">
						<path id="Mask_2_" class="st5" d="M153.2,143.1c-3.5,0.7-13.8,8.2-20.1,31.6c-2.5,9.5-4.5,18.6-6.5,31.3
							c-3,18.6-1.9,38-16.2,44.9c-25.5,12.3-101.7,3.5-107.3,7.5c-5.6,4-4.3,11.2,10,12.1s84.8,2.6,99.2-2.1s28.1-15.4,30-43.6
							s3.6-51.2,10-64.9C158.5,146,156.7,142.4,153.2,143.1z"/>
						<path id="Combined-Shape_1_" class="st2" d="M153.1,157.7c-0.3,0.6-0.6,1.3-0.9,2c-6.3,13.7-8.1,36.7-10,64.9
							s-15.7,39-30,43.6s-84.9,3-99.2,2.1c-10.3-0.7-13.8-4.6-12.9-8.2l0,0c3,6.8,54.1,4.5,93.2,3.5c40.3-1,39.2-28.7,44.6-65.3
							c2.9-19.4,7.9-33.6,15-42.5L153.1,157.7z"/>
					</g>
				</g>
			</g>
			<g id="Table" transform="translate(20.865590, 189.776609)">
				<polygon id="Path-5-Copy" class="st6" points="390.7,143.5 390.7,377.7 475.4,365.2 475.4,143.5 				"/>
				<polygon id="Path-5-Copy-2" class="st7" points="0,374.9 0,145.5 164.6,145.5 164.6,367.3 96.5,379.1 				"/>
				<g id="Group" transform="translate(5.665079, 23.864951)">
					<path id="Rectangle_1_" class="st8" d="M2.1,143h78.1c1.2,0,2.1,0.9,2.1,2.1v19.6c0,1.2-0.9,2.1-2.1,2.1H2.1
						c-1.2,0-2.1-0.9-2.1-2.1v-19.6C0,143.9,0.9,143,2.1,143z"/>
					<ellipse id="Oval_1_" class="st4" cx="41.1" cy="155" rx="4.9" ry="4.9"/>
					<line id="Path-15" class="st9" x1="79.9" y1="166.7" x2="2.2" y2="166.7"/>
				</g>
				<g id="Group-Copy" transform="translate(5.665079, 59.773016)">
					<path id="Rectangle_2_" class="st8" d="M2.1,143h78.1c1.2,0,2.1,0.9,2.1,2.1v19.6c0,1.2-0.9,2.1-2.1,2.1H2.1
						c-1.2,0-2.1-0.9-2.1-2.1v-19.6C0,143.9,0.9,143,2.1,143z"/>
					<ellipse id="Oval_2_" class="st4" cx="41.1" cy="155" rx="4.9" ry="4.9"/>
					<line id="Path-15_1_" class="st9" x1="79.9" y1="166.7" x2="2.2" y2="166.7"/>
				</g>
				<g id="Group-Copy-3" transform="translate(5.665079, 95.845799)">
					<path id="Rectangle_3_" class="st8" d="M2.1,143h78.1c1.2,0,2.1,0.9,2.1,2.1v19.6c0,1.2-0.9,2.1-2.1,2.1H2.1
						c-1.2,0-2.1-0.9-2.1-2.1v-19.6C0,143.9,0.9,143,2.1,143z"/>
					<ellipse id="Oval_3_" class="st4" cx="41.1" cy="155" rx="4.9" ry="4.9"/>
					<line id="Path-15_2_" class="st9" x1="79.9" y1="166.7" x2="2.2" y2="166.7"/>
				</g>
				<g id="Group-Copy-2" transform="translate(5.665079, 131.753863)">
					<path id="Rectangle_4_" class="st8" d="M2.1,143h78.1c1.2,0,2.1,0.9,2.1,2.1v19.6c0,1.2-0.9,2.1-2.1,2.1H2.1
						c-1.2,0-2.1-0.9-2.1-2.1v-19.6C0,143.9,0.9,143,2.1,143z"/>
					<ellipse id="Oval_4_" class="st5" cx="41.1" cy="155" rx="4.9" ry="4.9"/>
					<line id="Path-15_3_" class="st9" x1="79.9" y1="166.7" x2="2.2" y2="166.7"/>
				</g>
				<polygon id="Path-5-Copy-3" class="st10" points="96.2,379.1 96.2,145.5 164.6,145.5 164.6,367.3 				"/>
				<path id="Rectangle_5_" class="st11" d="M43.5,143h362.1l0,0v12H43.5c-3.3,0-6-2.7-6-6S40.2,143,43.5,143z"/>
				<path id="Rectangle-Copy-8" class="st6" d="M394,143h113.4c3.3,0,6,2.7,6,6s-2.7,6-6,6H394l0,0V143z"/>
				<line id="Path-16" class="st12" x1="58" y1="148.1" x2="392.6" y2="148.1"/>
			</g>
			
				<g id="Man-Blue" transform="translate(319.275658, 249.829151) scale(-1, 1) translate(-319.275658, -249.829151) translate(174.075103, 0.000000)">
				<g id="body" transform="translate(1.832360, 26.258800)">
					<polygon id="Rectangle_6_" class="st13" points="128,257.9 157.9,240.7 173.4,267.5 143.5,284.6 					"/>
					
						<g id="Group-9" transform="translate(186.500000, 73.953157) rotate(19.000000) translate(-186.500000, -73.953157) translate(167.000000, 2.453157)">
						<path id="Path-254" class="st13" d="M63.9,187.2c0-2.8-0.3-5.5-0.9-8.3l-0.1-0.4c-0.6-3-1-6-1-9l0-2.9c0-1.7,0.2-3.4,0.7-5
							s0.8-3.3,0.9-5l1.2-19.5c0.1-1.1,1-2,2.1-2s2,0.9,2.1,2l1.1,17.8l0,0c3.8,0,5.7,1.2,5.7,3.6c2.5-0.9,4.3-0.4,5.3,1.4
							c3-0.3,4.5,1.3,4.5,5c0,3.3,0,6.6,0,9.9c0,2.2-0.6,4.4-1.7,6.3c-1.1,1.9-1.8,4.1-1.8,6.3l-0.8,72c-0.1,4.9-2,9.6-5.5,13.1
							c-3.4,3.4-8.2,5.1-13,4.5l-4.3-0.6c-4.9-0.6-8.9-4.2-10-9c-1.3-5.2-1.2-10.7,0.1-15.9l14.3-56.2
							C63.6,192.8,63.9,190,63.9,187.2z"/>
						<path id="Path-255" class="st14" d="M70,155.5l0.8,11c0.1,1.1,1,1.9,2.1,1.9s2-0.8,2.1-1.9l0.8-7.1l0,0"/>
						<path id="Path-255-Copy" class="st14" d="M75.8,159.3L76,167c0,1.1,0.9,1.9,2,1.9c1.1,0,2.1-0.8,2.2-1.9l0.9-6.3l0,0"/>
						<path id="Path-255-Copy-2" class="st14" d="M81,160.8l-0.5,6.9c-0.1,1,0.7,1.9,1.7,1.9h0.1c1.1,0,2.1-0.8,2.2-1.9l0.6-4.5l0,0
							"/>
						<path id="Path-256" class="st15" d="M62.5,165.2l8.7-4.8c0.7-0.4,1.6-0.1,2,0.6c0.1,0.2,0.2,0.4,0.2,0.7
							c0,1.6-0.6,3.1-1.7,4.2l-2.5,2.5l0,0c6.1,1.3,8.7,6.2,7.9,14.5"/>
					</g>
					<g transform="translate(0.000000, 42.160206)">
						<path id="Mask_3_" class="st16" d="M69.6,143H94l15.8,1.3c10.3,0.8,19.6,6.3,25.4,14.8l27.6,40.8l0,0l-32.3,22.2l-6.4-12.1
							c-0.2,20.7-0.4,43.1-0.4,67.1H35.9c2.6-12.7,3.9-22.9,3.9-30.6S39,226.7,37.4,210l-2,8.1l-35.4-4
							c6.3-31.7,13.8-51.3,22.5-58.9C31.3,147.6,47,143.5,69.6,143z"/>
						<polygon id="Path_1_" class="st17" points="120.7,188 138.1,216.2 130.5,222.1 124.1,210 124,213.2 						"/>
						<path id="Combined-Shape_2_" class="st17" d="M45.9,184.8c2.3,29.6,4.9,51.4,7.9,65.4c3,14.1,25.3,22.7,66.9,26.1l0,0
							l-24.2,0.9H35.9c2.6-12.7,3.9-22.9,3.9-30.6S39,226.7,37.4,210l-0.1,0.6v-15.8L45.9,184.8z"/>
					</g>
					<g id="laptop" transform="translate(80.000000, 96.741200)">
						<path id="Rectangle_7_" class="st2" d="M1.2,202.8h55.1l0,0v7.3H1.2c-0.7,0-1.2-0.5-1.2-1.2V204C0,203.3,0.5,202.8,1.2,202.8z
							"/>
						<path id="Rectangle-Copy-2" class="st2" d="M64.6,143h88.3c1.3,0,2.4,1.1,2.4,2.4c0,0.2,0,0.5-0.1,0.7l-18.7,62.2
							c-0.3,1-1.2,1.7-2.3,1.7H44.8c-1.3,0-2.4-1.1-2.4-2.4c0-0.2,0-0.5,0.1-0.7l19.8-62.2C62.6,143.7,63.5,143,64.6,143z"/>
						<path id="Rectangle_8_" class="st7" d="M66.4,143h88.3c1.3,0,2.4,1.1,2.4,2.4c0,0.2,0,0.5-0.1,0.7l-18.7,62.2
							c-0.3,1-1.2,1.7-2.3,1.7H46.6c-1.3,0-2.4-1.1-2.4-2.4c0-0.2,0-0.5,0.1-0.7l19.8-62.2C64.4,143.7,65.3,143,66.4,143z"/>
						<path id="Oval_5_" class="st18" d="M104.4,180.3c2.8,2.2,5,3.9,5,3.9S107.2,182.5,104.4,180.3c-2.8-2.2-5-3.9-5-3.9
							S101.6,178.1,104.4,180.3z"/>
					</g>
				</g>
				
					<g id="Group-3" transform="translate(86.500000, 43.500000) scale(-1, 1) translate(-86.500000, -43.500000) translate(63.000000, 0.000000)">
					<path id="Path-84" class="st19" d="M1.9,177.3l-1.2-9.6c-0.5-4.3,0-8.6,1.5-12.7c1.4-3.9,4.5-7,8.4-8.5l1.7-0.6
						c5.1-1.9,10.7-2.3,16-1.1L29,145c5.6,1.3,10.4,4.9,13.1,10l0.3,0.5c2.9,5.5,3.9,11.9,2.6,18l-2.3,11.2l0,0L29.5,192L1.9,177.3z
						"/>
					<path id="Path-83" class="st13" d="M1.8,164.3l-0.4,26.8c-0.1,8.2,6.2,15,14.4,15.6l0,0l0,0v10.2c0,7.2,5.9,13.1,13.1,13.1
						c7.1,0,12.9-5.8,12.9-12.9c0-0.1,0-0.1,0-0.2l-0.4-27.6l0,0c4.3-4.9,5.8-8.4,4.3-10.5s-3.3-2.1-5.6,0l-0.3,3.5
						c0,0.5-0.5,0.9-0.9,0.9c-0.5,0-0.9-0.4-0.9-0.9l-0.3-2.8c-0.2-2.4-1-4.7-2.2-6.8l-1.8-3.2c-0.6-1-1.1-2-1.5-3l-2.1-4.7
						c-1-2.3-3.3-3.8-5.9-3.8h-16C4.7,158,1.8,160.8,1.8,164.3z"/>
					
						<ellipse id="Oval_6_" transform="matrix(-0.788 -0.6157 0.6157 -0.788 -97.0632 316.3251)" class="st20" cx="5.9" cy="174.9" rx="1.3" ry="1.3"/>
					
						<ellipse id="Oval-Copy-12" transform="matrix(-0.788 -0.6157 0.6157 -0.788 -74.1753 323.2393)" class="st20" cx="18.6" cy="174.4" rx="1.3" ry="1.3"/>
					<path id="Path-158" class="st21" d="M12.7,174.4l-0.8,4.3c-0.2,1.1-0.9,2.1-2,2.7l-0.3,0.2c-0.8,0.4-1.3,1.2-1.3,2.1
						c0,0.8,0.6,1.4,1.4,1.4h0.1l4.2-0.3l0,0"/>
					<path id="Path-161" class="st22" d="M2.5,168.2c2.1-1.1,4.7-1.2,7.7-0.2"/>
					<path id="Path-161-Copy" class="st22" d="M16.2,167.7c2.6-1.1,5.5-1.2,8.5-0.3"/>
					<g id="Group-12" transform="translate(0.204158, 26.266413)">
						<g id="Group-11">
							
								<ellipse id="Oval_7_" transform="matrix(-0.9135 -0.4068 0.4068 -0.9135 -49.725 286.0258)" class="st23" cx="5.5" cy="148.3" rx="5.4" ry="5.6"/>
							
								<ellipse id="Oval-Copy-8" transform="matrix(-0.9135 -0.4068 0.4068 -0.9135 -22.6608 292.0556)" class="st23" cx="19.7" cy="148.4" rx="5.4" ry="5.6"/>
							<line id="Path-92" class="st24" x1="10.9" y1="148" x2="14.3" y2="148"/>
							<line id="Path-93" class="st24" x1="25.6" y1="148" x2="39.7" y2="147.2"/>
						</g>
					</g>
					<path id="Path_2_" class="st25" d="M35.7,193c0.7,9.9-8.3,21.8-20,22.8v-9.1h-0.2c-2.4-0.2-4.7-0.9-6.6-2c1.4-1,3-2.1,4.9-3.2
						L35.7,193z"/>
					<path id="Path_3_" class="st19" d="M37.2,177.3c0.1,0.4,0.2,0.8,0.3,1.3v0.3l0.3,3.5c0,0.5,0.5,0.8,0.9,0.8s0.7-0.2,0.8-0.5
						c-0.3,2.5-1,5-2,7.3c-1.1,2.7-1.7,4.9-1.7,6.7c-5.8,6.6-12.1,9.9-20.3,10.1v-0.1h-0.2c-8-0.6-14.1-7.1-14.1-14.8v-0.2v-1.5
						c2.7-2.7,6.4-4.3,10.3-4.3h3.8c2.9,0,5.7,1.1,7.7,3.1l1.2,1.2c1.2,1.2,2.4,1.8,4.2,1.7c1.8-0.2,3.4-1,4.5-2.4l1.2-1.5
						c1.9-2.4,2.9-5.3,2.9-8.3L37.2,177.3z"/>
					<path id="Path-154" class="st26" d="M17.8,191.3l-10.6-0.4c1.1,3.1,2.7,4.7,5,4.8C14.5,195.8,16.4,194.2,17.8,191.3z"/>
				</g>
				
					<g id="pants" transform="translate(163.134672, 349.490770) scale(-1, 1) translate(-163.134672, -349.490770) translate(35.868234, 199.323238)">
					<g id="Group-9-Copy" transform="translate(42.409191, 177.165885)">
						
							<g id="Path-117" transform="translate(24.603996, 23.748375) rotate(27.000000) translate(-24.603996, -23.748375) translate(5.650162, 6.752412)">
							<polygon id="Mask_4_" class="st13" points="64.9,138.3 74.6,161.2 98.8,161.4 102.8,150.9 94.6,127.4 							"/>
						</g>
					</g>
					<g id="Group-9-Copy-2" transform="translate(0.000000, 138.822985)">
						
							<g id="Path-117_1_" transform="translate(88.679541, 80.756040) rotate(27.000000) translate(-88.679541, -80.756040) translate(16.626739, 26.834154)">
							<polygon id="Mask_5_" class="st13" points="149.4,138.3 163,157.8 187,159.5 190.8,145.6 179,127.4 							"/>
							<path id="Path-259" class="st27" d="M159.9,152.8c-3.4,16.4-7.8,27.2-13.3,32.4s-7,10.2-4.3,15.2c10.6-0.9,19.9-4.1,27.9-9.4
								c11.9-8,16.7-14,19.2-16.5l1.4,1.1l13.6-10.5c-3.5-6.2-6.3-10.8-8.4-13.9c-2.1-3.1-4.3-5.6-6.5-7.7
								c-3.9,7.4-9.1,10.6-15.9,9.7C167,152.3,162.4,152.2,159.9,152.8z"/>
							<path id="Path-259-Copy" class="st27" d="M96.7,185c-3.4,16.4-7.8,27.2-13.3,32.4c-5.5,5.2-7,10.2-4.3,15.2
								c10.6-0.9,19.9-4.1,27.9-9.4c11.9-8,16.7-14,19.2-16.5l1.4,1.1l13.6-10.5c-3.5-6.2-6.3-10.8-8.4-13.9
								c-2.1-3.1-4.3-5.6-6.5-7.7c-3.9,7.4-9.1,10.6-15.9,9.7C103.7,184.6,99.1,184.4,96.7,185z"/>
						</g>
					</g>
					<g id="Path-122-_x2B_-Path-123-Mask" transform="translate(47.210294, 0.000000)">
						<path id="Mask_6_" class="st27" d="M85.4,145.3c-42.9-6.2-66.1,0-69.8,18.6S6.8,238.8,0,332.5c6.3,3.4,13.2,5.4,20.9,6
							s14.3-0.6,19.9-3.6L59,192.1L85.4,145.3z"/>
						<line id="Path-3" class="st28" x1="30.9" y1="337.8" x2="53.6" y2="173.8"/>
					</g>
					<g id="Path-120" transform="translate(104.509849, 2.344946)">
						<path id="Mask_7_" class="st29" d="M148.2,143c4.7,26.6,0.4,44.6-12.8,53.9c-19.4,13.7-52.4,5.4-84.9,5.4l-1,132.3
							c-5.9,2.8-12.4,4.2-19.5,4.2s-12.8-1.4-17.3-4.2C2.3,232.7-1.7,175.4,0.7,163c2.4-12.5,13.1-19.1,31.9-20H148.2z"/>
						<path id="Path-2" class="st28" d="M40.6,337.1l-9.3-137.5c-0.3-4.1,0.4-8.2,2.1-11.9c1.5-3.4,4.9-5.7,8.7-5.6l58.9,1.1
							c6.5,0.1,12.9-2,18.1-6c5-3.9,8-9.9,8-16.3v-18l0,0"/>
					</g>
				</g>
				
					<g id="left-hand" transform="translate(37.267884, 164.918692) scale(-1, 1) translate(-37.267884, -164.918692) translate(0.000000, 139.802274)">
					<path id="Mask_8_" class="st13" d="M38.2,146.6l3.8,20.7L0,178.6l1,12.5c29.2,1.4,47.8,2.2,55.8,2.2c12,0,17.7-7.8,17.7-17.5
						c0-6.5-1.8-17.4-5.4-32.8L38.2,146.6z"/>
				</g>
				<g id="Group-88" transform="translate(66.834842, 171.994622)">
					<g id="Group-87" transform="translate(-0.000000, -0.000000)">
						<path id="Path-202" class="st13" d="M18.7,160.8c0.1,1.8,1.6,3.2,3.4,3.1l0,0l3.4-0.2l0,0c4.4-0.2,7-1.2,7.8-2.8
							c4.3-1.1,6.3-2.9,5.9-5.4l13.2,1.8c1,0.1,1.9-0.4,2.4-1.2c0.4-0.7,0.1-1.5-0.6-1.9c-0.1,0-0.1-0.1-0.2-0.1l-21.7-7
							c-5.2-1.7-10.6-2.3-16-1.8L0,146.8l0,0l0.6,12.1L18.7,160.8z"/>
						<line id="Path-212" class="st30" x1="39.3" y1="155.5" x2="34.3" y2="153.5"/>
						<line id="Path-213" class="st31" x1="33.3" y1="160.9" x2="28.6" y2="158"/>
						<line id="Path-214" class="st31" x1="18.6" y1="160.9" x2="24.1" y2="159.9"/>
					</g>
				</g>
			</g>
			<g id="Table-2-Copy" transform="translate(0.000000, 189.892011)">
				<g id="Table_1_" transform="translate(0.000000, 0.000000)">
					<polygon id="Path-5-Copy_1_" class="st7" points="411.1,144.1 411.1,377.7 416.4,379.1 495.8,365.2 495.8,144.1 					"/>
					<polygon id="Path-5" class="st10" points="416.4,144.1 416.4,379.1 501,365.2 501,144.1 					"/>
					<path id="Rectangle_9_" class="st32" d="M6,143h409l0,0v12H6c-3.3,0-6-2.7-6-6S2.7,143,6,143z"/>
					<path id="Rectangle-Copy-8_1_" class="st7" d="M414.4,143h113.4c3.3,0,6,2.7,6,6s-2.7,6-6,6H414.4l0,0V143z"/>
					<line id="Path-16_1_" class="st33" x1="20.4" y1="155" x2="414.1" y2="155"/>
				</g>
			</g>
		</g>
		
			<g id="Group-49" transform="translate(674.761099, 353.234254) scale(-1, 1) translate(-674.761099, -353.234254) translate(602.522198, 267.000000)">
			<g id="Group-48" transform="translate(34.365898, 16.310108)">
				<path id="Path-122" class="st34" d="M2.2,221.6c5.1-5.4,12.5-6.9,22.2-4.5s14.5,18,14.5,46.8"/>
				<path id="Path-125" class="st34" d="M56.7,236.1c-12.4-7.7-18.3,1.1-17.8,26.2"/>
				<path id="Path-127" class="st34" d="M84.3,197.1c-24.3-2.5-39.3,19.3-45,65.2"/>
				<path id="Path-138" class="st34" d="M0,189.5c24,3.8,37.7,23.3,41.1,58.4"/>
				<path id="Path-141" class="st34" d="M20,161.2c11.8-5.3,18.1,1.7,18.9,21.1c0.8,19.3,1.5,45,2.2,77.1"/>
				<line id="Path-146" class="st34" x1="56.7" y1="143" x2="38.9" y2="262.3"/>
			</g>
			<g id="Group-42" transform="translate(63.472713, 0.000000)">
				<path id="Combined-Shape_3_" class="st35" d="M17.9,143c3.7,0,7.3,1.7,10.7,5.2c2.3-4.3,7.6-4.4,12.5-4.4s7.1,0.8,6.5,2.8
					s-4.6,0-3.6,1.6c0.9,1.6,6.2,0.9,10.5,1.5c2.9,0.4,5,2.8,6.2,7.4c-2.5-2.7-8.8-4.3-12.4-4.6s-7.7,0.3-6.3,1.1s19.9,3.5,21.2,7.5
					c0.9,2.6,0.9,5.6,0,8.8c-2.7-3.8-9.1-8.8-16-10.2s-14,0-6.6,1.3s15.8,7.8,18.9,11.1c3.1,3.3,1.4,11.5,0,17.3
					c-1.1,4.8-1.5,1.7-2.2-1.8l-0.1-0.3c-0.1-0.6-0.3-1.3-0.4-1.9c-1.1-4-7.1-8.2-9.1-10.6c-2.1-2.4-6.5-8.9-8.6-7s0.2,4.7,4,8.1
					s12.3,12.6,12.8,16.9c0.5,4.3-3.4,6.8-6.1,8.8c-1.8,1.3-1.9-0.5-1.7-2.7v-0.3c0-0.2,0-0.5,0.1-0.7l0.1-0.5
					c0.1-0.7,0.1-1.4,0.1-2c0-3-3.2-8.3-7.1-10.8c-3-1.9-0.1,4.1,2.2,9.6l0.2,0.5l0,0l0.2,0.5c0.5,1.3,1,2.6,1.3,3.7
					c1.7,5.9-3,14.5-13.5,12.4c-10.2-2-7.7-12.7-6.4-17.8l0.1-0.3l0,0V193c0.3-1.3,1.3-3.1,2.3-5l0.2-0.4l0,0l0.2-0.4
					c0.2-0.3,0.3-0.5,0.5-0.8l0.2-0.4c2.5-4.2,4.9-7.9,1.8-6.2c-5,2.7-7.6,7.3-9.7,11.5s-1.1,7-2.4,9.6s-6.3-3.6-6.3-7.9
					c0-4.3,5.8-12.7,9.8-16.9s8.5-7.2,6.6-9s-6.2,0-13.1,7.9c-4.6,5.3-6.8,10.7-6.5,16.2l0,0l-4.9-9.4C1.7,169.5,22,155.6,15.5,159
					S5,169.1,3.6,172.2s-2.2,0-3.3-5.3c-0.7-3.5-0.1-6.2,1.9-8c-0.9-4.8,6.9-7.8,11.1-10.7c3.5-2.4-1.1-0.7-5.3,1.1l-0.4,0.2
					c-0.6,0.3-1.3,0.6-1.8,0.9C1.4,152.6,12.3,143,17.9,143z M24.7,149.5c-1.6,0-2.9,0.9-2.9,2.1s1.3,2.1,2.9,2.1s2.9-0.9,2.9-2.1
					S26.3,149.5,24.7,149.5z"/>
				<path id="Path-106" class="st36" d="M28.6,148.2c6.7,15.7,8.3,33.3,5,52.8"/>
			</g>
			<path id="Path-108" class="st26" d="M141.6,231.6c-2.8-4.1-5.2-6.4-7.4-6.9c-3.2-0.8,0.1-1.9,3-0.4
				C139.1,225.3,140.6,227.7,141.6,231.6z"/>
			<g id="Group-41" transform="translate(19.445730, 18.171220)">
				<path id="Combined-Shape_4_" class="st37" d="M25.7,143c4.6,0,12.3,6.1,12.3,4.9c0-0.5-1-1.1-2-1.6l-0.2-0.1
					c-1.7-1-3.3-1.8,0.3-1.5c3.9,0.3,8,1.4,12.2,3.3c2.1,1.1,4.9,4.8,8.2,11.2c5,9.6-3.2,20.5-3.2,14.7s-5-11.5-7.4-11.5
					s0,3,2.4,6.3s0,9.9-2.4,11s-5.4,1.4-4.1-2.3c1.3-3.7,1.3-9.2,0-12s-5.1-5.3-3.7-2.3c1.4,3,0,12.4-0.8,16s-4.9,2-8.2,3.5
					s-2-1.5-1.3-5.9s4.6-8.5,4.6-10.9s-3.6-1.5-4.6,2.4s-2.6,10.4-5.4,12.9c-2.9,2.5-10.1,0.9-8-0.5s6.4-8.9,6-11.1
					c-0.3-1.3-1.8,1.1-3.3,3.7l-0.2,0.4l0,0l-0.2,0.4c-0.1,0.1-0.1,0.3-0.2,0.4l-0.2,0.4c-0.7,1.3-1.3,2.4-1.8,3.1
					c-1.5,2.4-2.7,1.2-5.5,0.7c-2.8-0.6,0-3.1,0-4.1s-1.7,0.1-3.7,1s-1.2-2.1-3-4.5s0.5-4.1,5-5.2c1.1-0.3,2.7-0.6,4.5-0.8l0.4-0.1
					l0.7-0.1c0.4-0.1,0.7-0.1,1.1-0.2l0.4-0.1c4.7-0.8,8.6-1.6,3.5-2.1c-7.9-0.8-13.8,2.5-16.3,3.4s-1.7-3.8,1.1-6.6
					c2.9-2.8,14.9-2,21.5-1.1s7.3-0.9,2.8-2.4s-20.5,0-23,0s3.3-6,8.2-6c1.6,0,4.1,0.4,6.7,0.9l0.6,0.1c0.1,0,0.2,0,0.3,0.1l1.1,0.2
					c5,1,9.7,2,8.5,1c-2.1-1.7-11.9-3.9-15.9-3.9s6.6-3.7,8.8-3.7c0.9,0,3,1.3,5,2.6l0.7,0.5c2.6,1.7,4.9,3.3,4.9,2.3
					c0-0.7-1.7-1.8-3.6-2.9l-0.4-0.2l-0.2-0.1l0,0l-0.3-0.2l0,0l-0.3-0.2l0,0l-0.3-0.2C25.3,144.2,23.3,143,25.7,143z M23.8,167.6
					c-0.9,0-1.7,0.6-1.7,1.3s0.8,1.3,1.7,1.3s1.7-0.6,1.7-1.3S24.7,167.6,23.8,167.6z M38.5,152.4c-1.2,0-2.1,0.6-2.1,1.3
					s0.9,1.3,2.1,1.3s2.1-0.6,2.1-1.3S39.6,152.4,38.5,152.4z"/>
				<path id="Path-111" class="st36" d="M16.4,167.2c10-5.6,22.3-10,36.9-13.4"/>
			</g>
			<path id="Path-112" class="st35" d="M46.9,203.7c-0.7,1.5-2.3,0.1-3,3.9s-3.4,5.7-4.7,4.4s0.8-4.9-0.6-4.4
				c-1.4,0.5-6.6,5.7-9.3,5.7s3-4.8,1.7-4.8s-5,5.8-11.6,5.8s3.3-3.9,4-5.8c0.7-1.9-4.5,0.6-6.5,3.5s-4.1,4.6-8.3,3.7
				c-4.2-0.8,3.9-3.7,3.9-4.8s-4.9,2.4-8.1,2.4s-3.4-3.5,0-3.5s-1.4-0.4-2.9-1.3c-1.6-0.9-3.6-4.1,4-3.7c7.6,0.4,13,2,11.5,0.8
				c-1.6-1.2-1.5-3.3,2.5-2.3c4,1.1,8,3.5,6.8,1c-1.1-2.4-5.9-1.9-4-3.3c1.9-1.5,6.9-0.6,8.8,2c1.9,2.6,4,2.1,3,0.3
				s-6.4-3.8-0.9-4.3s5.2,5,6.4,4.6s-1.6-5.5,1.9-5.1C45,199.1,47.5,202.2,46.9,203.7z"/>
			<g id="Group-47" transform="translate(53.029925, 125.303825)">
				<path id="Oval_8_" class="st38" d="M22.7,186c9.5,7.4,17.2,13.4,17.2,13.4S32.1,193.4,22.7,186c-9.5-7.4-17.2-13.4-17.2-13.4
					S13.2,178.6,22.7,186z"/>
				<path id="Path-121" class="st29" d="M2.2,143H43c1,0,1.8,0.8,1.8,1.8c0,0.1,0,0.3,0,0.4l-8.8,39c-0.3,1.4-1.6,2.4-3,2.4H10.9
					c-1.5,0-2.7-1-3-2.5l-7.5-38.9c-0.2-1,0.5-2,1.5-2.2C2,143,2.1,143,2.2,143z"/>
				<polygon id="Path_4_" class="st18" points="43.6,150.6 41.1,161.5 3.6,161.5 1.5,150.6 				"/>
				<line id="Path-152" class="st36" x1="7.3" y1="180.6" x2="36.4" y2="180.6"/>
				<line id="Path-153" class="st36" x1="6.4" y1="176.1" x2="37.5" y2="176.1"/>
			</g>
			<g id="Group-46" transform="translate(73.640143, 103.252585)">
				<path id="Combined-Shape_5_" class="st35" d="M26.5,143c7.4-0.4,10.6,4.8,13,8.2c1.4,1.9-0.8,2.7-3.4,3.5l-0.4,0.1
					c-1.8,0.5-3.6,1-4.7,1.8c-2.7,2.1,6.5,0.2,17.4,1.5c10.9,1.2,10.2,12.2,7.7,12.7s-6.9-4.6-12.7-5.7c-5.9-1.1-6.6-0.1-4.3,2
					c2.1,1.9,8.2,3.3,14.1,4.4l0.8,0.2c0.3,0.1,0.6,0.1,0.8,0.2c6.4,1.2,5.1,10,3.1,11.6s-3.1-5.9-10.1-7.6c-5.6-1.4-4,0.6-1.4,3.2
					l0.9,0.9l0.1,0.1l0.5,0.5l0,0l0.2,0.2l0,0l0.2,0.2c3.4,3.5,8.8,7.6,6.4,12c-2.3,4.4-5.2,2.8-11.5,2.8c-3.6,0-4.2-4.1-4.4-8.6
					v-0.6c0-0.2,0-0.4,0-0.6v-0.9c0-0.3,0-0.6,0-0.9v-0.6c0-2.2-0.1-4.3-0.5-5.7c-0.9-3-2.1,1.4-2.6,6.4l-0.1,0.5l0,0v0.5
					c-0.2,2.8-0.3,5.5,0.1,7.1c1.1,4.7-3.3,2.4-6.1,0.9s-0.8-14,0-19.8s-0.8-9.7-3.9-3.2c-3.1,6.4-0.9,15.9-0.4,19.4
					s-0.5,3.4-6.2-0.4s-3.4-5.9-3.4-12.8c0-3.8,1.6-7.3,2.8-9.6l0.2-0.4c0.8-1.6,1.3-2.5,0.5-2.3c-1.9,0.5-6.1,8.4-6.5,12.2
					c-0.3,3.7,1.8,8.2-2.1,4.6s-3-5.6-3-9.5c0-3.8,5.9-12,4.3-10.6c-1.6,1.3-5.3,3.8-5.8,8.5s-0.4,5.9-3.9,0c-2.3-3.8-0.5-6,1.6-7.9
					l0.3-0.3l0,0l0.3-0.3l0,0l0.3-0.3l0,0l0.3-0.3c0.7-0.7,1.3-1.4,1.7-2.2c1-2.1-0.9-0.5-2.8,1.3l-0.3,0.3
					c-1.1,1.1-2.1,2.2-2.5,2.7c-1.1,1.5-2.5-5.2,1.6-10.5c2.7-3.6,7.5-4.4,14.3-2.7C18.4,145.3,21.6,143.3,26.5,143z M15.8,154.9
					c-0.9,0-1.7,0.8-1.7,1.7s0.8,1.7,1.7,1.7c0.9,0,1.7-0.8,1.7-1.7S16.7,154.9,15.8,154.9z"/>
				<path id="Path-119" class="st39" d="M17,149.2c10.6,6.8,19.9,17.7,27.9,32.7"/>
			</g>
			<g id="Group-45" transform="translate(50.087131, 72.301867)">
				<path id="Path-113" class="st35" d="M18.1,145.4c-0.7,0.9-2.3,1.4-4.7,1.4c-3.7,0-6-0.2-8.5,2.5s-7.8,10-2.9,7.4s10-5.3,8.5-4
					S1.4,157.8,1,160s-0.8,9,0.9,7.8c1.8-1.2,1-4.4,2.9-6.7s9.4-7.6,7.3-5s-8.9,9.3-8.9,12.5s3.9,10.8,4.7,8.3s0-8.7,3.2-12.5
					s6.8-5.1,4.8-2.2s-7.4,9.5-5.4,15.4s5.7,4.4,4.8,1.2c-0.9-3.2,2.8-12.9,2.8-9.7S14.7,181,19.3,181s6.4,1.7,8.2-0.9
					s3.8-3.6,1.4-5.8s-6-7.4-3.7-6.6c2.3,0.8,5.5,3.8,5.9,5.2s3.9-1.6,3.1-3.8c-0.8-2.3-3.2-4.7-8.3-6.9s-5.1-5.2-2.9-4.8
					c2.2,0.3,6,4.5,8.1,6.1c2.2,1.6,6.6,4.7,5.6,0.9s0.7-5.1-1.3-7c-2-2-11.7-2.4-13.1-3.7s6-5,11.4-1.3s4.9,0.1,3-2.1
					c-1.9-2.2-9.8-0.2-11.5-1s4.1-2.5,9.7-2.5s-0.9-5-5-3.5s-9.7,4.5-6.3,1.2C26,142.3,24.1,142.6,18.1,145.4z"/>
				<path id="Oval_9_" class="st26" d="M13.7,152.6c0.6,0.4,1,0.8,1,0.8S14.3,153,13.7,152.6s-1-0.8-1-0.8S13.1,152.1,13.7,152.6z"
					/>
				<path id="Path-114" class="st39" d="M15.3,146.5c1.2,1.9,2.4,5.9,3.7,12.2c2,9.4,2.2,10,4.2,13.8"/>
			</g>
			<g id="Group-43" transform="translate(93.477802, 61.232855)">
				<path id="Combined-Shape_6_" class="st37" d="M10.3,143c11.2,0,12.1,5.9,13.2,7.1c0,0.1,0.1,0.1,0.1,0.1c1.1,0.9,1,0.9,4.9,0
					s10.1,0,12.2,1.8s1.4,6.3-0.9,4.5c-2.3-1.8-4.5-0.9-1.8,1.8s8.4,1.5,10.2,3.6c1.2,1.4,1.6,4.4,1.1,8.9
					c1.8,4.4,0.2,10.1-1.1,10.8s-0.6-6.2-4.4-10s-10-8.7-10-6.5s8.2,4.7,10.8,11.5s-2.6,14.1-4.8,15.6c-1.6,1.1-1.2-2.4-1.1-6.2
					v-0.5c0-1.3,0-2.7-0.1-3.8c-0.5-4.7-6.4-12.8-7.2-10s3.3,9.2,5.4,16.5s-4.1,11-5.4,11.5c-1.2,0.5,0.8-3.9,0.8-6.1
					s-0.7-8.7-2.3-9.2c-1.1-0.4-1,3.2-0.5,7l0.1,0.5c0.2,1.4,0.3,2.7,0.5,3.9c0.6,4.7-1.9,5.8-5.3,5.8s-1.9-1.8-7.8-5.2
					s-3.4-7.5,1-12.1c0.1-0.1,0.3-0.3,0.4-0.4l0.4-0.4l0,0l0.3-0.3c4-4.1,7-7.6-0.1-3.9c-7.7,4-9.5,8.6-10.7,10.6
					c-1.3,2-3.8-3.3-2.2-9.6c1.6-6.2,24.2-15.9,14.3-14.2S6.8,175.5,4.8,178s-3.7-1.7-3.7-5.6l0,0v-0.5c0-3.5,0.2-4.9,4.2-9
					c4.2-4.4,23.8-5.7,14-6.3s-13.4,1.8-15.8,4.1c-0.1,0.1-0.2,0.2-0.3,0.3L3,161.2c-2.1,2.1-3,3.3-3-2.9c0-5.8,3.5-6.7,7.6-6.8H8
					c0.2,0,0.4,0,0.7,0h0.4l0,0h0.2c3.1,0,6-0.4,8.5-1.3c-5.5-2.4-11.1-1.9-16.8,1.3C-0.6,145.8,2.5,143,10.3,143z M35,159.1
					c-1.2,0-2.1,0.6-2.1,1.3s0.9,1.3,2.1,1.3s2.1-0.6,2.1-1.3S36.2,159.1,35,159.1z"/>
				<path id="Path-109" class="st36" d="M25.1,150.7c4.3,12.2,3.8,25.7-1.5,40.6"/>
			</g>
			<g id="Group-44" transform="translate(1.123754, 88.885576)">
				<path id="Combined-Shape_7_" class="st37" d="M22,143.2c6.6-0.8,11.4,0.9,14.6,5c3-0.7,6.4,0.5,10.3,3.5c5.8,4.6,2,8.6,0.5,8.6
					s-4.5-5.2-6.7-6.1c-2.3-0.8,0.9,3.6,4,6.1s1.9,5.1,1.1,8.4c-0.8,3.3-2.8,3.5-2.8,1.4s-3.4-7.3-5.4-9.8s-1.7,1.9,2,7.7
					c3.6,5.8,1.1,9-2,11.2s-4.4,2.4-5.1-0.9s-1.5-17.4-4.1-14c-2.7,3.4-0.1,11.7,1.2,17.2c1.2,5.5-4.2,8.4-7,8.4s-0.5-7.5-0.5-12.3
					c0-0.9,0.1-1.9,0.2-2.8v-0.4c0.5-4,1.3-7.8-0.7-5.7c-2.3,2.3-2.4,8-2.4,14.1v0.8c0,0.6,0,1.1,0,1.7c0,6.4-2.7,6.9-5.4,7h-0.3
					l0,0h-0.3c-0.1,0-0.2,0-0.3,0c-1.9,0-0.6-2.9,0.6-5.9l0.2-0.5c0.6-1.6,1.2-3.2,1.2-4.4c0-3.6-3.4,7.5-5.4,9.7
					c-1.3,1.5-2.6,1-3.9-1.3c-3,4.6-4.5,4.1-4.5-1.4c0-8.3,4.6-10.8,7.4-12.6l0,0l0.3-0.2c1-0.6,1.9-1.3,2.4-1.9l0.1-0.1
					c0.8-0.8,0.6-1.2-1.8-0.4c-4.2,1.5-7.3,6-6.7,0s6.5-7.4,10.9-8.5s6.9-2.2,0.7-2.2s-9.9,4.2-13.3,5.3c-2.1,0.7-0.3-2.2,2-5.3
					l0.3-0.4c0.1-0.1,0.2-0.2,0.3-0.4l0.3-0.4c1.3-1.5,2.6-3,3.6-3.9c3.2-2.9,8.8-2.3,12.2-2.3s4.4-0.5,0.7-1.3s-9.1,0.8-12.1,1.3
					s1.3-4.4,4.4-6s7-0.5,11.9,0s1.9-1.4-4.9-2.4S12.1,144.3,22,143.2z M29.1,150.8c-0.7,0-1.3,0.6-1.3,1.3s0.6,1.3,1.3,1.3
					s1.3-0.6,1.3-1.3S29.8,150.8,29.1,150.8z"/>
				<path id="Path-117_2_" class="st36" d="M36.6,148.2c-9.2,7.7-15.7,15.3-19.3,22.7"/>
			</g>
		</g>
		<g id="Group-39" transform="translate(25.509704, 23.000000)">
			<g id="Chair-2_1_" transform="translate(17.853801, 134.181794)">
				
					<g id="Chair_1_" transform="translate(76.664895, 136.959762) scale(-1, 1) translate(-76.664895, -136.959762) translate(0.000000, 0.000000)">
					<line id="Path-190_1_" class="st40" x1="42.1" y1="288.5" x2="110.9" y2="352.8"/>
					<line id="Path-190-Copy_1_" class="st40" x1="94.8" y1="292.1" x2="29.6" y2="352.8"/>
					<g id="Rectangle-Copy-12_1_" transform="translate(4.146764, 124.713935)">
						<path id="Mask_9_" class="st2" d="M33.8,143L1,288c-0.4,1.9,0.7,3.7,2.6,4.1c0.3,0.1,0.5,0.1,0.8,0.1c2.5,0,4.8-1.7,5.4-4.2
							l36.8-145l0,0H33.8z"/>
						<path id="Combined-Shape_8_" class="st3" d="M46.5,143l-3,10.9H31.2l2.6-10.9H46.5z"/>
					</g>
					<g id="Rectangle_10_" transform="translate(86.941479, 124.713935)">
						<path id="Mask_10_" class="st2" d="M12.7,143l32.4,138.8c0.4,1.8-0.7,3.7-2.6,4.1c-0.3,0.1-0.5,0.1-0.8,0.1
							c-2.6,0-4.8-1.7-5.4-4.2L0,143l0,0H12.7z"/>
						<polygon id="Path_5_" class="st3" points="12.7,143 15.4,153.9 3,153.9 0,143 						"/>
					</g>
					<g id="Path-189_1_">
						<path id="Mask_11_" class="st5" d="M150.2,143.1c-3.5,0.7-13.5,8.1-19.7,31c-2.5,9.3-4.4,18.3-6.4,30.7
							c-2.9,18.2-1.9,37.2-15.9,44C83.3,260.8,8.5,252.1,3,256s-4.2,11,9.8,11.9s83.2,2.6,97.3-2.1c14.1-4.6,27.6-15.1,29.4-42.8
							c1.8-27.7,3.6-50.2,9.8-63.7S153.6,142.4,150.2,143.1z"/>
						<path id="Combined-Shape_9_" class="st2" d="M150.1,157.4c-0.3,0.6-0.6,1.3-0.9,2c-6.2,13.4-7.9,36-9.8,63.7
							c-1.8,27.7-15.3,38.2-29.4,42.8s-83.2,2.9-97.3,2.1c-10.1-0.6-13.6-4.5-12.7-8.1c2.3,5.2,32.7,5,64.2,4.1l2.5-0.1l0,0l2.5-0.1
							c7.5-0.2,15.1-0.4,22.2-0.6c39.5-1,38.4-28.1,43.7-64.1c2.8-19,7.7-32.9,14.7-41.6L150.1,157.4z"/>
					</g>
				</g>
			</g>
			<g id="Group-3_1_" transform="translate(-0.000000, 0.000000)">
				<g id="Woman-2" transform="translate(-0.000000, 0.000000)">
					<g id="Woman" transform="translate(-0.000000, 0.000000)">
						
							<g id="Group-6" transform="translate(158.585602, 98.725209) rotate(-2.000000) translate(-158.585602, -98.725209) translate(124.228944, 38.146968)">
							
								<g id="Group-4" transform="translate(34.356659, 60.578241) scale(-1, 1) translate(-34.356659, -60.578241) translate(0.000000, -0.000000)">
								<path id="Path-2_1_" class="st41" d="M73.7,228.1l-21.9-17.4l-12.3,16.8l-4.3-45.9L23.6,182l-3.8,63
									c-0.3,4.7,1.1,9.4,4,13.2c2.7,3.6,7.2,5.6,11.7,5.1l0.8-0.1c5.2-0.5,10-3.1,13.5-7.1L73.7,228.1L73.7,228.1z"/>
								
									<g id="right-hand" transform="translate(16.987120, 27.625807) rotate(-8.000000) translate(-16.987120, -27.625807) translate(3.487120, 1.625807)">
									<path id="Mask_12_" class="st41" d="M-4.4,194l2.3-15.8c-6.2-8.9-9.6-14.2-10.1-15.9c-0.7-2.5-1-5.3-1.2-5.8
										s-2.7-7.9-0.6-8.1c-0.3-1.2-0.3-2,0.2-2.5c0.5-0.4,1.2-0.4,2.3,0.1c-0.2-1,0-1.7,0.5-2c0.8-0.5,2.3,0.3,3.4,1.8
										c-0.6-1.8-0.6-2.9-0.1-3.4c0.7-0.7,2.8,1.1,3.7,2.5c0.9,1.4,9.4,16.2,10.6,15.6s0.7-4.4,1-5.9c0.2-1.5,0.7-3.1,3.3-3.7
										c-0.1,2.1,0.1,4.2,0.6,6.4c0.7,3.2,0.3,11.8-0.6,13.8c-0.1,0.3-0.5,7.6-1.1,21.7L-4.4,194z"/>
									<path id="Path-219" class="st42" d="M-4.8,166.5l10.1-4.9c-3.2,4.6-4.2,8.3-3,11.2"/>
									<path id="Path-220" class="st42" d="M-10.6,157.8c2.4-2.2,5.6-3.8,9.7-4.8"/>
									<line id="Path-221" class="st42" x1="-14.1" y1="148.4" x2="-9.7" y2="157.1"/>
									<line id="Path-222" class="st42" x1="-11.6" y1="146" x2="-6.4" y2="154.8"/>
									<line id="Path-223" class="st42" x1="-7.7" y1="145.7" x2="-3" y2="153.7"/>
								</g>
								<line id="Path-4" class="st43" x1="38.8" y1="218.6" x2="40.3" y2="237.1"/>
							</g>
						</g>
						<g id="Group-14" transform="translate(44.268317, 161.157185)">
							<g id="Group-11_1_" transform="translate(0.000000, 0.000000)">
								
									<g id="Group-15" transform="translate(123.384689, 207.013162) scale(-1, 1) translate(-123.384689, -207.013162) translate(97.884689, 166.513162)">
									<path id="Path-33" class="st44" d="M15.7,202L3.2,217.6c-1.1,1.4-0.9,3.4,0.5,4.5c0.4,0.3,0.8,0.5,1.3,0.6
										c3.3,0.7,6.7,0.6,10-0.4l7.3-2.2c7.6-2.3,13.6-8.3,15.8-16l3.5-12l0,0l2.9,13.2c0.3,1.4,1.6,2.4,3,2.4c1.2,0,2.2-1,2.2-2.2
										c0-0.1,0-0.2,0-0.3l-2.1-17c-0.8-6.6-4.6-12.5-10.3-15.9l-4.5-2.8l0,0L15.7,202z"/>
									<path id="Path-31" class="st41" d="M10.2,150.5l0.3,1c2.9,8.7,4,17.9,3.2,27.1l-2.7,32c-0.1,1.3,0.9,2.5,2.2,2.6
										c0.4,0,0.9,0,1.3-0.2l3.3-1.6c4.6-2.2,8.1-6.2,9.8-11l6.4-18.6c1.8-5.2,2-10.9,0.6-16.3l-0.6-2.4c-1-3.9-1.6-7.9-1.7-11.9
										l-0.2-8.2l0,0L10.2,150.5z"/>
								</g>
								
									<g id="Group-16" transform="translate(226.701129, 219.983542) scale(-1, 1) translate(-226.701129, -219.983542) translate(194.701129, 180.983542)">
									<path id="Path-32" class="st44" d="M16.9,199.9l-15.1,16c-0.7,0.8-0.7,2,0.1,2.8c0.1,0.1,0.3,0.2,0.5,0.3
										c1.6,0.8,3.3,1.1,5,1l22.1-1.5c5.4-0.4,10.1-3.7,12.3-8.7l7.2-16.5l0,0l2.9,17.5c0.2,1.2,1.3,2,2.5,1.8h0.1
										c1.3-0.3,2.3-1.4,2.3-2.8V193c0-8.2-2.7-16.1-7.8-22.6l0,0l0,0L16.9,199.9z"/>
									<path id="Path-30" class="st41" d="M41.5,143l-3.3,11c-1.5,5-3.5,9.9-6,14.5l-19.1,35.9l0,0c7.9,4.8,14.4,4.1,19.5-1.9
										c4.7-5.6,10.6-15.6,17.9-30.1c1.4-2.7,2.9-5.4,4.5-7.9l8.3-12.7l0,0L41.5,143z"/>
								</g>
								<path id="Path-15_4_" class="st27" d="M69.8,143l8.5,16l68.8,10.6c10,1.5,19,7.2,24.7,15.5s7.3,18.7,4.3,28.3l-34.2,110.3
									l0,0c-8.7-1.1-14.8-2.2-18.4-3.4c-3.6-1.2-7.1-3.3-10.3-6.2L131.5,204l-89.8-28.4V143H69.8z"/>
								<line id="Path-17" class="st45" x1="121.3" y1="317.4" x2="144.4" y2="221.5"/>
								<path id="Path-2-Copy" class="st29" d="M63.2,143l-59.9,6.8L1,188.6c-0.6,10.9,3.7,21.5,11.7,28.9
									c8.2,7.5,18.9,11.7,30,11.9l97.4,1.2c1,0,1.9,0.6,2.4,1.5L196,341.3l0,0c5.6,0.5,10.9-0.1,15.7-1.9
									c4.9-1.8,9.4-4.5,13.7-8.1L177.7,205c-2.2-5.8-5.6-11.2-10-15.7c-4.3-4.4-9.9-7.3-16-8.3l-67.5-11c-2.2-0.4-4.2-1.6-5.4-3.5
									L63.2,143L63.2,143z"/>
								<path id="Path-16_2_" class="st45" d="M207.9,340.3l-52.7-115.4c-2.9-6.3-9-10.4-15.9-10.6L53,211.5
									c-8.6-0.3-16.8-3.8-22.9-9.9c-6.1-6.1-9.5-14.3-9.5-22.9V149l0,0"/>
							</g>
						</g>
						<path id="Path-14" class="st46" d="M85.3,143C69.8,143,58,153.4,58,174.5S36.3,200.2,36.3,218s23,22.2,36.7,4.2h11.1
							c6.3,12.8,14,17.6,23.2,14.2c13.8-5.1,8.7-20.3,4.7-26.8s-4.7-11.1-2.5-33.2C111.7,154.2,100.9,143,85.3,143z"/>
						<path id="Path-8" class="st47" d="M18,275.4l27.5,1.8l0.1,0.2c2.6,10.8,2.6,22,0,32.7l-0.9,3.7l0,0
							c10.1,2.8,21.8,4.3,35.3,4.3c12.1,0,24-1.1,35.6-3.4c2.3-0.5,4-2.5,4-4.8l0.6-44.1l0,0l9.5,9.7l23.3-21L128.7,223
							c-2.1-2.7-4.5-5-7.3-6.9s-5.9-3.2-9.2-3.7l-14-2.2c-3.2-0.5-6.5-0.8-9.8-0.8l-7.5-0.1c-2.9,0-5.7,0.1-8.6,0.4L53,211.8
							c-6.4,0.7-12.5,2.9-17.9,6.3c-5.2,3.4-8.8,8.7-9.8,14.9L18,275.4L18,275.4z"/>
						<path id="Path_6_" class="st48" d="M120.6,251.6l-0.5,18.1l-0.6,40c0,2.3-1.7,4.4-4,4.8c-11.7,2.3-23.5,3.4-35.6,3.4
							c-13.2,0-24.7-1.4-34.6-4.1l-0.6-0.2l2.1-11.6c1.7-9.4,1.5-12.9-0.6-22.2l-0.2-0.6l-0.5-2.2l5.7-25.5l1,13.6
							c0.3,3.5,2.1,6.7,4.9,8.7c2.8,2,6.2,3.1,9.6,3.2h0.4h39c3.4,0,6.6-1.3,9-3.7c2.3-2.3,3.8-5.3,4.2-8.6v-0.3L120.6,251.6z"/>
						
							<g id="Group-29_1_" transform="translate(70.646747, 166.699950) rotate(-32.000000) translate(-70.646747, -166.699950) translate(22.646747, 110.199950)">
							<path id="Path-63" class="st41" d="M-3.9,203.5l1.4,0.6c4.8,2.1,9,5.2,12,8.8l10.1,12c0.6,0.7,0.8,1.7,0,2.2
								s-2.1,0.3-2.8-0.3l-10.9-9.9l7.9,14.3c0.5,0.9,0.7,1.7-0.4,2.1c-0.9,0.4-2,0.1-2.6-0.5l-0.2-0.2L0.3,219.2l5.7,12
								c0.4,0.8,0.6,1.4-0.4,1.7s-2.1-0.1-2.6-0.8l-8.2-10.6l3.4,8.4c0.3,0.7,0.4,1.1-0.4,1.3c-0.7,0.2-1.7,0-2-0.6l-5.6-8.7
								c-5.9-4.9-9.2-8.3-11.7-13.3L-70,168.7c-3.5-2.9-5.3-7.4-4.7-11.9c0.6-4.7,2.5-9.2,5.4-13l16.7-21.9l0,0l20.3,14.6
								l-15.2,18.1l31.7,41.5C-12.2,199.1-8.2,201.5-3.9,203.5z"/>
							<line id="Path-87" class="st43" x1="-6.7" y1="218.9" x2="-2.7" y2="225"/>
							<line id="Path-88" class="st43" x1="-1.6" y1="215.7" x2="2.9" y2="222.9"/>
							<line id="Path-89" class="st43" x1="3.7" y1="212.9" x2="7.7" y2="219.9"/>
							<path id="Path-37" class="st43" d="M-56.1,151.2c3.7,1,6.5,2.2,8.6,3.5"/>
						</g>
						<g id="Group-10" transform="translate(36.290296, 12.189826)">
							<path id="Path-10" class="st49" d="M66.1,161.2c1.4-1.7,2.9-2.1,4.6-1.2c2.6,1.2-1.6,10.1-4.6,10.1
								C64.1,170.1,64.1,167.2,66.1,161.2z"/>
							<path id="Path-5_1_" class="st41" d="M69.2,158.1v19c0,3.3-1.3,6.5-3.5,9c-2.3,2.4-5.4,3.8-8.7,3.8h-1.2l0,0v14
								c0,5.5-4.5,10-10,10c-5.3,0-9.6-4.3-9.6-9.6c0-0.1,0-0.2,0-0.3l0.8-22l0,0l-3.9-8.5c-3.2-1.6-5.3-3.7-6.3-6.4
								c-1.5-4-0.2-7.3,6.3-5.1l0.5,3.2c0.1,0.4,0.5,0.8,0.9,0.8s0.8-0.3,0.8-0.8v-4.4l0,0c6.3-5.5,9.1-11.4,8.2-17.7
								c5.3,3.7,10.2,6.1,14.8,7.2c1.6,0.4,3.3,0.7,4.9,1C66.6,151.7,69.2,154.6,69.2,158.1z"/>
							<g id="Group-2" transform="translate(31.758833, 14.399432)">
								<g id="Group_1_" transform="translate(0.000000, 2.555970)">
									
										<ellipse id="Oval_10_" transform="matrix(-0.8988 0.4384 -0.4384 -0.8988 129.1342 266.1792)" class="st50" cx="33.8" cy="148" rx="5" ry="5"/>
									
										<ellipse id="Oval-Copy" transform="matrix(-0.8988 0.4384 -0.4384 -0.8988 106.019 271.484)" class="st50" cx="21.7" cy="148" rx="5" ry="5"/>
									<line id="Path-2_2_" class="st51" x1="26.7" y1="148" x2="28.8" y2="148"/>
									<line id="Path-3_1_" class="st52" x1="16.7" y1="146.9" x2="0" y2="143.3"/>
								</g>
								
									<ellipse id="Oval_11_" transform="matrix(-0.8988 0.4384 -0.4384 -0.8988 108.3995 275.6087)" class="st53" cx="22.4" cy="150.3" rx="1.5" ry="1.5"/>
								
									<ellipse id="Oval-Copy-4" transform="matrix(-0.8988 0.4384 -0.4384 -0.8988 129.7859 271.3299)" class="st53" cx="33.6" cy="150.6" rx="1.5" ry="1.5"/>
								<path id="Path-44-Copy" class="st54" d="M35.5,143.9c-0.9-0.4-2.1-0.6-3.4-0.6c-1.4,0-1.2,1.1-0.3,1s1.4-0.2,2.9,0.1
									C36.2,144.8,36.4,144.3,35.5,143.9z"/>
								<path id="Path-44-Copy_1_" class="st54" d="M18.2,143.8c0.9-0.4,4.4-0.8,5.8-0.8s1.2,1.3,0.2,1.1c-1.1-0.2-4-0.1-5.2,0.2
									S17.3,144.2,18.2,143.8z"/>
								<path id="Path-6" class="st55" d="M24.9,157.8c0.8,1.4,1.8,2.1,3.1,2.1c1.3,0,2-0.6,2-1.8c0,0.3-0.6,0.4-1.7,0.4
									C27.2,158.6,26,158.3,24.9,157.8z"/>
								<g id="Path-5_2_" transform="translate(21.555388, 19.673984)">
									<path id="Mask_13_" class="st56" d="M0.2,143.4c2.2,0.6,3.9,0.9,5,1s2.5,0,4.1-0.3c-0.9,2-2.3,3-4.1,3S1.7,145.9,0.2,143.4
										z"/>
									<path id="Path_7_" class="st18" d="M0.3,143.5l-0.1-0.1l0,0l0.6,0.2c1.9,0.5,3.4,0.8,4.4,0.9c1.1,0.1,2.5,0,4.1-0.3
										l-0.1,0.1C7.1,146,4.1,145.8,0.3,143.5L0.3,143.5z"/>
								</g>
							</g>
							<path id="Path-13" class="st57" d="M28.1,163.8c2,0.1,3.4,1.3,4.3,3.5"/>
							<path id="Path_8_" class="st55" d="M41.1,182.9c3.4,4.1,8.3,6.5,14.6,7v13.5c-4.7-3.9-7.8-7-9.5-9.3
								C44.4,191.6,42.7,187.9,41.1,182.9z"/>
							<path id="Path-64" class="st46" d="M32.8,173.2c10.6,19.8,10.6,34.4,0,43.6C16.9,230.8,0,220.7,0,204.6L21.9,182L32.8,173.2z
								"/>
						</g>
						<line id="Path-14_1_" class="st58" x1="120.8" y1="251.6" x2="119.3" y2="279.8"/>
					</g>
				</g>
			</g>
		</g>
	</g>
</g>
</svg>
