<?xml version="1.0" encoding="utf-8"?>
<!-- Generator: Adobe Illustrator 26.2.1, SVG Export Plug-In . SVG Version: 6.00 Build 0)  -->
<svg version="1.1" id="Layer_1" xmlns="http://www.w3.org/2000/svg" xmlns:xlink="http://www.w3.org/1999/xlink" x="0px" y="0px"
	 viewBox="0 0 627 627" style="enable-background:new 0 0 627 627;" xml:space="preserve">
<style type="text/css">
	.st0{fill-rule:evenodd;clip-rule:evenodd;fill:#B8BFC4;}
	.st1{fill-rule:evenodd;clip-rule:evenodd;fill:#E8EBEE;}
	.st2{opacity:0.3;fill-rule:evenodd;clip-rule:evenodd;fill:#B8BFC4;enable-background:new    ;}
	.st3{fill-rule:evenodd;clip-rule:evenodd;fill:#FFFFFF;}
	.st4{fill-rule:evenodd;clip-rule:evenodd;fill:#5CCD71;}
	.st5{fill:none;stroke:#B8BFC4;stroke-width:1.309;}
	.st6{fill-rule:evenodd;clip-rule:evenodd;fill:#782C1A;}
	.st7{fill-rule:evenodd;clip-rule:evenodd;fill:#FFB590;}
	.st8{fill-rule:evenodd;clip-rule:evenodd;fill:#E8A685;}
	.st9{fill-rule:evenodd;clip-rule:evenodd;fill:#D19476;}
	.st10{fill-rule:evenodd;clip-rule:evenodd;fill:#19243D;}
	.st11{fill:none;stroke:#782C1A;stroke-width:1.4157;stroke-linecap:round;}
	.st12{fill:none;stroke:#FFFFFF;stroke-width:1.0112;stroke-linecap:round;}
	.st13{fill:none;stroke:#FFFFFF;stroke-width:1.0112;}
	.st14{fill:none;stroke:#19243D;stroke-width:1.0112;stroke-linecap:round;}
	.st15{opacity:0.6775;fill-rule:evenodd;clip-rule:evenodd;fill:#E8A685;enable-background:new    ;}
	.st16{fill-rule:evenodd;clip-rule:evenodd;fill:#FF7600;}
	.st17{fill:#333333;}
	.st18{fill-rule:evenodd;clip-rule:evenodd;fill:#5BCC70;}
	.st19{fill-rule:evenodd;clip-rule:evenodd;fill:#FFFFFF;fill-opacity:0;}
	.st20{fill-rule:evenodd;clip-rule:evenodd;fill:#56A3F1;}
	.st21{fill-rule:evenodd;clip-rule:evenodd;fill:#82645D;}
	.st22{opacity:0.5;fill-rule:evenodd;clip-rule:evenodd;fill:#703519;enable-background:new    ;}
	.st23{fill-rule:evenodd;clip-rule:evenodd;fill:#0A0E17;}
	.st24{fill:none;stroke:#72493E;stroke-width:0.5751;}
	.st25{fill:#623308;stroke:#72493E;stroke-width:0.5751;}
	.st26{fill:none;stroke:#0A0E17;stroke-width:0.8328;stroke-linecap:round;}
	.st27{fill:none;stroke:#B8BFC4;stroke-width:0.77;}
	.st28{fill:none;stroke:#782C1A;stroke-width:0.8085;stroke-linecap:round;}
	.st29{fill:none;stroke:#FFFFFF;stroke-width:0.5775;stroke-linecap:round;}
	.st30{fill:none;stroke:#FFFFFF;stroke-width:0.5775;}
	.st31{fill:none;stroke:#19243D;stroke-width:0.5775;stroke-linecap:round;}
	.st32{fill:none;stroke:#782C1A;stroke-width:0.5775;}
	.st33{opacity:0.2372;fill:none;stroke:#FFFFFF;stroke-width:0.5775;enable-background:new    ;}
</style>
<g id="Searching-functionality">
	<g id="Group-5" transform="translate(119.000000, 215.000000)">
		<path id="Rectangle-Copy" class="st0" d="M-59.8-59h447.9c13.4,0,24.2,10.8,24.2,24.2v234.1c0,13.4-10.8,24.2-24.2,24.2H-59.8
			c-13.4,0-24.2-10.8-24.2-24.2V-34.8C-84-48.2-73.2-59-59.8-59z"/>
		<path id="Rectangle" class="st1" d="M-44.4-59h447.9c13.4,0,24.2,10.8,24.2,24.2v234.1c0,13.4-10.8,24.2-24.2,24.2H-44.4
			c-13.4,0-24.2-10.8-24.2-24.2V-34.8C-68.6-48.2-57.8-59-44.4-59z"/>
		<path id="Rectangle-Copy-2" class="st2" d="M-44.4-59h447.9c13.4,0,24.2,10.8,24.2,24.2v31.9l0,0H-68.6v-31.9
			C-68.6-48.2-57.8-59-44.4-59z"/>
		<g id="Group-23" transform="translate(300.407318, 68.161622)">
			<ellipse id="Oval" class="st3" cx="-4.2" cy="20.7" rx="79.8" ry="79.7"/>
			<path id="Path" class="st4" d="M-1.8,38.8l1.7,0.1l36.5,5.9c4.3,0.7,8.3,2.9,11.1,6.2c2.9,3.4,4.6,7.5,5.1,11.9l1.2,12.4
				c-14.5,15.4-35.2,25-58,25c-23.2,0-44.2-9.9-58.7-25.8l1-11.4c0.4-4.5,2.3-8.8,5.4-12.2c3.1-3.4,7.2-5.6,11.7-6.5l29.4-5.6
				C-10.9,38.5-6.3,38.5-1.8,38.8z"/>
			<ellipse id="Oval-Copy-2" class="st5" cx="-4.2" cy="20.7" rx="79.1" ry="79.1"/>
			<g id="Group-2-Copy" transform="translate(51.001431, 24.310728)">
				<g id="Group-4" transform="translate(0.000000, 0.000000)">
					<g id="Group-3" transform="translate(0.000000, 0.000000)">
						<g id="Group-2" transform="translate(0.000000, 0.000000)">
							<path id="Path-118" class="st6" d="M-76.7-16.9c-4.7-11-6.3-18.6-4.7-22.8s4.6-6,8.9-5.6c2-11.6,9-15.9,20.9-12.8
								c4.4,2,7.8,4.3,10.2,7.1c3.6,4.1,10.9,4.4,12.2,12.1c0.9,5.2-0.8,13.2-5.1,24L-45-9.6l-31.1-2.5L-76.7-16.9z"/>
							<path id="Rectangle_2_" class="st7" d="M-67.9,5.6h25.6v16.3c0,7.1-5.7,12.8-12.8,12.8S-67.9,29-67.9,21.9V5.6L-67.9,5.6z"/>
							<path id="Path_1_" class="st8" d="M-42.3,5.6v2.1c-4.3,6-12.8,10.1-25.6,12.1V5.5h25.6V5.6z"/>
							<path id="Path-117" class="st7" d="M-70-37.4l-0.6,0.5c-2,1.8-3.3,4.3-3.4,6.9l-1,14.4l0,0c-2.3-3.3-4.8-3.9-7.4-1.7
								c-4,3.3-0.3,11,7.4,11.8c3,11.5,9,17.7,17.9,18.7c13.4,1.5,20.6-12.1,20.6-18.7c5-0.7,7.9-2.6,8.8-5.6c1.2-4.5-2.4-9.8-8-4.5
								l-2.2-18.9c-5.8,3.2-11.5,2.9-17.1-0.7c-2-1.3-3.8-2.4-5.4-3.2C-63.5-40.2-67.4-39.8-70-37.4z"/>
							<g id="Group-21" transform="translate(7.507178, 33.610943)">
								<path id="Path-6" class="st9" d="M-65.6-40.5c0.8,1.7,1.9,2.5,3.2,2.5s2.2-0.8,2.7-2.5c-0.7,0.7-1.5,1-2.7,1
									C-63.5-39.4-64.5-39.8-65.6-40.5z"/>
								<g id="Group-11" transform="translate(0.000000, -0.000000)">
									<path id="Oval_1_" class="st10" d="M-55.5-49.6c0.8,0,1.5-0.7,1.5-1.5s-0.7-1.5-1.5-1.5s-1.5,0.7-1.5,1.5
										S-56.3-49.6-55.5-49.6z"/>
									<path id="Oval-Copy-3" class="st10" d="M-69.2-49.6c0.8,0,1.5-0.7,1.5-1.5s-0.7-1.5-1.5-1.5s-1.5,0.7-1.5,1.5
										S-70-49.6-69.2-49.6z"/>
									<path id="Path-30" class="st11" d="M-75.1-57.4c3.5-1.7,6.7-1.7,9.6,0"/>
									<g id="Group-17" transform="translate(0.000000, 2.865390)">
										<path id="Oval_2_" class="st12" d="M-55.6-48.9c2.8,0,5-2.3,5-5c0-2.8-2.3-5-5-5c-2.8,0-5,2.3-5,5S-58.4-48.9-55.6-48.9z"
											/>
										<path id="Oval-Copy" class="st12" d="M-69.3-48.9c2.8,0,5-2.3,5-5c0-2.8-2.3-5-5-5c-2.8,0-5,2.3-5,5
											C-74.4-51.2-72.1-48.9-69.3-48.9z"/>
										<line id="Path-33" class="st13" x1="-64.3" y1="-54" x2="-60.3" y2="-54"/>
										<line id="Path-35" class="st12" x1="-74.4" y1="-54" x2="-84" y2="-55.1"/>
										<line id="Path-35-Copy" class="st12" x1="-49.7" y1="-54" x2="-41.6" y2="-55.1"/>
									</g>
									<path id="Path-30-Copy" class="st11" d="M-51-57.4c-3.5-1.7-6.7-1.7-9.6,0"/>
								</g>
								<path id="Path-36" class="st14" d="M-67.8-33c3.4,2.9,7,2.9,10.8,0"/>
							</g>
							<path id="Path_2_" class="st15" d="M-69.4-37.9c2.6-1.9,6.2-2.2,9.1-0.6c1.5,0.8,3.3,1.9,5.4,3.2c5.5,3.6,11.1,3.9,16.9,0.9
								l0.3-0.1l0.5,4.5c-10.1,4.7-17.3,0.2-22.8-4.8l-0.5-0.5c-3-2.8-5.9-3.7-8.6-2.7L-69.4-37.9z"/>
							<g id="Group" transform="translate(49.004061, 43.588512)">
								<path id="Path-119" class="st14" d="M-84-53.6c0.6-3.8,2.3-5.6,5.2-5.3"/>
								<line id="Path-120" class="st14" x1="-83.1" y1="-56.6" x2="-81.4" y2="-54.3"/>
							</g>
							
								<g id="Group-Copy" transform="translate(4.885104, 46.270066) scale(-1, 1) translate(-4.885104, -46.270066) translate(2.263030, 43.588512)">
								<path id="Path-119_1_" class="st14" d="M84-53.6c0.6-3.8,2.3-5.6,5.2-5.3"/>
								<line id="Path-120_1_" class="st14" x1="84.9" y1="-56.6" x2="86.6" y2="-54.3"/>
							</g>
							<line id="Path-2" class="st12" x1="-72.5" y1="-45.2" x2="-70.8" y2="-42.9"/>
						</g>
					</g>
				</g>
			</g>
		</g>
		<g id="Group_1_" transform="translate(273.997884, 41.034832)">
			<g id="_x32_920349" transform="translate(0.000000, -0.000000)">
				<path id="Path_3_" class="st16" d="M175.9,224l-68-68.4c-1.3-1.3-1.3-3.3,0-4.6l18.5-18.4c1.3-1.3,3.3-1.3,4.6,0l68,68.4
					c1.3,1.3,1.3,3.3,0,4.6L180.6,224C179.3,225.3,177.2,225.3,175.9,224z"/>
				<polygon id="Path_4_" class="st17" points="86.2,122.4 97.7,110.8 122.9,136 111.4,147.5 				"/>
				<polygon id="Path_5_" class="st18" points="118.1,165.8 141.2,142.7 152.8,154.2 129.7,177.3 				"/>
				<ellipse id="Oval_3_" class="st19" cx="22.3" cy="47.1" rx="92.4" ry="92.2"/>
				<path id="Combined-Shape" class="st16" d="M22.2-59c58.7,0,106.2,47.4,106.2,106S80.8,153,22.2,153S-84,105.5-84,47
					S-36.4-59,22.2-59z M22.2-42.7c-49.6,0-89.9,40.1-89.9,89.7s40.2,89.7,89.9,89.7s89.9-40.1,89.9-89.7S71.8-42.7,22.2-42.7z"/>
			</g>
		</g>
		<g id="Group-24" transform="translate(163.958573, 101.143052)">
			<g id="Oval_4_">
				<ellipse id="path-1_1_" class="st3" cx="-37.2" cy="-12.3" rx="46.8" ry="46.7"/>
			</g>
			<g id="Group-2-Copy-6">
				<g transform="translate(11.188409, 15.278364)">
					<path id="Path_6_" class="st20" d="M-54.8-17.4c2.7-0.2,5.3-0.3,8-0.1l1,0.1l21.4,3.4c2.5,0.4,4.8,1.7,6.5,3.7
						c1.7,2,2.7,4.4,3,7c0.1,2.5,0.1,5,0.2,7.6c-3.1,3-15.9,14.6-34.2,14.4c-9.3-0.1-16.5-3.2-18.5-4.1C-75,11.2-80,6.5-82.7,3.6
						c0.2-2.3,0.4-4.5,0.6-6.8c0.2-2.7,1.3-5.2,3.2-7.1c1.8-2,4.2-3.3,6.9-3.8L-54.8-17.4z"/>
					<g id="Group-4_1_" transform="translate(19.531833, 0.000000)">
						<g id="Group-3_1_" transform="translate(-0.000000, 0.000000)">
							<g id="Group-2_1_" transform="translate(-0.000000, 0.000000)">
								<path id="Rectangle_3_" class="st21" d="M-74.3-25.7h14.6v9.3c0,4-3.3,7.3-7.3,7.3s-7.3-3.3-7.3-7.3L-74.3-25.7L-74.3-25.7z
									"/>
								<path id="Path_7_" class="st22" d="M-59.7-25.7v1.2c-2.4,3.4-7.3,5.7-14.6,6.9v-8.1H-59.7z"/>
								<g id="Group-18" transform="translate(-0.000000, 0.000000)">
									<g id="Group-19" transform="translate(-0.000000, 0.000000)">
										<path id="Path-42" class="st23" d="M-77.6-33.7c-2.9-7.2-3.4-13.5-1.4-19.1c3-8.3,21.4-8.5,23.2,1.1
											c1.2,6.4,0.8,11.8-1.2,16.2l-10,1L-77.6-33.7z"/>
										<path id="Path-39" class="st21" d="M-77.6-45c-0.4,1.7-1.4,1.5-1.3,5.4h-0.5c-2-1-3.3-1-4.1,0c-1.2,1.5,0,6.1,4.3,8
											c2.5,7.7,6.4,11.6,11.9,11.8c5.5,0.2,9.5-4,12-12.5c4-1.4,5.5-6.9,3.7-8c-1.2-0.8-2.5-0.5-4,0.8h-0.5c0-2.2-0.4-4-1.2-5.4
											c-1-1.7-0.5-7.5-2.7-6.2c-2.2,0.9-4.5,1.4-7.1,1.4c-2.7,0-5.4-0.5-8.1-1.4C-76.9-51.6-76.7-48.8-77.6-45z"/>
										<g id="Group_2_" transform="translate(28.235087, 20.302998)">
											<path id="Path-119_2_" class="st24" d="M-84-55.9c0.3-2.2,1.4-3.3,3.1-3.1"/>
											<line id="Path-120_2_" class="st24" x1="-83.4" y1="-57.6" x2="-82.5" y2="-56.3"/>
										</g>
										
											<g id="Group-Copy-2" transform="translate(3.202618, 22.011125) scale(-1, 1) rotate(9.000000) translate(-3.202618, -22.011125) translate(1.665540, 20.439179)">
											<path id="Path-119_3_" class="st24" d="M73.7-68.3c0.3-2.2,1.4-3.3,3.1-3.1"/>
											<line id="Path-120_3_" class="st25" x1="74.3" y1="-70" x2="75.3" y2="-68.7"/>
										</g>
										<path id="Path_8_" class="st23" d="M-78-33.9c0.2,1.2,0.9,2.3,1.9,3l0.4,0.3c0.7,0.5,1.6-0.7,2.3-1.1h0.1
											c0.8-0.5,1.7-0.8,2.7-0.8h7.4c0.8,0,1.5,0.2,2.1,0.7l0.1,0.1c0.6,0.4,1.3,1.6,1.9,1.2l0.5-0.4c0.9-0.7,1.5-1.7,1.7-2.9
											l1.2-9l0.4,10.5l0,0c-2.5,9.2-6.5,12.6-11.9,12.5h-0.2c-5.5-0.2-9.4-3.3-11.9-11.8l0,0l-0.2-9c0-0.6,0-1.2,0.1-1.8l0,0
											l0,0L-78-33.9z"/>
										<path id="Path-6_1_" class="st22" d="M-69.2-34.5c0.5,1,1.1,1.5,1.9,1.5s1.3-0.5,1.6-1.5c-0.4,0.4-0.9,0.6-1.6,0.6
											C-68-33.9-68.7-34.1-69.2-34.5z"/>
										<path id="Oval_5_" class="st23" d="M-63.5-39c0.5,0,0.9-0.4,0.9-0.9s-0.4-0.9-0.9-0.9s-0.9,0.4-0.9,0.9S-64-39-63.5-39z"
											/>
										<path id="Oval-Copy-3_1_" class="st23" d="M-71.7-39c0.5,0,0.9-0.4,0.9-0.9s-0.4-0.9-0.9-0.9s-0.9,0.4-0.9,0.9
											S-72.1-39-71.7-39z"/>
										<path id="Path-30_1_" class="st26" d="M-74.7-43.7c2.1-1,3.9-1,5.7,0"/>
										<path id="Path-30-Copy_1_" class="st26" d="M-60.6-43.5c-2.1-1-3.9-1-5.7,0"/>
										<path id="Mask" class="st3" d="M-70.6-29.5c0.7,2.1,1.8,3.2,3.3,3.2s2.6-1.1,3.3-3.2H-70.6z"/>
									</g>
								</g>
							</g>
						</g>
					</g>
				</g>
			</g>
			<ellipse id="Oval-Copy-2_1_" class="st27" cx="-37.2" cy="-12.3" rx="46.4" ry="46.3"/>
		</g>
		<g id="Group-26" transform="translate(48.417297, 101.143052)">
			<g id="Oval_6_">
				<ellipse id="path-3_1_" class="st3" cx="-37.2" cy="-12.3" rx="46.8" ry="46.7"/>
			</g>
			<g id="Group-2-Copy-7">
				<g transform="translate(15.384504, 15.969513)">
					<path id="Path-50" class="st6" d="M-67.5-46.5c-3.3,11.5-1.2,23.9-6,30.9c-3.2,4.7,3.4,10.5,19.9,17.4
						c3.9-11.6-7.4-17.7-5.6-25.7h12.7c-3.6,11.6-3.6,19.8,0,24.8s10.6,1.2,21-11.5c0-9.2-11.6-11.2-10.4-19.8
						c2.1-14.8-5-27.2-12-28.4C-55-59.9-64.3-58-67.5-46.5z"/>
					<path id="Path_9_" class="st16" d="M-50.9-17.2l0.9,0.1l19.4,3.4c2.4,0.4,4.6,1.7,6.2,3.7c1.5,2,2.5,4.4,2.7,6.9l0.8,9.2
						c-8.3,7.7-19.5,12.5-31.8,12.5c-12.1,0-23.1-4.6-31.4-12.1l0.7-9.4c0.2-2.6,1.2-5,2.9-7c1.7-2,4-3.3,6.5-3.8l15.6-3.3
						C-55.8-17.3-53.3-17.4-50.9-17.2z"/>
					<path id="Rectangle_4_" class="st7" d="M-57.5-23.7h12.3v10.4c0,3.4-2.8,6.1-6.1,6.1s-6.1-2.8-6.1-6.1v-10.4H-57.5z"/>
					<path id="Path_10_" class="st8" d="M-45.2-23.7v1.2v0.4c-2.2,4.1-5,6.5-12.3,6.5v-8.1H-45.2z"/>
					<path id="Path-43" class="st7" d="M-63.2-35.7L-63-33c0.3,2.6,1.1,5,2.4,7.2c1.3,2.2,3.1,4.1,5.3,5.5l0.4,0.3
						c2.1,1.4,4.9,1.4,7,0l0.4-0.2c2.1-1.4,3.7-3.3,4.9-5.5s1.8-4.6,1.8-7.1v-3.5c0-2.7-0.7-5.3-2-7.6c-2.2-3.8-4.6-6.1-7.3-6.9
						c-1.6-0.5-5.1-1.2-8.4,1.9c-1.6,1.5-2.9,3.8-4,6.8C-63.2-40.1-63.5-37.9-63.2-35.7z"/>
					<g id="Group-21_1_" transform="translate(20.831181, 17.703507)">
						<path id="Path-6_2_" class="st9" d="M-73.9-48.5c0.5,1,1.1,1.4,1.8,1.4s1.3-0.5,1.5-1.4c-0.4,0.4-0.9,0.6-1.5,0.6
							S-73.3-48.1-73.9-48.5z"/>
						<g id="Group-11_1_">
							<path id="Oval_7_" class="st10" d="M-68.2-53.7c0.5,0,0.8-0.4,0.8-0.8c0-0.5-0.4-0.8-0.8-0.8S-69-55-69-54.5
								C-69-54.1-68.6-53.7-68.2-53.7z"/>
							<path id="Oval-Copy-3_2_" class="st10" d="M-76-53.7c0.5,0,0.8-0.4,0.8-0.8c0-0.5-0.4-0.8-0.8-0.8s-0.8,0.4-0.8,0.8
								C-76.8-54.1-76.4-53.7-76-53.7z"/>
							<path id="Path-30_2_" class="st28" d="M-79.1-57.9c2-0.9,3.8-0.9,5.5,0"/>
							<g id="Group-17_1_" transform="translate(0.000000, 1.603027)">
								<path id="Oval_8_" class="st29" d="M-68.2-53.3c1.6,0,2.9-1.3,2.9-2.9c0-1.6-1.3-2.9-2.9-2.9s-2.9,1.3-2.9,2.9
									C-71.1-54.5-69.8-53.3-68.2-53.3z"/>
								<path id="Oval-Copy_1_" class="st29" d="M-76-53.3c1.6,0,2.9-1.3,2.9-2.9c0-1.6-1.3-2.9-2.9-2.9s-2.9,1.3-2.9,2.9
									C-78.9-54.5-77.6-53.3-76-53.3z"/>
								<line id="Path-33_1_" class="st30" x1="-73.2" y1="-56.1" x2="-70.9" y2="-56.1"/>
								<line id="Path-35_1_" class="st29" x1="-78.9" y1="-56.1" x2="-84" y2="-56.7"/>
								<line id="Path-35-Copy_1_" class="st29" x1="-65.2" y1="-56.1" x2="-61.7" y2="-56.5"/>
							</g>
							<path id="Path-30-Copy_2_" class="st28" d="M-65.3-58.1c-2-0.9-3.8-0.9-5.5,0"/>
						</g>
						<path id="Path-36_1_" class="st31" d="M-75.2-44.2c1.9,1.7,4,1.7,6.1,0"/>
					</g>
					<path id="Path-49" class="st32" d="M-55.6-52.1c3.7,0.3,6.6,1.7,8.9,4.1c4.1,4.3,4.7,6.8,6.3,12.9"/>
					<path id="Path-50-Copy" class="st6" d="M-67.5-46.5c-3.3,11.5-1.2,23.9-6,30.9S-83.9-5.4-80.8,3.9s20.5,11.6,24.4,0
						s-1.7-17,0-24.9c-2.1-1.9-3.5-3.6-4.4-5.1c-0.4-0.7-0.7-0.9-0.8-1.1C-64.2-33.5-66.2-39.9-67.5-46.5z"/>
					<path id="Path-51" class="st33" d="M-65.5-50.4c-1.7,5-2.9,12.2-3.6,21.6c-0.4,5.8-1.4,9.9-3.1,13.1c-2.4,4.6-6,7.4-7.7,11.1"
						/>
					<path id="Path-52" class="st32" d="M-65-51.3c-1.3,2.2-2.1,3.8-2.5,4.8c-2,5.2-2.6,10.5-2.9,16.2c-0.5,11.1-5,19.6-9.5,24.3"/>
					<path id="Path-53" class="st32" d="M-38.8-49.2c3.1,5.4,4.2,11.5,3.4,18.4c-0.4,3.8,0.6,7,2.1,9.5c0.8,1.3,2.5,2.8,5,4.4"/>
				</g>
			</g>
			<ellipse id="Oval-Copy-2_2_" class="st27" cx="-37.2" cy="-12.3" rx="46.4" ry="46.3"/>
		</g>
	</g>
</g>
</svg>
