<?xml version="1.0" encoding="utf-8"?>
<!-- Generator: Adobe Illustrator 25.2.3, SVG Export Plug-In . SVG Version: 6.00 Build 0)  -->
<svg version="1.1" id="Layer_1" xmlns="http://www.w3.org/2000/svg" xmlns:xlink="http://www.w3.org/1999/xlink" x="0px" y="0px"
	 viewBox="0 0 702 702" style="enable-background:new 0 0 702 702;" xml:space="preserve">
<style type="text/css">
	.st0{fill-rule:evenodd;clip-rule:evenodd;fill:#FF7600;}
	.st1{fill-rule:evenodd;clip-rule:evenodd;fill:#FFFFFF;}
	.st2{opacity:0.4;fill-rule:evenodd;clip-rule:evenodd;fill:#FFFFFF;enable-background:new    ;}
	.st3{fill-rule:evenodd;clip-rule:evenodd;fill:#FF7602;}
	.st4{fill-rule:evenodd;clip-rule:evenodd;fill:#E2E7E9;}
	.st5{fill-rule:evenodd;clip-rule:evenodd;fill:#C2C6C8;}
	.st6{opacity:0.4;fill-rule:evenodd;clip-rule:evenodd;fill:#C3C6C8;enable-background:new    ;}
	.st7{fill-rule:evenodd;clip-rule:evenodd;fill:#C0CAD0;}
	.st8{fill-rule:evenodd;clip-rule:evenodd;fill:#F4F5F7;}
	.st9{fill-rule:evenodd;clip-rule:evenodd;fill:#C3C6C8;}
	.st10{fill-rule:evenodd;clip-rule:evenodd;fill:#C1CAD0;}
	.st11{fill-rule:evenodd;clip-rule:evenodd;fill:#FFBCAD;}
	.st12{fill-rule:evenodd;clip-rule:evenodd;fill:#56A3F1;}
	.st13{fill:#5CCB6F;}
</style>
<g id="Recommended-matches">
	<g id="Group" transform="translate(171.000000, 209.484503)">
		
			<g id="Group-4" transform="translate(220.220134, 75.055320) scale(-1, 1) translate(-220.220134, -75.055320) translate(59.000000, 34.515497)">
			<path id="Rectangle" class="st0" d="M61.3-52h309.8c3.5,0,6.3,2.8,6.3,6.3v68.5c0,3.5-2.8,6.3-6.3,6.3H61.3
				c-3.5,0-6.3-2.8-6.3-6.3v-68.5C55-49.2,57.8-52,61.3-52z"/>
			<g id="Group-6" transform="translate(42.000000, 15.000000)">
				<path id="Rectangle-Copy-15" class="st1" d="M130-39.2h159.6c1.9,0,3.4,1.5,3.4,3.4s-1.5,3.4-3.4,3.4H130
					c-1.9,0-3.4-1.5-3.4-3.4C126.5-37.7,128.1-39.2,130-39.2z"/>
				<path id="Rectangle-Copy-14" class="st2" d="M130-18.6h133.1c1.9,0,3.4,1.5,3.4,3.4s-1.5,3.4-3.4,3.4H130
					c-1.9,0-3.4-1.5-3.4-3.4C126.5-17,128.1-18.6,130-18.6z"/>
				<g id="Group-3">
					<path id="Oval" class="st1" d="M80.5-26.5c14.1,0,25.5,0,25.5,0S94.6-26.5,80.5-26.5s-25.5,0-25.5,0S66.4-26.5,80.5-26.5z"/>
					<path id="Path" class="st3" d="M80.5-23.9c9,0,16.7,5.1,20.5,12.6C96.3-5,88.9-1,80.5-1S64.6-5.1,60-11.3
						C63.8-18.8,71.6-23.9,80.5-23.9z"/>
					<path id="Oval_1_" class="st3" d="M80.5-34.1c4.3,0,7.7,0,7.7,0S84.8-34.1,80.5-34.1s-7.7,0-7.7,0S76.2-34.1,80.5-34.1z"/>
				</g>
			</g>
		</g>
		
			<g id="Group-4-Copy" transform="translate(161.220134, 185.055320) scale(-1, 1) translate(-161.220134, -185.055320) translate(0.000000, 144.515497)">
			<path id="Rectangle_1_" class="st4" d="M61.3-52h309.8c3.5,0,6.3,2.8,6.3,6.3v68.5c0,3.5-2.8,6.3-6.3,6.3H61.3
				c-3.5,0-6.3-2.8-6.3-6.3v-68.5C55-49.2,57.8-52,61.3-52z"/>
			<g id="Group-6_1_" transform="translate(42.000000, 15.000000)">
				<path id="Rectangle-Copy-15_1_" class="st5" d="M130-39.2h159.6c1.9,0,3.4,1.5,3.4,3.4s-1.5,3.4-3.4,3.4H130
					c-1.9,0-3.4-1.5-3.4-3.4C126.5-37.7,128.1-39.2,130-39.2z"/>
				<path id="Rectangle-Copy-14_1_" class="st6" d="M130-18.6h133.1c1.9,0,3.4,1.5,3.4,3.4s-1.5,3.4-3.4,3.4H130
					c-1.9,0-3.4-1.5-3.4-3.4C126.5-17,128.1-18.6,130-18.6z"/>
				<g id="Group-3_1_">
					<path id="Oval_2_" class="st1" d="M80.5-26.5c14.1,0,25.5,0,25.5,0S94.6-26.5,80.5-26.5s-25.5,0-25.5,0S66.4-26.5,80.5-26.5z"
						/>
					<path id="Path_1_" class="st7" d="M80.5-23.9c9,0,16.7,5.1,20.5,12.6C96.3-5,88.9-1,80.5-1S64.6-5.1,60-11.3
						C63.8-18.8,71.6-23.9,80.5-23.9z"/>
					<path id="Oval_3_" class="st7" d="M80.5-34.1c4.3,0,7.7,0,7.7,0S84.8-34.1,80.5-34.1s-7.7,0-7.7,0S76.2-34.1,80.5-34.1z"/>
				</g>
			</g>
		</g>
		
			<g id="Group-4-Copy-2" transform="translate(161.220134, 295.055320) scale(-1, 1) translate(-161.220134, -295.055320) translate(0.000000, 254.515497)">
			<path id="Rectangle_2_" class="st8" d="M61.3-52h309.8c3.5,0,6.3,2.8,6.3,6.3v68.5c0,3.5-2.8,6.3-6.3,6.3H61.3
				c-3.5,0-6.3-2.8-6.3-6.3v-68.5C55-49.2,57.8-52,61.3-52z"/>
			<g id="Group-6_2_" transform="translate(42.000000, 15.000000)">
				<path id="Rectangle-Copy-15_2_" class="st9" d="M130-39.2h159.6c1.9,0,3.4,1.5,3.4,3.4s-1.5,3.4-3.4,3.4H130
					c-1.9,0-3.4-1.5-3.4-3.4C126.5-37.7,128.1-39.2,130-39.2z"/>
				<path id="Rectangle-Copy-14_2_" class="st6" d="M130-18.6h133.1c1.9,0,3.4,1.5,3.4,3.4s-1.5,3.4-3.4,3.4H130
					c-1.9,0-3.4-1.5-3.4-3.4C126.5-17,128.1-18.6,130-18.6z"/>
				<g id="Group-3_2_">
					<path id="Oval_4_" class="st1" d="M80.5-26.5c14.1,0,25.5,0,25.5,0S94.6-26.5,80.5-26.5s-25.5,0-25.5,0S66.4-26.5,80.5-26.5z"
						/>
					<path id="Path_2_" class="st10" d="M80.5-23.9c9,0,16.7,5.1,20.5,12.6C96.3-5,88.9-1,80.5-1S64.6-5.1,60-11.3
						C63.8-18.8,71.6-23.9,80.5-23.9z"/>
					<path id="Oval_5_" class="st10" d="M80.5-34.1c4.3,0,7.7,0,7.7,0S84.8-34.1,80.5-34.1s-7.7,0-7.7,0S76.2-34.1,80.5-34.1z"/>
				</g>
			</g>
		</g>
		
			<g id="Group-3_3_" transform="translate(389.166432, 160.544760) rotate(-14.000000) translate(-389.166432, -160.544760) translate(341.666432, 84.529908)">
			
				<rect id="Rectangle_3_" x="-11.2" y="30.4" transform="matrix(-1 5.011576e-06 -5.011576e-06 -1 36.2945 95.0483)" class="st11" width="58.7" height="34.2"/>
			<g id="_x31_612781" transform="translate(-0.000000, -0.000000)">
				<path id="Path_3_" class="st11" d="M37.1-12.1c0-5,3.8-9.1,8.4-9.1h0.2c4.6,0,8.4,4,8.4,9c0,16.4,0,18,0,42.4
					C54.1,43.9,43.8,55,31,55H3.7c-8.4,0-16.1-4.9-20.2-12.8L-40.9-4.9l2.5-2.1c5.3-4.9,13.2-4.3,17.8,1.3l6.8,8.4l0-57.5
					c0-5,3.8-9.1,8.4-9.1c4.7,0,8.4,4.1,8.4,9.1L3-20c0.1-4.9,3.8-8.8,8.4-8.8h0.2c4.7,0,8.4,4.1,8.4,9.1v2.9c0-5,3.8-9.1,8.4-9.1
					l0,0c4.7,0,8.4,4.1,8.4,9.1v4.7H37.1z"/>
			</g>
			<path id="Rectangle_4_" class="st12" d="M-11.2,53h59c1.1,0,2,0.9,2,2l0,31.3c0,1.1-0.9,2-2,2h-59c-1.1,0-2-0.9-2-2l0-31.3
				C-13.2,53.9-12.3,53-11.2,53z"/>
		</g>
		
			<g id="Group-6_3_" transform="translate(388.831633, 31.595684) rotate(72.000000) translate(-388.831633, -31.595684) translate(361.133147, 14.597078)">
			<path id="Path_4_" class="st13" d="M-34.4,36.2c-1.2,0-2.1,1-2.1,2.1l0,12.7c0,1.2,1,2.1,2.1,2.1c1.1,0,2.1-1,2.1-2.1V38.3
				C-32.2,37.2-33.2,36.2-34.4,36.2z"/>
			<path id="Path_5_" class="st13" d="M-51.5,66h-12.8c-1.2,0-2.1,1-2.1,2.1c0,1.2,1,2.1,2.1,2.1l12.8,0c1.2,0,2.1-1,2.1-2.1
				C-49.3,66.9-50.3,66-51.5,66z"/>
			<path id="Path_6_" class="st13" d="M-44.9,54.6l-9.1-9c-0.8-0.8-2.2-0.8-3,0s-0.8,2.2,0,3l9.1,9c0.4,0.4,1,0.6,1.5,0.6
				s1.1-0.2,1.5-0.6C-44.1,56.8-44.1,55.4-44.9,54.6z"/>
			<path id="Path_7_" class="st13" d="M-11.7,45.6c-0.8-0.8-2.2-0.8-3,0l-9.1,9c-0.8,0.8-0.8,2.2,0,3c0.4,0.4,1,0.6,1.5,0.6
				s1.1-0.2,1.5-0.6l9.1-9C-10.8,47.8-10.8,46.4-11.7,45.6z"/>
		</g>
	</g>
</g>
</svg>
