<?xml version="1.0" encoding="utf-8"?>
<!-- Generator: Adobe Illustrator 25.2.3, SVG Export Plug-In . SVG Version: 6.00 Build 0)  -->
<svg version="1.1" id="Layer_1" xmlns="http://www.w3.org/2000/svg" xmlns:xlink="http://www.w3.org/1999/xlink" x="0px" y="0px"
	 viewBox="0 0 650 650" style="enable-background:new 0 0 650 650;" xml:space="preserve">
<style type="text/css">
	.st0{fill-rule:evenodd;clip-rule:evenodd;fill:#B8BFC4;}
	.st1{fill-rule:evenodd;clip-rule:evenodd;fill:#E8EBEE;}
	.st2{opacity:0.3;fill-rule:evenodd;clip-rule:evenodd;fill:#FFFFFF;enable-background:new    ;}
	.st3{opacity:0.5;}
	.st4{fill:none;stroke:#CCD3D6;stroke-width:1.5;}
	.st5{opacity:0.5;fill-rule:evenodd;clip-rule:evenodd;fill:#B8BFC4;enable-background:new    ;}
	.st6{fill:none;stroke:#C3CBCF;stroke-width:7.5;stroke-linecap:round;}
	.st7{fill-rule:evenodd;clip-rule:evenodd;fill:#FF7600;}
	.st8{fill:#E6F4FC;}
	.st9{fill:#333333;}
	.st10{fill:#EC7005;}
	.st11{fill:#56A3F1;}
	.st12{fill:#B8BFC3;}
	.st13{fill-rule:evenodd;clip-rule:evenodd;fill:#5BCC70;}
	.st14{fill:#FFFFFF;}
	.st15{fill-rule:evenodd;clip-rule:evenodd;fill:#FF7602;}
	.st16{fill:none;stroke:#FF7602;stroke-width:6.9;}
</style>
<g id="Adding-a-goal">
	<g id="Group-62" transform="translate(139.000000, 192.000000)">
		<path id="Rectangle-Copy" class="st0" d="M-27.1,31l11.2-1l0,0l289,2.4c9.9,0.1,17.9,8.1,17.9,18V260c0,9.9-8.1,18-18,18H-25.5
			c-9.9,0-18-8.1-18-18V48.9C-43.5,39.6-36.4,31.9-27.1,31z"/>
		<path id="Rectangle" class="st1" d="M-12,30h298.5c9.9,0,18,8.1,18,18v211.5c0,9.9-8.1,18-18,18H-12c-9.9,0-18-8.1-18-18V48
			C-30,38.1-21.9,30-12,30z"/>
		<path id="Rectangle-Copy-2" class="st2" d="M39,129h247.5c9.9,0,18,8.1,18,18v112.5c0,9.9-8.1,18-18,18H21l0,0V147
			C21,137.1,29.1,129,39,129z"/>
		<g id="Group-63" transform="translate(42.000000, 185.250000)" class="st3">
			<line id="Path-48" class="st4" x1="-20.9" y1="-83.2" x2="-20.9" y2="92.2"/>
			<line id="Path-48-Copy" class="st4" x1="25.6" y1="-83.2" x2="25.6" y2="92.2"/>
			<line id="Path-48-Copy-2" class="st4" x1="72.1" y1="-83.2" x2="72.1" y2="92.2"/>
			<line id="Path-48-Copy-3" class="st4" x1="118.6" y1="-83.2" x2="118.6" y2="92.2"/>
			<line id="Path-48-Copy-4" class="st4" x1="165.1" y1="-83.2" x2="165.1" y2="92.2"/>
			<line id="Path-48-Copy-5" class="st4" x1="211.6" y1="-83.2" x2="211.6" y2="92.2"/>
			<line id="Path-58" class="st4" x1="-72" y1="-83.2" x2="262.5" y2="-83.2"/>
		</g>
		<path id="Rectangle-Copy-47" class="st5" d="M-12,30h298.5c9.9,0,18,8.1,18,18v54l0,0H-30V48C-30,38.1-21.9,30-12,30z"/>
		<g id="Group-3-Copy" transform="translate(61.428270, 226.139959)">
			<path id="Path-46" class="st6" d="M-72-4.7C-36-58.1-8.4-80,10.9-70.3C39.8-55.7,63.5-20,87-42.7s64-57.6,105.2-32.7"/>
			<path id="Path-47" class="st6" d="M3.3,27.3C21.2-1,39.3-7,57.8,9.1c27.7,24.2,41.5,16.2,65.5-4.4s37.6-32.8,68.9-32.8"/>
		</g>
		<g id="_x33_233474" transform="translate(243.000000, 0.000000)">
			<ellipse id="Oval" class="st7" cx="55.2" cy="64.8" rx="127.2" ry="127.2"/>
			<ellipse id="Oval_1_" class="st8" cx="55.2" cy="64.8" rx="92.3" ry="92.3"/>
			<ellipse id="Oval_2_" class="st7" cx="55.2" cy="64.8" rx="57.3" ry="57.3"/>
			<ellipse id="Oval_3_" class="st9" cx="55.2" cy="64.8" rx="22.3" ry="22.3"/>
			<path id="Path" class="st10" d="M55.2-62.5c-3.7,0-7.4,0.2-11,0.5c65.1,5.6,116.2,60.2,116.2,126.8S109.3,186,44.2,191.6
				c3.6,0.3,7.3,0.5,11,0.5c70.3,0,127.2-57,127.2-127.2S125.5-62.5,55.2-62.5z"/>
			<g id="Group" transform="translate(123.085201, 0.000000)">
				<path id="Path_1_" class="st11" d="M50.1-83.4L22.2-55.5c-1.2,1.2-1.8,2.9-1.7,4.6l1.6,25.8L55-58l-1.5-24.1
					C53.4-83.8,51.3-84.6,50.1-83.4z"/>
				<path id="Path_2_" class="st11" d="M80.3-53.2L52.4-25.3c-1.2,1.2-2.9,1.8-4.6,1.7L22-25.2l32.9-32.9L79-56.6
					C80.8-56.5,81.5-54.4,80.3-53.2L80.3-53.2z"/>
				<path id="Path_3_" class="st12" d="M-67.8,68.9c-1.1,0-2.2-0.4-3-1.2c-1.6-1.6-1.6-4.3,0-5.9L68.3-77.3c1.6-1.6,4.3-1.6,5.9,0
					s1.6,4.3,0,5.9L-64.9,67.7C-65.7,68.5-66.8,68.9-67.8,68.9z"/>
			</g>
		</g>
		<g id="Group-2" transform="translate(0.000000, 199.500000)">
			<circle id="Oval_4_" class="st13" cx="-30.8" cy="-42.8" r="41.2"/>
			<polygon id="_x2B_" class="st14" points="-26.6,-24.3 -26.6,-36.9 -14,-36.9 -14,-44.6 -26.6,-44.6 -26.6,-57.3 -34.3,-57.3 
				-34.3,-44.6 -47,-44.6 -47,-36.9 -34.3,-36.9 -34.3,-24.3 			"/>
		</g>
		<circle id="Oval_5_" class="st15" cx="129.8" cy="185.2" r="18.8"/>
		<circle id="Oval-Copy" class="st16" cx="129" cy="184.5" r="34"/>
	</g>
</g>
</svg>
