<?xml version="1.0" encoding="utf-8"?>
<!-- Generator: Adobe Illustrator 25.2.3, SVG Export Plug-In . SVG Version: 6.00 Build 0)  -->
<svg version="1.1" id="Layer_1" xmlns="http://www.w3.org/2000/svg" xmlns:xlink="http://www.w3.org/1999/xlink" x="0px" y="0px"
	 viewBox="0 0 764 764" style="enable-background:new 0 0 764 764;" xml:space="preserve">
<style type="text/css">
	.st0{fill-rule:evenodd;clip-rule:evenodd;fill:#F8F7F8;}
	.st1{fill-rule:evenodd;clip-rule:evenodd;fill:#B8BFC4;}
	.st2{fill-rule:evenodd;clip-rule:evenodd;fill:#E8EBEE;}
	.st3{fill:none;stroke:#B8BFC4;stroke-width:3.4749;stroke-linecap:round;}
	.st4{fill-rule:evenodd;clip-rule:evenodd;fill:#FFFFFF;}
	.st5{opacity:0.8;}
	.st6{opacity:0.6;fill-rule:evenodd;clip-rule:evenodd;fill:#E8EBEE;enable-background:new    ;}
	.st7{fill-rule:evenodd;clip-rule:evenodd;fill:#C3C6C8;}
	.st8{opacity:0.4;fill-rule:evenodd;clip-rule:evenodd;fill:#C3C6C8;enable-background:new    ;}
	.st9{fill-rule:evenodd;clip-rule:evenodd;fill:#C1CAD0;}
	.st10{fill-rule:evenodd;clip-rule:evenodd;fill:#FF7600;}
	.st11{fill:#FFFFFF;}
	.st12{fill-rule:evenodd;clip-rule:evenodd;fill:#56A3F1;}
	.st13{fill:none;stroke:#19243D;stroke-width:1.224;}
	.st14{fill-rule:evenodd;clip-rule:evenodd;fill:#5CCD71;}
	.st15{fill:none;stroke:#F9F9F9;stroke-width:0.612;}
	.st16{fill-rule:evenodd;clip-rule:evenodd;fill:#F9F9F9;}
	.st17{fill-rule:evenodd;clip-rule:evenodd;fill:#41A152;}
	.st18{fill-rule:evenodd;clip-rule:evenodd;fill:#D6DAED;}
	.st19{fill-rule:evenodd;clip-rule:evenodd;fill:#2B3545;}
	.st20{fill:none;stroke:#FBFBFB;stroke-width:0.612;}
	.st21{fill-rule:evenodd;clip-rule:evenodd;fill:#FFBCAD;}
	.st22{fill-rule:evenodd;clip-rule:evenodd;fill:#19243D;}
	.st23{fill-rule:evenodd;clip-rule:evenodd;fill:#333333;}
	.st24{fill-rule:evenodd;clip-rule:evenodd;fill:#1E1D1D;}
	.st25{opacity:0.2;fill:none;stroke:#FFFFFF;stroke-width:0.9925;enable-background:new    ;}
	.st26{fill-rule:evenodd;clip-rule:evenodd;fill:#F1A392;}
	.st27{fill:none;stroke:#C07966;stroke-width:0.7994;}
	.st28{fill:none;stroke:#EB957D;stroke-width:0.7994;}
	.st29{fill-rule:evenodd;clip-rule:evenodd;fill:#EC7006;}
	.st30{fill:none;stroke:#2B3545;stroke-width:0.7994;}
	.st31{fill-rule:evenodd;clip-rule:evenodd;fill:#081C15;}
	.st32{fill:none;stroke:#C65F07;stroke-width:0.7374;stroke-linecap:round;}
</style>
<g id="Person-registering-on-mobile">
	<g id="Group-5" transform="translate(132.000000, 112.000000)">
		<g id="Screen-3-Copy">
			<ellipse id="Oval" class="st0" cx="250.5" cy="496.5" rx="364.5" ry="43.5"/>
			<g id="Group-2" transform="translate(281.857394, 0.000000)">
				<g id="Phone" transform="translate(124.071303, 243.243006) scale(-1, 1) translate(-124.071303, -243.243006) ">
					<g id="Mask">
						<path class="st1" d="M143,10h190.2c16,0,29,13,29,29v428.6c0,16-13,29-29,29H143c-16,0-29-13-29-29V39C114,23,127,10,143,10z"
							/>
					</g>
					<path id="Rectangle" class="st2" d="M122.1,96.9L122.1,96.9c1.9,0,3.5,1.6,3.5,3.5V193c0,1.9-1.6,3.5-3.5,3.5l0,0
						c-1.9,0-3.5-1.6-3.5-3.5v-92.7C118.6,98.4,120.2,96.9,122.1,96.9z"/>
					<path id="Rectangle-Copy-11" class="st2" d="M122.1,212.7L122.1,212.7c1.9,0,3.5,1.6,3.5,3.5v34.7c0,1.9-1.6,3.5-3.5,3.5l0,0
						c-1.9,0-3.5-1.6-3.5-3.5v-34.7C118.6,214.3,120.2,212.7,122.1,212.7z"/>
					<path id="Rectangle-Copy-9" class="st2" d="M159.2,10H346c16,0,29,13,29,29v428.6c0,16-13,29-29,29H159.2c-16,0-29-13-29-29V39
						C130.2,23,143.2,10,159.2,10z"/>
					<line id="Path-17" class="st3" x1="214.1" y1="22.2" x2="259.4" y2="22.2"/>
					<circle class="st1" cx="269" cy="22.7" r="3.5"/>
					<path id="Rectangle-Copy-10" class="st4" d="M163.5,33H327c14.1,0,25.5,11.4,25.5,25.5V458c0,14.1-11.4,25.5-25.5,25.5H163.5
						c-14.1,0.1-25.5-11.4-25.5-25.5V58.5C138,44.4,149.4,33,163.5,33z"/>
					<g id="Group-7" class="st5">
						<g transform="translate(33.000000, 210.000000)">
							<path id="Rectangle-Copy-2" class="st6" d="M119.5,10h186c3,0,5.5,2.5,5.5,5.5V242c0,11-9,20-20,20H134c-11,0-20-9-20-20
								V15.5C114,12.5,116.5,10,119.5,10z"/>
							
								<g id="Group-6" transform="translate(99.500000, 35.000000) scale(-1, 1) translate(-99.500000, -35.000000) translate(25.000000, 19.000000)">
								<path id="Rectangle-Copy-15" class="st7" d="M-67.1,18h99.9c1.2,0,2.2,1,2.2,2.2s-1,2.2-2.2,2.2h-99.9c-1.2,0-2.2-1-2.2-2.2
									S-68.3,18-67.1,18z"/>
								<path id="Rectangle-Copy-14" class="st8" d="M-67.1,31h83.3c1.2,0,2.2,1,2.2,2.2s-1,2.2-2.2,2.2h-83.3c-1.2,0-2.2-1-2.2-2.2
									C-69.2,31.9-68.3,31-67.1,31z"/>
								<g id="Group-3">
									<ellipse class="st4" cx="-98" cy="26" rx="16" ry="16"/>
									<path id="Path" class="st9" d="M-98,27.6c5.6,0,10.5,3.2,12.8,7.9c-2.9,4-7.5,6.5-12.8,6.5s-9.9-2.5-12.8-6.5
										C-108.5,30.8-103.6,27.6-98,27.6z"/>
									<ellipse class="st9" cx="-98" cy="21.2" rx="4.8" ry="4.8"/>
								</g>
							</g>
							
								<g id="Group-6-Copy" transform="translate(99.500000, 95.000000) scale(-1, 1) translate(-99.500000, -95.000000) translate(25.000000, 79.000000)">
								<path class="st7" d="M-67.1,18h99.9c1.2,0,2.2,1,2.2,2.2s-1,2.2-2.2,2.2h-99.9c-1.2,0-2.2-1-2.2-2.2S-68.3,18-67.1,18z"/>
								<path class="st8" d="M-67.1,31h83.3c1.2,0,2.2,1,2.2,2.2s-1,2.2-2.2,2.2h-83.3c-1.2,0-2.2-1-2.2-2.2
									C-69.2,31.9-68.3,31-67.1,31z"/>
								<g>
									<ellipse class="st4" cx="-98" cy="26" rx="16" ry="16"/>
									<path class="st9" d="M-98,27.6c5.6,0,10.5,3.2,12.8,7.9c-2.9,4-7.5,6.5-12.8,6.5s-9.9-2.5-12.8-6.5
										C-108.5,30.8-103.6,27.6-98,27.6z"/>
									<ellipse class="st9" cx="-98" cy="21.2" rx="4.8" ry="4.8"/>
								</g>
							</g>
							
								<g id="Group-6-Copy-2" transform="translate(99.500000, 155.000000) scale(-1, 1) translate(-99.500000, -155.000000) translate(25.000000, 139.000000)">
								<path class="st7" d="M-67.1,18h99.9c1.2,0,2.2,1,2.2,2.2s-1,2.2-2.2,2.2h-99.9c-1.2,0-2.2-1-2.2-2.2S-68.3,18-67.1,18z"/>
								<path class="st8" d="M-67.1,31h83.3c1.2,0,2.2,1,2.2,2.2s-1,2.2-2.2,2.2h-83.3c-1.2,0-2.2-1-2.2-2.2
									C-69.2,31.9-68.3,31-67.1,31z"/>
								<g>
									<ellipse class="st4" cx="-98" cy="26" rx="16" ry="16"/>
									<path class="st9" d="M-98,27.6c5.6,0,10.5,3.2,12.8,7.9c-2.9,4-7.5,6.5-12.8,6.5s-9.9-2.5-12.8-6.5
										C-108.5,30.8-103.6,27.6-98,27.6z"/>
									<ellipse class="st9" cx="-98" cy="21.2" rx="4.8" ry="4.8"/>
								</g>
							</g>
							
								<g id="Group-6-Copy-3" transform="translate(99.500000, 215.000000) scale(-1, 1) translate(-99.500000, -215.000000) translate(25.000000, 199.000000)">
								<path class="st7" d="M-67.1,18h99.9c1.2,0,2.2,1,2.2,2.2s-1,2.2-2.2,2.2h-99.9c-1.2,0-2.2-1-2.2-2.2S-68.3,18-67.1,18z"/>
								<path class="st8" d="M-67.1,31h83.3c1.2,0,2.2,1,2.2,2.2s-1,2.2-2.2,2.2h-83.3c-1.2,0-2.2-1-2.2-2.2
									C-69.2,31.9-68.3,31-67.1,31z"/>
								<g>
									<ellipse class="st4" cx="-98" cy="26" rx="16" ry="16"/>
									<path class="st9" d="M-98,27.6c5.6,0,10.5,3.2,12.8,7.9c-2.9,4-7.5,6.5-12.8,6.5s-9.9-2.5-12.8-6.5
										C-108.5,30.8-103.6,27.6-98,27.6z"/>
									<ellipse class="st9" cx="-98" cy="21.2" rx="4.8" ry="4.8"/>
								</g>
							</g>
						</g>
					</g>
					<g transform="translate(138.064516, 43.000000) scale(-1, 1) translate(-138.064516, -43.000000) ">
					</g>
				</g>
			</g>
			<path class="st10" d="M202,78.8h160.4c3.5,0,6.3,2.8,6.3,6.3v41.4c0,3.5-2.8,6.3-6.3,6.3H202c-3.5,0-6.3-2.8-6.3-6.3V85.1
				C195.7,81.6,198.5,78.8,202,78.8z"/>
			<path id="Mentor" class="st11" d="M233.6,116v-13.3l6.3,13.3h1.3l6.3-13.4V116h2.7V96.5h-2.6l-7,14.7l-7-14.7H231V116H233.6z
				 M262.4,116.4c1.3,0,2.7-0.4,3.8-1.1c1.1-0.7,2-1.8,2.6-3l-2.8-0.9c-0.3,0.6-0.7,1.2-1.4,1.6c-0.7,0.5-1.5,0.7-2.5,0.7
				c-1.3,0-2.5-0.5-3.2-1.5c-0.6-0.8-0.9-1.8-0.9-2.8h10.9c0.1-2.4-0.2-4.6-1.6-6.2c-1.3-1.6-3.1-2.3-5.2-2.3s-4.1,0.8-5.4,2.4
				c-1.2,1.5-1.7,3.4-1.7,5.4c0,1.8,0.5,3.7,1.7,5.2C258.1,115.6,260.3,116.4,262.4,116.4z M266.2,107.2h-8c0.1-0.8,0.4-1.6,0.9-2.3
				c0.8-1.1,2-1.5,3.2-1.4c1.2,0,2.4,0.4,3.1,1.4C265.9,105.5,266.1,106.3,266.2,107.2z M276.5,116v-6.4c0-1.1,0-2.2,0.2-3
				c0.2-0.9,0.6-1.7,1.2-2.2s1.3-0.7,2.1-0.8c1,0,1.9,0.2,2.5,0.8c1.1,1,1.4,2.7,1.4,4.6v7h2.9v-7.1c0-2.4-0.1-5-1.9-6.6
				c-1.3-1.2-3-1.5-4.5-1.4c-1.3,0.1-2.8,0.6-3.7,1.6l-0.5,0.5v-1.8h-2.5V116H276.5z M300.7,116v-2.4c-0.8,0.1-1.7,0.2-2.4,0.1
				c-0.6-0.1-1.3-0.4-1.7-1c-0.4-0.6-0.3-1.4-0.3-2.6v-6.4h4.4v-2.3h-4.4v-4.1h-2.8v4.1h-2.8v2.3h2.8v6.6c0,1.6-0.1,2.9,0.6,4
				c0.7,1.2,1.6,1.6,2.9,1.8C298,116.3,299.6,116.3,300.7,116z M311.4,116.4c2.2,0,4.1-0.8,5.4-2.4c1.2-1.5,1.7-3.3,1.7-5.3
				c0-1.9-0.5-3.8-1.7-5.3c-1.3-1.6-3.3-2.4-5.4-2.4s-4.1,0.8-5.4,2.4c-1.2,1.5-1.7,3.3-1.7,5.3s0.5,3.8,1.7,5.3
				C307.3,115.6,309.3,116.4,311.4,116.4z M311.4,113.7c-1.3,0-2.5-0.5-3.2-1.5s-1-2.3-1-3.6c0-1.3,0.2-2.6,1-3.6
				c0.7-1,1.9-1.4,3.2-1.4s2.5,0.5,3.2,1.4c0.7,1,1,2.3,1,3.6c0,1.3-0.2,2.6-1,3.6C313.9,113.2,312.7,113.7,311.4,113.7z M326.4,116
				v-7.4c0-1.6,0.2-3,1.2-3.9c0.6-0.6,1.5-1,2.6-1.1c0.9-0.1,1.8,0.1,2.4,0.3v-2.7c-0.7-0.3-1.5-0.4-2.2-0.3c-1.1,0-2.1,0.3-3,1
				c-0.6,0.4-1.1,0.9-1.4,1.5v-2.1h-2.5V116H326.4z"/>
			<path id="Rectangle-Copy" class="st12" d="M202,150.8h160.4c3.5,0,6.3,2.8,6.3,6.3v41.4c0,3.5-2.8,6.3-6.3,6.3H202
				c-3.5,0-6.3-2.8-6.3-6.3v-41.4C195.7,153.6,198.5,150.8,202,150.8z"/>
			<path id="Mentee" class="st11" d="M231.6,188v-13.3l6.3,13.3h1.3l6.3-13.4V188h2.7v-19.5h-2.6l-7,14.7l-7-14.7H229V188H231.6z
				 M260.4,188.4c1.3,0,2.7-0.4,3.8-1.1c1.1-0.7,2-1.8,2.6-3l-2.8-0.9c-0.3,0.6-0.7,1.2-1.4,1.6c-0.7,0.5-1.5,0.7-2.5,0.7
				c-1.3,0-2.5-0.5-3.2-1.5c-0.6-0.8-0.9-1.8-0.9-2.8h10.9c0.1-2.4-0.2-4.6-1.6-6.2c-1.3-1.6-3.1-2.3-5.2-2.3s-4.1,0.8-5.4,2.4
				c-1.2,1.5-1.7,3.4-1.7,5.4c0,1.8,0.5,3.7,1.7,5.2C256.1,187.6,258.3,188.4,260.4,188.4z M264.2,179.2h-8c0.1-0.8,0.4-1.6,0.9-2.3
				c0.8-1.1,2-1.5,3.2-1.4c1.2,0,2.4,0.4,3.1,1.4C263.9,177.5,264.1,178.3,264.2,179.2z M274.5,188v-6.4c0-1.1,0-2.2,0.2-3
				c0.2-0.9,0.6-1.7,1.2-2.2s1.3-0.7,2.1-0.8c1,0,1.9,0.2,2.5,0.8c1.1,1,1.4,2.7,1.4,4.6v7h2.9v-7.1c0-2.4-0.1-5-1.9-6.6
				c-1.3-1.2-3-1.5-4.5-1.4c-1.3,0.1-2.8,0.6-3.7,1.6l-0.5,0.5v-1.8h-2.5V188H274.5z M298.7,188v-2.4c-0.8,0.1-1.7,0.2-2.4,0.1
				c-0.6-0.1-1.3-0.4-1.7-1c-0.4-0.6-0.3-1.4-0.3-2.6v-6.4h4.4v-2.3h-4.4v-4.1h-2.8v4.1h-2.8v2.3h2.8v6.6c0,1.6-0.1,2.9,0.6,4
				c0.7,1.2,1.6,1.6,2.9,1.8C296,188.3,297.6,188.3,298.7,188z M309.6,188.4c1.3,0,2.7-0.4,3.8-1.1c1.1-0.7,2-1.8,2.6-3l-2.8-0.9
				c-0.3,0.6-0.7,1.2-1.4,1.6c-0.7,0.5-1.5,0.7-2.5,0.7c-1.3,0-2.5-0.5-3.2-1.5c-0.6-0.8-0.9-1.8-0.9-2.8h10.9
				c0.1-2.4-0.2-4.6-1.6-6.2c-1.3-1.6-3.1-2.3-5.2-2.3s-4.1,0.8-5.4,2.4c-1.2,1.5-1.7,3.4-1.7,5.4c0,1.8,0.5,3.7,1.7,5.2
				C305.3,187.6,307.4,188.4,309.6,188.4z M313.3,179.2h-8c0.1-0.8,0.4-1.6,0.9-2.3c0.8-1.1,2-1.5,3.2-1.4c1.2,0,2.4,0.4,3.1,1.4
				C313,177.5,313.2,178.3,313.3,179.2z M327.7,188.4c1.3,0,2.7-0.4,3.8-1.1c1.1-0.7,2-1.8,2.6-3l-2.8-0.9c-0.3,0.6-0.7,1.2-1.4,1.6
				c-0.7,0.5-1.5,0.7-2.5,0.7c-1.3,0-2.5-0.5-3.2-1.5c-0.6-0.8-0.9-1.8-0.9-2.8h10.9c0.1-2.4-0.2-4.6-1.6-6.2
				c-1.3-1.6-3.1-2.3-5.2-2.3s-4.1,0.8-5.4,2.4c-1.2,1.5-1.7,3.4-1.7,5.4c0,1.8,0.5,3.7,1.7,5.2
				C323.4,187.6,325.5,188.4,327.7,188.4z M331.4,179.2h-8c0.1-0.8,0.4-1.6,0.9-2.3c0.8-1.1,2-1.5,3.2-1.4c1.2,0,2.4,0.4,3.1,1.4
				C331.2,177.5,331.4,178.3,331.4,179.2z"/>
			
				<g id="Group-49" transform="translate(547.500000, 405.000000) scale(-1, 1) translate(-547.500000, -405.000000) translate(475.000000, 318.000000)">
				<g id="Group-48" transform="translate(34.365898, 16.310108)">
					<path id="Path-122" class="st13" d="M116.2,88.6c5.1-5.4,12.5-6.9,22.2-4.5c9.7,2.4,14.5,18,14.5,46.8"/>
					<path id="Path-125" class="st13" d="M170.7,103.1c-12.4-7.7-18.3,1.1-17.8,26.2"/>
					<path id="Path-127" class="st13" d="M198.3,64.1c-24.3-2.5-39.3,19.3-45,65.2"/>
					<path id="Path-138" class="st13" d="M114,56.5c24,3.8,37.7,23.3,41.1,58.4"/>
					<path id="Path-141" class="st13" d="M134,28.2c11.8-5.3,18.1,1.7,18.9,21.1c0.8,19.3,1.5,45,2.2,77.1"/>
					<line id="Path-146" class="st13" x1="170.7" y1="10" x2="152.9" y2="129.3"/>
				</g>
				<g id="Group-42" transform="translate(63.472713, 0.000000)">
					<path id="Combined-Shape" class="st14" d="M131.9,10c3.7,0,7.3,1.7,10.7,5.2c2.3-4.3,7.6-4.4,12.5-4.4c4.9,0,7.1,0.8,6.5,2.8
						c-0.6,2-4.6,0-3.6,1.6s6.2,0.9,10.5,1.5c2.9,0.4,5,2.8,6.2,7.4c-2.5-2.7-8.8-4.3-12.4-4.6c-3.6-0.3-7.7,0.3-6.3,1.1
						c1.4,0.8,19.9,3.5,21.2,7.5c0.9,2.6,0.9,5.6,0,8.8c-2.7-3.8-9.1-8.8-16-10.2c-6.9-1.4-14,0-6.6,1.3c7.4,1.4,15.8,7.8,18.9,11.1
						c3.1,3.3,1.4,11.5,0,17.3c-1.1,4.8-1.5,1.7-2.2-1.8l-0.1-0.3c-0.1-0.6-0.3-1.3-0.4-1.9c-1.1-4-7.1-8.2-9.1-10.6
						c-2.1-2.4-6.5-8.9-8.6-7c-2.1,1.9,0.2,4.7,4,8.1s12.3,12.6,12.8,16.9c0.5,4.3-3.4,6.8-6.1,8.8c-1.8,1.3-1.9-0.5-1.7-2.7v-0.3
						c0-0.2,0-0.5,0.1-0.7l0.1-0.5c0.1-0.7,0.1-1.4,0.1-2c0-3-3.2-8.3-7.1-10.8c-3-1.9-0.1,4.1,2.2,9.6l0.2,0.5l0,0l0.2,0.5
						c0.5,1.3,1,2.6,1.3,3.7c1.7,5.9-3,14.5-13.5,12.4c-10.2-2-7.7-12.7-6.4-17.8l0.1-0.3l0,0V60c0.3-1.3,1.3-3.1,2.3-5l0.2-0.4l0,0
						l0.2-0.4c0.2-0.3,0.3-0.5,0.5-0.8l0.2-0.4c2.5-4.2,4.9-7.9,1.8-6.2c-5,2.7-7.6,7.3-9.7,11.5c-2.1,4.2-1.1,7-2.4,9.6
						c-1.3,2.6-6.3-3.6-6.3-7.9s5.8-12.7,9.8-16.9s8.5-7.2,6.6-9c-1.9-1.8-6.2,0-13.1,7.9c-4.6,5.2-6.7,10.6-6.5,16.1l0,0l-4.9-9.4
						c-2.3-12.3,18-26.2,11.4-22.8c-6.6,3.4-10.5,10.2-11.9,13.3s-2.2,0-3.3-5.3c-0.7-3.5-0.1-6.2,1.9-8c-0.9-4.8,6.9-7.8,11.1-10.7
						c3.5-2.4-1.1-0.7-5.3,1.1l-0.4,0.2c-0.6,0.3-1.2,0.6-1.8,0.9C115.4,19.6,126.3,10,131.9,10z M138.7,16.5
						c-1.6,0-2.9,0.9-2.9,2.1s1.3,2.1,2.9,2.1c1.6,0,2.9-0.9,2.9-2.1S140.3,16.5,138.7,16.5z"/>
					<path id="Path-106" class="st15" d="M142.6,15.2c6.7,15.8,8.4,33.4,5,52.8"/>
				</g>
				<path id="Path-108" class="st16" d="M255.6,98.6c-2.8-4.1-5.2-6.4-7.4-6.9c-3.2-0.8,0.1-1.9,3-0.4
					C253.1,92.3,254.6,94.7,255.6,98.6z"/>
				<g id="Group-41" transform="translate(19.445730, 18.171220)">
					<path class="st17" d="M139.7,10c4.5,0,12.3,6.1,12.3,4.9c0-0.5-1-1.1-2-1.6l-0.2-0.1c-1.7-1-3.3-1.8,0.3-1.5
						c3.9,0.2,7.9,1.3,12.1,3.2c2.1,1.1,4.9,4.8,8.2,11.2c5,9.6-3.2,20.5-3.2,14.7s-5-11.5-7.4-11.5c-2.4,0,0,3,2.4,6.3
						c2.4,3.3,0,9.9-2.4,11c-2.4,1.1-5.4,1.4-4.1-2.3s1.3-9.2,0-12c-1.3-2.8-5.2-5.3-3.7-2.4c1.4,3,0,12.4-0.8,16
						c-0.8,3.6-4.9,2-8.2,3.5s-2-1.5-1.3-5.9c0.7-4.4,4.6-8.5,4.6-10.9s-3.6-1.5-4.6,2.4s-2.6,10.4-5.4,13c-2.9,2.5-10.1,0.9-8-0.5
						c2.1-1.4,6.4-8.9,6-11.1c-0.3-1.4-1.8,1-3.3,3.7l-0.2,0.4l0,0l-0.2,0.4c-0.1,0.1-0.1,0.3-0.2,0.4l-0.2,0.4
						c-0.7,1.3-1.3,2.4-1.8,3.1c-1.5,2.4-2.7,1.2-5.5,0.7c-2.8-0.6,0-3.1,0-4.1s-1.7,0.1-3.7,1s-1.2-2.1-3-4.5s0.5-4.1,5-5.2
						c1.1-0.3,2.7-0.6,4.5-0.8l0.4-0.1l0.7-0.1c0.4-0.1,0.7-0.1,1.1-0.2l0.4-0.1c4.7-0.8,8.6-1.6,3.5-2.1
						c-7.9-0.8-13.8,2.5-16.3,3.4s-1.7-3.8,1.1-6.6c2.8-2.8,14.9-2,21.5-1.1c6.6,0.9,7.3-0.9,2.8-2.4c-4.5-1.5-20.5,0-23,0
						s3.3-6,8.2-6c1.6,0,4.1,0.4,6.7,0.9l0.6,0.1c0.1,0,0.2,0,0.3,0.1l1.1,0.2c5,1,9.7,2,8.5,1c-2-1.9-11.8-4-15.8-4
						s6.6-3.7,8.8-3.7c0.9,0,3,1.3,5,2.6l0.7,0.4c2.6,1.7,4.9,3.3,4.9,2.3c0-0.7-1.7-1.8-3.6-2.9l-0.4-0.2l-0.2-0.1l0,0l-0.3-0.2
						l0,0l-0.3-0.2l0,0l-0.3-0.2C139.3,11.2,137.3,10,139.7,10z M137.8,34.6c-0.9,0-1.7,0.6-1.7,1.3s0.8,1.3,1.7,1.3
						c0.9,0,1.7-0.6,1.7-1.3C139.5,35.2,138.7,34.6,137.8,34.6z M152.5,19.4c-1.2,0-2.1,0.6-2.1,1.3s0.9,1.3,2.1,1.3
						s2.1-0.6,2.1-1.3S153.6,19.4,152.5,19.4z"/>
					<path id="Path-111" class="st15" d="M130.4,34.2c10-5.6,22.3-10,36.9-13.4"/>
				</g>
				<path id="Path-112" class="st14" d="M160.9,70.7c-0.7,1.5-2.3,0.1-3,3.9c-0.7,3.8-3.4,5.7-4.7,4.4s0.8-4.9-0.6-4.4
					c-1.4,0.5-6.6,5.7-9.3,5.7s3-4.8,1.7-4.8c-1.3,0-5,5.8-11.6,5.8c-6.6,0,3.3-3.9,4-5.8c0.7-1.9-4.5,0.6-6.5,3.5s-4.1,4.6-8.3,3.7
					c-4.2-0.8,3.9-3.7,3.9-4.8s-4.9,2.4-8.1,2.4c-3.2,0-3.4-3.5,0-3.5s-1.4-0.4-2.9-1.3s-3.6-4.1,4-3.7c7.6,0.4,13,2,11.5,0.8
					c-1.6-1.2-1.5-3.3,2.5-2.3s8,3.5,6.8,1c-1.1-2.4-5.9-1.9-4-3.3c1.9-1.5,6.9-0.6,8.8,2c1.9,2.6,4,2.1,3,0.3
					c-1-1.8-6.4-3.8-0.9-4.3s5.2,5,6.4,4.6c1.2-0.3-1.6-5.5,1.9-5.1C159,66.1,161.5,69.2,160.9,70.7z"/>
				<g id="Group-47" transform="translate(53.029925, 125.303825)">
					<path class="st18" d="M136.7,53c12,0,21.8,0,21.8,0S148.7,53,136.7,53s-21.8,0-21.8,0S124.7,53,136.7,53z"/>
					<path id="Path-121" class="st19" d="M116.2,10H157c1,0,1.8,0.8,1.8,1.8c0,0.1,0,0.3,0,0.4l-8.8,39c-0.3,1.4-1.6,2.4-3,2.4
						h-22.1c-1.5,0-2.7-1-3-2.5l-7.5-38.9c-0.2-1,0.5-2,1.5-2.2C116,10,116.1,10,116.2,10z"/>
					<polygon class="st4" points="157.6,17.6 155.1,28.5 117.6,28.5 115.5,17.6 					"/>
					<line id="Path-152" class="st15" x1="121.3" y1="47.6" x2="150.4" y2="47.6"/>
					<line id="Path-153" class="st15" x1="120.4" y1="43.1" x2="151.5" y2="43.1"/>
				</g>
				<g id="Group-46" transform="translate(73.640143, 103.252585)">
					<path class="st14" d="M140.5,10c7.4-0.4,10.6,4.8,13,8.2c1.4,1.9-0.8,2.7-3.4,3.5l-0.4,0.1c-1.8,0.5-3.6,1-4.7,1.8
						c-2.7,2.1,6.5,0.2,17.4,1.5c10.9,1.3,10.2,12.2,7.7,12.7s-6.9-4.6-12.7-5.7c-5.9-1.1-6.6-0.1-4.3,2c2.1,1.9,8.2,3.3,14.1,4.4
						l0.8,0.2c0.3,0.1,0.6,0.1,0.8,0.2c6.4,1.2,5.1,10,3.1,11.6s-3.1-5.9-10.1-7.6c-5.6-1.4-4,0.6-1.4,3.2l0.9,0.9l0.1,0.1l0.5,0.5
						l0,0l0.2,0.2l0,0l0.2,0.2c3.4,3.5,8.8,7.6,6.4,12s-5.2,2.8-11.5,2.8c-3.6,0-4.2-4.1-4.4-8.6v-0.6c0-0.2,0-0.4,0-0.6v-0.9
						c0-0.3,0-0.6,0-0.9v-0.6c0-2.2-0.1-4.3-0.5-5.7c-0.9-3-2.1,1.4-2.6,6.4l-0.1,0.5l0,0v0.5c-0.2,2.8-0.3,5.5,0.1,7.1
						c1.1,4.7-3.3,2.4-6.1,0.9c-2.8-1.5-0.8-14,0-19.8c0.8-5.8-0.8-9.7-3.9-3.2s-0.9,15.9-0.4,19.4s-0.5,3.4-6.2-0.4
						c-5.7-3.8-3.4-5.9-3.4-12.8c0-3.8,1.6-7.3,2.8-9.6l0.2-0.4c0.8-1.6,1.3-2.5,0.5-2.3c-1.9,0.5-6.1,8.4-6.5,12.2
						c-0.3,3.7,1.8,8.2-2.1,4.6s-3-5.6-3-9.5s5.9-12,4.3-10.6c-1.6,1.4-5.3,3.8-5.8,8.5s-0.4,5.9-3.9,0c-2.3-3.8-0.5-6,1.6-7.9
						l0.3-0.3l0,0l0.3-0.3l0,0l0.3-0.3l0,0l0.3-0.4c0.7-0.7,1.3-1.4,1.7-2.2c1-2.1-0.9-0.5-2.8,1.3l-0.3,0.3
						c-1.1,1.1-2.1,2.2-2.5,2.7c-1.1,1.5-2.5-5.2,1.6-10.5c2.7-3.5,7.5-4.4,14.3-2.6C132.4,12.3,135.6,10.3,140.5,10z M129.8,21.9
						c-0.9,0-1.7,0.8-1.7,1.7s0.8,1.7,1.7,1.7c0.9,0,1.7-0.8,1.7-1.7S130.7,21.9,129.8,21.9z"/>
					<path id="Path-119" class="st20" d="M131,16.2c10.6,6.8,19.9,17.7,27.9,32.6"/>
				</g>
				<g id="Group-45" transform="translate(50.087131, 72.301867)">
					<path id="Path-113" class="st14" d="M132.1,12.4c-0.7,0.9-2.3,1.4-4.7,1.4c-3.7,0-6-0.2-8.5,2.5s-7.8,10-2.9,7.4s10-5.3,8.5-4
						c-1.5,1.3-9.1,5.1-9.4,7.3c-0.3,2.2-0.9,9,0.9,7.8s1-4.4,2.9-6.7s9.4-7.6,7.3-5c-2.1,2.6-8.9,9.3-8.9,12.5s3.9,10.8,4.7,8.3
						s0-8.7,3.2-12.5s6.8-5.1,4.8-2.2c-2,2.9-7.4,9.5-5.4,15.4s5.7,4.4,4.8,1.2c-0.9-3.2,2.8-12.9,2.8-9.7c0,3.2-3.5,11.9,1.1,11.9
						c4.6,0,6.4,1.7,8.2-0.9s3.8-3.6,1.4-5.8c-2.4-2.2-6-7.4-3.7-6.6s5.5,3.8,5.9,5.2c0.4,1.4,3.9-1.6,3.1-3.8s-3.2-4.7-8.3-6.9
						c-5.1-2.2-5.1-5.2-2.9-4.8c2.2,0.3,6,4.5,8.1,6.1c2.1,1.6,6.6,4.7,5.6,0.9s0.7-5.1-1.3-7s-11.7-2.4-13.1-3.7
						c-1.4-1.3,6-5,11.4-1.3c5.4,3.7,4.9,0.1,3-2.1c-1.9-2.2-9.8-0.2-11.5-1s4.1-2.5,9.7-2.5c5.6,0-0.9-5-5-3.5
						c-4.1,1.5-9.7,4.5-6.3,1.2C140,9.3,138.1,9.6,132.1,12.4z"/>
					<path class="st16" d="M127.7,19.6c0.7,0,1.3,0,1.3,0S128.4,19.6,127.7,19.6s-1.3,0-1.3,0S127,19.6,127.7,19.6z"/>
					<path id="Path-114" class="st20" d="M129.3,13.5c1.2,1.9,2.4,5.9,3.7,12.2c2,9.4,2.2,10,4.2,13.8"/>
				</g>
				<g id="Group-43" transform="translate(93.477802, 61.232855)">
					<path class="st17" d="M124.3,10c11.2,0,12.1,5.9,13.2,7.1c0,0.1,0.1,0.1,0.1,0.1c1.1,0.9,1,0.9,4.9,0c3.9-0.9,10.1,0,12.2,1.8
						c2.1,1.8,1.4,6.3-0.9,4.5s-4.5-0.9-1.8,1.8s8.4,1.5,10.2,3.6c1.2,1.4,1.6,4.4,1.1,8.9c1.8,4.4,0.2,10.1-1.1,10.8
						c-1.3,0.7-0.6-6.2-4.4-10s-10-8.7-10-6.5s8.2,4.7,10.8,11.5c2.6,6.8-2.6,14.1-4.8,15.6c-1.6,1.1-1.2-2.4-1.1-6.2v-0.5
						c0-1.3,0-2.7-0.1-3.8c-0.5-4.7-6.4-12.8-7.2-10c-0.8,2.8,3.3,9.2,5.4,16.5s-4.1,11-5.4,11.5c-1.2,0.5,0.8-3.9,0.8-6.1
						s-0.7-8.7-2.3-9.2c-1.1-0.4-1,3.2-0.5,7l0.1,0.5c0.2,1.4,0.3,2.7,0.5,3.9c0.6,4.7-1.9,5.8-5.3,5.8c-3.4,0-1.9-1.8-7.8-5.2
						c-5.9-3.3-3.4-7.5,1-12.1c0.1-0.1,0.3-0.3,0.4-0.4l0.4-0.4l0,0l0.3-0.3c4-4.1,7-7.6-0.1-3.9c-7.7,4-9.5,8.6-10.7,10.6
						c-1.3,2-3.8-3.3-2.2-9.6c1.6-6.3,24.2-15.9,14.3-14.2c-10.1,1.6-13.5,9.4-15.5,11.9s-3.7-1.7-3.7-5.6l0,0v-0.5
						c0-3.5,0.2-4.9,4.2-9c4.2-4.4,23.8-5.7,14-6.3c-9.7-0.7-13.4,1.8-15.8,4.1c-0.1,0.1-0.2,0.2-0.3,0.3l-0.2,0.2
						c-2.1,2.1-3,3.3-3-2.9c0-5.8,3.5-6.7,7.6-6.8h0.4c0.2,0,0.4,0,0.7,0h0.4l0,0h0.2c3.1,0,6-0.4,8.5-1.3c-5.4-2.3-11-1.9-16.7,1.3
						C113.4,12.8,116.5,10,124.3,10z M149,26.1c-1.2,0-2.1,0.6-2.1,1.3s0.9,1.3,2.1,1.3s2.1-0.6,2.1-1.3
						C151.1,26.7,150.2,26.1,149,26.1z"/>
					<path id="Path-109" class="st15" d="M139.1,17.7c4.3,12.2,3.8,25.7-1.5,40.6"/>
				</g>
				<g id="Group-44" transform="translate(1.123754, 88.885576)">
					<path class="st17" d="M136,10.2c6.6-0.8,11.4,0.9,14.6,5c3-0.7,6.4,0.5,10.3,3.5c5.8,4.6,2,8.6,0.5,8.6s-4.5-5.2-6.7-6.1
						c-2.3-0.8,0.9,3.6,4,6.1c3.1,2.5,1.9,5.1,1.1,8.4s-2.8,3.5-2.8,1.4c0-2.1-3.4-7.3-5.4-9.8s-1.7,1.9,2,7.7c3.6,5.8,1.1,9-2,11.2
						c-3.1,2.2-4.4,2.4-5.1-0.9c-0.6-3.3-1.5-17.4-4.1-14c-2.6,3.4-0.1,11.7,1.2,17.2c1.2,5.5-4.2,8.4-7,8.4s-0.6-7.4-0.6-12.2
						c0-0.9,0.1-1.9,0.2-2.8v-0.4c0.5-4,1.3-7.8-0.7-5.7c-2.3,2.3-2.4,8-2.4,14.1v0.8c0,0.6,0,1.1,0,1.7c0,6.4-2.7,6.9-5.4,7h-0.3
						l0,0h-0.3c-0.1,0-0.2,0-0.3,0c-1.9,0-0.6-2.9,0.6-5.9l0.2-0.5c0.6-1.6,1.2-3.2,1.2-4.4c0-3.6-3.4,7.5-5.4,9.7
						c-1.3,1.5-2.6,1-3.9-1.3c-3,4.6-4.5,4.1-4.5-1.4c0-8.3,4.6-10.8,7.4-12.6l0,0l0.3-0.2c1-0.6,1.9-1.3,2.4-1.9l0.1-0.1
						c0.8-0.8,0.6-1.2-1.8-0.4c-4.2,1.5-7.3,6-6.7,0c0.6-6,6.5-7.4,10.9-8.5c4.4-1.1,6.9-2.2,0.7-2.2c-6.2,0-10,4.3-13.4,5.4
						c-2.1,0.7-0.3-2.2,2-5.3l0.3-0.4c0.1-0.1,0.2-0.2,0.3-0.4l0.3-0.4c1.3-1.5,2.6-3,3.6-3.9c3.2-2.9,8.8-2.3,12.2-2.3
						c3.4,0,4.4-0.5,0.7-1.3s-9.1,0.8-12.1,1.3s1.3-4.4,4.4-6s7-0.5,11.9,0s1.9-1.4-4.9-2.4C126.8,13,126.1,11.3,136,10.2z
						 M143.1,17.8c-0.7,0-1.3,0.6-1.3,1.3c0,0.7,0.6,1.3,1.3,1.3s1.3-0.6,1.3-1.3C144.4,18.4,143.8,17.8,143.1,17.8z"/>
					<path id="Path-117" class="st15" d="M150.6,15.2c-9.3,7.8-15.7,15.3-19.4,22.7"/>
				</g>
			</g>
		</g>
		
			<g id="Group-9" transform="translate(237.507167, 270.970163) scale(-1, 1) translate(-237.507167, -270.970163) translate(158.396175, 41.418325)">
			<g transform="translate(8.586689, 162.066415)">
				<g id="Group" transform="translate(65.061756, 251.037263)">
					<path id="Path-281" class="st21" d="M118.6,49c5.2-3.8,10.4-7.6,15.6-11.4c2.2-1.6,4.1-3.8,5.3-6.3s1.9-5.3,1.9-8.1V10l0,0h24
						v22.8L136.1,49C124.4,49,118.6,49,118.6,49z"/>
					<path id="Path-280" class="st22" d="M164,29.2l-2.6,0.2c-3,0.2-5.8,1.1-8.4,2.6l-12.6,7.4c-5.4,3.1-11.2,5.6-17.3,7.4l-6.4,1.9
						c-1.5,0.5-2.4,2-2.1,3.5c0.3,1.6,1.7,2.7,3.3,2.7h18.3c4.3,0,8.4-1.8,11.3-5l9.5-10.1l0,0l-1.1,13c-0.1,1.2,0.8,2.2,2,2.3
						c0.1,0,0.1,0,0.2,0c1.4,0,2.6-0.9,3-2.2l5.3-18.1c0.4-1.2,0.4-2.5,0.1-3.7C166.1,29.9,165.1,29.2,164,29.2z"/>
				</g>
				<g id="Group-Copy" transform="translate(0.000000, 251.037263)">
					<path class="st21" d="M118.5,49c5.1-3.8,10.3-7.6,15.4-11.4c2.2-1.7,4-3.8,5.3-6.3c1.2-2.5,2.1-5.2,2.6-8l2.4-13.3l0,0H168
						l-3.1,22.8l-29,16.2C124.3,49,118.5,49,118.5,49z"/>
					<path class="st22" d="M163.6,29.2l-2.6,0.2c-2.9,0.2-5.8,1.1-8.3,2.5l-12.5,7.4c-5.4,3.2-11.1,5.7-17.2,7.5l-6.4,1.9
						c-1.5,0.5-2.4,2-2.1,3.6s1.7,2.7,3.3,2.7h18c4.3,0,8.5-1.8,11.4-5l9.3-10.3l0,0l-1.1,13c-0.1,1.2,0.8,2.2,1.9,2.3
						c0.1,0,0.1,0,0.2,0c1.4,0,2.6-0.9,2.9-2.2l5.2-18.1c0.4-1.2,0.4-2.5,0.1-3.7C165.7,29.9,164.7,29.2,163.6,29.2z"/>
				</g>
				<path id="Path-279" class="st23" d="M230.1,10C242.3,27.8,246,47.1,241,67.8l-4.8,74.5c-0.1,2.2-0.2,4.4-0.2,6.5l-1.2,122.4l0,0
					c-5.6,2-10.9,2.9-15.8,2.9c-4.9,0-9.8-1-14.5-2.9l-8.4-187.1l-9.6,74.8L171,265.2c-5.4,2.2-11.3,2.7-17.6,1.6
					c-6.3-1.1-10.7-3-13-5.8l21.5-208.4c1.3-12.8,5.6-25.1,12.5-35.9l4.3-6.7l0,0H230.1z"/>
				<path id="Path-2" class="st24" d="M196,84.5c6.3-7.8,10.2-16,11.7-24.5c-0.2,36-0.8,63.6-1.8,82.8c-0.5,9.5-2.2,25-5.1,46.3
					L196,84.5z"/>
				<path id="Path-3" class="st25" d="M145.3,264l13.5-144.6c0.4-4.3,1.1-8.6,2.1-12.9L179,27l0,0"/>
				<path id="Path-4" class="st25" d="M210.4,272.8L208.5,165c0-0.3,0-0.6,0-0.9l-0.8-99.8l0,0"/>
			</g>
			<g id="Group-4" transform="translate(0.000000, -0.000000)">
				<g transform="translate(0.000000, 58.936252)">
					<path id="Path-19" class="st26" d="M162.8,83.4l-21.2-28.6c-3.7-5-8.1-9.3-13.1-12.8l-0.5-0.4l-12.6-4.2
						c-0.8-0.3-1.4-1.1-1.4-2c0-0.8,0.6-1.4,1.4-1.4h0.1l8.4,0.5c0.7,0,1.4-0.5,1.4-1.3c0-0.2,0-0.5-0.1-0.7l-10.6-20.6l0,0
						c-0.4-0.6-0.2-1.3,0.4-1.7h0.1c0.7-0.4,1.5-0.2,2,0.4l8,10.4c2.8,0.1,4.9,0.6,6.1,1.5c1.7-0.1,3.4,0.6,4.9,1.9
						c1.2,1.1,2.7,4.1,4.4,9.3c1,3.1,2.9,5.8,5.3,8L177,69.2L162.8,83.4z"/>
					<line id="Path-25" class="st27" x1="125.2" y1="21" x2="127.4" y2="24.2"/>
					<line id="Path-26" class="st27" x1="123.5" y1="34.5" x2="126.9" y2="34.9"/>
				</g>
				<g transform="translate(35.693101, 53.579596)">
					<path id="Path-20" class="st21" d="M139.6,11.4l1.8,2.7c0.4,0.5,0.3,1.2-0.1,1.7c-0.4,0.5-1.1,0.6-1.7,0.3l-1.5-0.8l0,0
						l-0.5,7.9l3.8-5.5c0.5-0.7,1.3-0.9,2.1-0.5c0.7,0.3,1.1,1.2,0.8,1.9l-2.8,7.2c-0.5,1.4-0.9,2.7-1.2,4.2
						c-1,5.1-3.2,8.6-6.5,10.5l1,33.5l-8.9,37.7c-6.7-2.2-10.9-8.6-10.2-15.5l4.8-52.2l0,0L119.1,28c-0.2-2.2,1-4.3,2.9-5.3l0,0l0,0
						c1.2-2.1,2.8-3.2,5-3.2c1.4-0.8,3.2-1.2,5.2-1.2l2.3-6.6c0.3-1,1.3-1.6,2.3-1.6C138,10,139,10.5,139.6,11.4z"/>
					<line id="Path-21" class="st28" x1="132.5" y1="17.7" x2="131.6" y2="20.5"/>
					<line id="Path-24" class="st28" x1="137.8" y1="22.5" x2="137.7" y2="26.6"/>
					<line id="Path-6" class="st28" x1="131.6" y1="40.8" x2="133.8" y2="41.1"/>
					<line id="Path-11" class="st28" x1="138.3" y1="13.9" x2="138.1" y2="16.2"/>
				</g>
				<path class="st10" d="M208.9,74l14.2,1.4c7.5,0.7,14.5,4.4,19.4,10.2c4.9,5.8,7.1,13.3,6.2,20.8l-5.4,44
					c-1,8.3-0.4,16.8,1.7,24.9l2.7,10.3l0,0c-17.1,2.8-29.9,4.7-38.5,5.7c-8.6,1-19.9,1-34,0l7.1-32.2c-3.1,3-6.3,5.1-9.5,6.3
					c-3.2,1.3-7,1.4-11.3,0.3c-1.6-16.2,0.9-30.1,7.5-41.8l9.8-34.2c1.7-5.9,5.9-10.7,11.6-13C196.2,74.4,202.6,73.4,208.9,74z"/>
				<path class="st29" d="M201.7,119c4.6,35.5,3,59.8-4.7,73.1c-6.3,0.1-13.6-0.1-21.8-0.7l7-31.5
					C189.5,152.1,196.1,138.5,201.7,119z"/>
				
					<g id="Group-52" transform="translate(112.257190, 53.466341) scale(-1, 1) rotate(-4.000000) translate(-112.257190, -53.466341) translate(69.720020, 2.843929)">
					<circle class="st30" cx="-34" cy="33.4" r="4.3"/>
					<path id="Path-87" class="st31" d="M-47.7,2.2C-40.2,3-28,10.4-35.5,29.1S-52.8,52.9-55,59.9c-2.2,7-9.4,38.2-35,40.6
						c-25.6,2.4-33-25.5-12.4-45.7s19.7-20.5,26.9-36.6S-55.3,1.4-47.7,2.2z"/>
					<path id="Path-86" class="st21" d="M-34.1,24.6l-0.2,6.3c-0.1,2,0.3,4,1.1,5.8l1.4,3.3c0.2,0.5,0,1.1-0.5,1.3
						c-0.1,0.1-0.3,0.1-0.4,0.1l-1.9,0l0,0l-0.3,9.8c-0.1,2-0.9,3.9-2.4,5.2l0,0c-1.4,1.3-3.4,2-5.3,1.9l0,0l0,0l0,7.8L-58.4,68
						l0.2-1.1c1.4-6.5,4.4-12.6,8.9-17.5c2.3-2.5,3.6-5.4,4-8.6c-2.5-2.8-3.4-5.5-2.7-8.1c1-3.9,6.6-2.4,6.2,0.8v1.6
						c0,0.3,0.2,0.6,0.6,0.7c0.3,0,0.5-0.1,0.6-0.4v-0.1v-1.7c0-0.7,0.4-1.3,1-1.7c1-0.6,2-1.5,2.8-2.5
						C-35.6,28.2-34.7,26.5-34.1,24.6z"/>
					<path id="Path-97" class="st31" d="M-45.2,40.9c9.4,51.4-8.9,71-54.9,58.8l9.6-18.2L-45.2,40.9z"/>
					<path id="Path-8" class="st30" d="M-34.8,46.5c-1.2,0.2-2.2,0-2.9-0.6"/>
					<path id="Path-9" class="st28" d="M-42.9,33.6c-0.5-1.3-1.3-1.7-2.5-1.3c-1.8,0.6-1,4-0.4,5.4"/>
					<line id="Path-10" class="st30" x1="-29.7" y1="33.7" x2="-41.8" y2="31.7"/>
				</g>
				<path id="Path-27" class="st32" d="M169.5,124.2c-5.7,7.9-8.5,18.8-8.5,32.8"/>
				<path id="Path-28" class="st32" d="M201.7,119c-5.6,20.1-12.1,33.5-19.4,40.2"/>
			</g>
		</g>
	</g>
</g>
</svg>
