<svg id="pushfar-an" xmlns="http://www.w3.org/2000/svg" viewBox="112.48 74.99 975.04 650.03">
  <style>
    @keyframes pf-arrow {
      0%, 2% {
        opacity: 0;
        transform: translate(250px, -220px) rotate(30deg);
      }
      4% {
        opacity: 1;
        transform: none;
      }
      6% {
        transform: rotate(-5deg);
      }
      8% {
        transform: rotate(3deg);
      }
      9% {
        transform: rotate(-1deg);
      } 
      10%, 65% {
        opacity: 1;
        transform: none;
      }
      77%, 100% {
        opacity: 0;
      }
    }

    #pushfar-an #arrow {
      transform-origin: 506.24px 220.75px;
      animation: pf-arrow 4.5s -2s ease-in-out both infinite;
    }

    @keyframes pf-av-fade {
      0%, 70% {
        opacity: 1;
      }
      80%, 100% {
        opacity: 0;
      }
    }

    #pushfar-an #avatars {
      animation: pf-av-fade 5s ease-in-out both infinite;
    }

    @keyframes pf-av-1 {
      0%, 16% {
        opacity: 0;
        transform: translateY(10px);
      }
      26%, 100% {
        opacity: 1;
        transform: translateY(0px);
      }
    }
    @keyframes pf-av-2 {
      0%, 18% {
        opacity: 0;
        transform: translateY(10px);
      }
      28%, 100% {
        opacity: 1;
        transform: translateY(0px);
      }
    }
    @keyframes pf-av-3 {
      0%, 20% {
        opacity: 0;
        transform: translateY(10px);
      }
      30%, 100% {
        opacity: 1;
        transform: translateY(0px);
      }
    }
    @keyframes pf-av-4 {
      0%, 22% {
        opacity: 0;
        transform: translateY(10px);
      }
      32%, 100% {
        opacity: 1;
        transform: translateY(0px);
      }
    }

    #pushfar-an #av-1,
    #pushfar-an #av-2,
    #pushfar-an #av-3,
    #pushfar-an #av-4 {
      animation-duration: 5s;
      animation-timing-function: ease-in-out;
      animation-fill-mode: both;
      animation-iteration-count: infinite;
    }
    #pushfar-an #av-1 {
      animation-name: pf-av-1;
    }
    #pushfar-an #av-2 {
      animation-name: pf-av-2;
    }
    #pushfar-an #av-3 {
      animation-name: pf-av-3;
    }
    #pushfar-an #av-4 {
      animation-name: pf-av-4;
    }

    @keyframes pf-avbg {
      0%, 10% {
        opacity: 0;
      }
      20%, 100% {
        opacity: 1;
      }
    }

    #pushfar-an #av-bg {
      animation: pf-avbg 5s ease-in-out both infinite;
    }

    @keyframes pf-w-rfa {
      0%, 24%, 100% {
        transform: none;
      }
      10%, 14% {
        transform: translate(10px, -5px) rotate(5deg);
      }
    }

    #pushfar-an #w-rfa {
      transform-origin: 300.67px 360.38px;
      animation: pf-w-rfa 5s ease-in-out both infinite;
    }


    @keyframes pf-w-head {
      0%, 20%, 80%, 100% {
        transform: none;
      }
      30%, 70% {
        transform: rotate(10deg);
      }
    } 

    #pushfar-an #w-head {
      transform-origin: 273.53px 300.46px;
      animation: pf-w-head 5s ease-in-out both infinite;
    }


    @keyframes pf-arrow-fade {
      0%, 80% {
        opacity: 1;
      }
      90%, 100% {
        opacity: 0;
      }
    }

    #pushfar-an #arrow-group {
      animation: pf-arrow-fade 5.3s -2s ease-in-out both infinite;
    }

    @keyframes pf-arrow-head {
      0% {
        transform: translate(-255.26px, 220px) rotate(0deg);
      }
      16.6% {
        transform: translate(-89.24px, 7.06px) rotate(0deg);
      }
      16.7% {
        transform: translate(-89.24px, 7.06px) rotate(90deg);
      }
      20.5% {
        transform: translate(-39.12px, 46.38px) rotate(90deg); 
      }
      20.6% {
        transform: translate(-39.12px, 46.38px) rotate(0deg); 
      }
      24.5%, 100% {
        transform: translate(0px, 0px) rotate(0deg); 
      }
    }

    #pushfar-an #arrow-head {
      transform-origin: 810.68px 173.28px;
      animation: pf-arrow-head 5.3s -2s linear both infinite;
    }


    @keyframes pf-arrow-path {
      0% {
        stroke-dashoffset: 397;
      }
      24.5%, 100% {
        stroke-dashoffset: 0;
      }
    }

    #pushfar-an #arrow-path {
      stroke-dasharray: 397;
      stroke-dashoffset: 397;
      animation: pf-arrow-path 5.3s -2s linear both infinite;
    }



    @keyframes pf-man-rfa {
      0%, 15%, 81%, 100% {
        transform: none;
      }
      30%, 47% {
        transform: rotate(-25deg);
      }
      62%, 66% {
        transform: rotate(5deg);
      }
    }

    #pushfar-an #man-rfa {
      transform-origin: 822.6px 408.9px;
      animation: pf-man-rfa 5.3s ease-in-out both infinite;
    }


    @keyframes pf-man-ra {
      0%, 15%, 81%, 100% {
        transform: none;
      }
      30%, 47% {
        transform: rotate(5deg);
      }
      62%, 66% {
        transform: rotate(-5deg);
      }
    }

    #pushfar-an #man-ra {
      transform-origin: 856.1px 344.96px;
      animation: pf-man-ra 5.3s ease-in-out both infinite;
    }

    @keyframes pf-man-head {
      0%, 81%, 100% {
        transform: none;
      }
      15%, 66% {
        transform: rotate(-10deg);
      }
    }

    #pushfar-an #man-head {
      transform-origin: 896.74px 325.25px;
      animation: pf-man-head 5.3s ease-in-out both infinite;
    }
  </style>
  <ellipse cx="600.5" cy="610" rx="475.5" ry="53" fill="#f8f7f8"/>
  <g id="arrow-group">
    <path id="arrow-path" d="M555.42,393.32l166-213a2,2,0,0,1,2.81-.35s0,0,0,.05l47.27,39.62a2,2,0,0,0,2.81-.24l0-.05,36.27-46.09" fill="none" stroke="#56a3f1" stroke-linecap="round" stroke-width="25"/>
    <polygon id="arrow-head" points="769 138.3 810.68 173.29 852.03 208 871.44 103 769 138.3" fill="#56a3f1" fill-rule="evenodd"/>
  </g>
  <g>
    <g>
      <path d="M576,241H764a8,8,0,0,1,8,8V370a8,8,0,0,1-8,8H576a8,8,0,0,1-8-8V249A8,8,0,0,1,576,241Z" fill="#e8ebee" fill-rule="evenodd"/>
      <rect x="575.19" y="248.21" width="189.62" height="122.58" fill="#fff"/>
      <ellipse cx="648.42" cy="358.79" rx="7.55" ry="7.59" fill="#5ccb6f"/>
      <path d="M649.8,359.4a1.38,1.38,0,1,1-1.38-1.44A1.41,1.41,0,0,1,649.8,359.4Zm2.89-2v4.09a1,1,0,0,1-1,1H645.1a1,1,0,0,1-1-1v-4.09a1,1,0,0,1,1-1h1.16V356a.84.84,0,0,1,.82-.86h2.68a.84.84,0,0,1,.82.86v.34h1.16A1,1,0,0,1,652.69,357.35Zm-2.19,2a2.08,2.08,0,1,0-2.08,2.17A2.13,2.13,0,0,0,650.5,359.4Z" fill="#fff"/>
      <ellipse cx="670" cy="358.79" rx="7.55" ry="7.59" fill="#ff7602"/>
      <path d="M673.64,360.38a4.48,4.48,0,0,1-1.41-.23.63.63,0,0,0-.62.13l-.89.68a5.06,5.06,0,0,1-2.23-2.23l.66-.88a.63.63,0,0,0,.16-.64,4.49,4.49,0,0,1-.23-1.42.62.62,0,0,0-.62-.62H667a.63.63,0,0,0-.63.62,7.29,7.29,0,0,0,7.26,7.29.62.62,0,0,0,.62-.62V361A.62.62,0,0,0,673.64,360.38Z" fill="#fff"/>
      <ellipse cx="691.03" cy="358.79" rx="7.55" ry="7.59" fill="#56a3f1"/>
      <path d="M691,360.44a1.64,1.64,0,0,0,1.64-1.65v-2.64a1.64,1.64,0,1,0-3.28,0v2.64a1.64,1.64,0,0,0,1.64,1.65Z" fill="#fff"/>
      <path d="M693.89,357.9a.34.34,0,0,0-.23-.1.33.33,0,0,0-.23.1.3.3,0,0,0-.1.23v.66a2.26,2.26,0,0,1-.68,1.64,2.29,2.29,0,0,1-3.24,0,2.26,2.26,0,0,1-.68-1.64v-.66a.33.33,0,0,0-.09-.23.33.33,0,0,0-.47,0,.33.33,0,0,0-.09.23v.66a2.92,2.92,0,0,0,.75,2,2.87,2.87,0,0,0,1.87,1v.68h-1.31a.33.33,0,0,0-.23.1.3.3,0,0,0-.1.23.34.34,0,0,0,.33.33h3.28a.34.34,0,0,0,.33-.33.3.3,0,0,0-.1-.23.33.33,0,0,0-.23-.1h-1.31v-.68a2.87,2.87,0,0,0,1.87-1,2.93,2.93,0,0,0,.76-2v-.66A.34.34,0,0,0,693.89,357.9Z" fill="#fff"/>
      <path d="M658.38,313.7a58.39,58.39,0,0,1,9.35-.11l1.17.09,25,4.05a12.7,12.7,0,0,1,7.63,4.3,16.16,16.16,0,0,1,3.68,8.19l2.5,17.86h-83.6l2.11-17.67a15,15,0,0,1,3.87-8.38,14.84,14.84,0,0,1,8.06-4.47l20.19-3.86Z" fill="#5ccd71" fill-rule="evenodd"/>
      <path d="M652.91,293.69q-4.39-10.15-2.93-14a4.83,4.83,0,0,1,5.53-3.43q1.9-10.74,12.93-7.89a18,18,0,0,1,6.33,4.35c2.22,2.53,6.75,2.7,7.55,7.48q.79,4.79-3.16,14.81l-6.64,3.29-19.28-1.55Z" fill="#782c1a" fill-rule="evenodd"/>
      <path d="M658.36,307.51h15.88v10a7.94,7.94,0,0,1-15.88,0v-10Z" fill="#ffb590" fill-rule="evenodd"/>
      <path d="M674.24,307.51v1.31q-4,5.56-15.88,7.48v-8.79Z" fill="#e8a685" fill-rule="evenodd"/>
      <path d="M657.06,281l-.36.31a6.22,6.22,0,0,0-2.13,4.31l-.56,8.85h0c-1.42-2.06-3-2.41-4.6-1-2.46,2.05-.15,6.79,4.6,7.28q2.79,10.59,11.08,11.53c8.3.93,12.78-7.44,12.78-11.53q4.68-.68,5.44-3.46c.77-2.78-1.46-6-4.95-2.78L677,282.82a9.75,9.75,0,0,1-10.6-.45q-1.89-1.23-3.33-2A5.32,5.32,0,0,0,657.06,281Z" fill="#ffb590" fill-rule="evenodd"/>
      <path d="M664.49,299.85c.5,1,1.15,1.54,2,1.54s1.37-.52,1.65-1.54a2.2,2.2,0,0,1-1.65.63A3.49,3.49,0,0,1,664.49,299.85Z" fill="#d19476" fill-rule="evenodd"/>
      <path d="M670.71,294.22a.9.9,0,1,0-.9-.9A.9.9,0,0,0,670.71,294.22Z" fill="#19243d" fill-rule="evenodd"/>
      <path d="M662.21,294.22a.9.9,0,1,0,0-1.8.9.9,0,1,0,0,1.8Z" fill="#19243d" fill-rule="evenodd"/>
      <path d="M658.61,289.45a6.14,6.14,0,0,1,6,0" fill="none" stroke="#782c1a" stroke-linecap="round" stroke-width="0.88"/>
      <path d="M670.68,296.43a3.11,3.11,0,1,0-3.13-3.11A3.12,3.12,0,0,0,670.68,296.43Z" fill="none" stroke="#fff" stroke-linecap="round" stroke-width="0.81"/>
      <path d="M662.16,296.43a3.11,3.11,0,1,0-3.13-3.11A3.12,3.12,0,0,0,662.16,296.43Z" fill="none" stroke="#fff" stroke-linecap="round" stroke-width="0.81"/>
      <line x1="665.29" y1="293.32" x2="667.74" y2="293.32" fill="none" stroke="#fff" stroke-width="0.81"/>
      <line x1="659.03" y1="293.32" x2="653.06" y2="292.58" fill="none" stroke="#fff" stroke-linecap="round" stroke-width="0.81"/>
      <line x1="674.33" y1="293.32" x2="679.36" y2="292.58" fill="none" stroke="#fff" stroke-linecap="round" stroke-width="0.81"/>
      <path d="M673.5,289.45a6.14,6.14,0,0,0-6,0" fill="none" stroke="#782c1a" stroke-linecap="round" stroke-width="0.88"/>
      <path d="M663.12,304.44q3.18,2.71,6.69,0" fill="none" stroke="#19243d" stroke-linecap="round" stroke-width="0.81"/>
      <path d="M657.44,280.72a5.29,5.29,0,0,1,5.61-.35c1,.52,2.07,1.18,3.33,2a9.71,9.71,0,0,0,10.44.53l.16-.08.33,2.79c-6.25,2.88-10.69.12-14.13-2.94l-.32-.29q-2.82-2.56-5.33-1.69Z" fill="#e8a685" fill-rule="evenodd" opacity="0.68" style="isolation: isolate"/>
      <path d="M678.78,297.89c.35-2.36,1.43-3.45,3.25-3.29" fill="none" stroke="#19243d" stroke-linecap="round" stroke-width="0.81"/>
      <line x1="679.36" y1="296.04" x2="680.4" y2="297.46" fill="none" stroke="#19243d" stroke-linecap="round" stroke-width="0.81"/>
      <path d="M653.06,297.89c-.34-2.36-1.43-3.45-3.24-3.29" fill="none" stroke="#19243d" stroke-linecap="round" stroke-width="0.81"/>
      <line x1="652.48" y1="296.04" x2="651.44" y2="297.46" fill="none" stroke="#19243d" stroke-linecap="round" stroke-width="0.81"/>
      <line x1="655.51" y1="276.23" x2="656.6" y2="277.64" fill="none" stroke="#fff" stroke-linecap="round" stroke-width="0.81"/>
      <rect x="589.89" y="257.71" width="160.75" height="89.99" rx="4.15" fill="none" stroke="#b8bfc3" stroke-width="0.52"/>
    </g>
    <g>
      <g>
        <line x1="870.78" y1="514.82" x2="924.15" y2="564.68" fill="none" stroke="#22262f" stroke-width="0.64"/>
        <line x1="911.65" y1="517.62" x2="861.09" y2="564.68" fill="none" stroke="#22262f" stroke-width="0.64"/>
        <path d="M867.58,498.68,842.14,611.13a2.69,2.69,0,0,0,2,3.21,2.88,2.88,0,0,0,.59.06,4.32,4.32,0,0,0,4.18-3.25l28.51-112.47h-9.87Z" fill="#b8bfc4" fill-rule="evenodd"/>
        <path d="M877.45,498.68l-2.29,8.44h-9.61l2-8.44Z" fill="#9da1a5" fill-rule="evenodd"/>
        <path d="M915.43,498.68l25.13,107.69a2.66,2.66,0,0,1-2,3.2,2.46,2.46,0,0,1-.6.07,4.34,4.34,0,0,1-4.21-3.25l-28.2-107.71h9.87Z" fill="#b8bfc4" fill-rule="evenodd"/>
        <polygon points="915.43 498.68 917.45 507.12 907.84 507.12 905.56 498.68 915.43 498.68" fill="#9da1a5" fill-rule="evenodd"/>
        <path d="M954.56,402c-2.68.53-10.46,6.27-15.24,24a217.55,217.55,0,0,0-5,23.78c-2.24,14.12-1.46,28.87-12.31,34.11-19.34,9.36-77.3,2.68-81.53,5.7s-3.29,8.52,7.58,9.21,64.47,2,75.37-1.59,21.35-11.72,22.78-33.2,2.77-38.95,7.56-49.37S957.25,401.48,954.56,402Z" fill="#d1d9df" fill-rule="evenodd"/>
        <path d="M954.51,413.15c-.22.49-.44,1-.69,1.53-4.79,10.42-6.13,27.89-7.56,49.37s-11.89,29.63-22.78,33.2-64.49,2.28-75.37,1.59c-7.83-.5-10.51-3.48-9.82-6.24,1.78,4,26,3.84,50.71,3.19l2-.05h0l1.95-.06,16.22-.45c30.63-.78,29.78-21.82,33.9-49.69q3.24-22,11.29-32.15Z" fill="#b8bfc4" fill-rule="evenodd"/>
        <polygon points="925.73 434.7 925.73 612.84 990.06 603.32 990.06 434.7 925.73 434.7" fill="#b1bfe2" fill-rule="evenodd"/>
        <polygon points="628.85 610.73 628.85 436.25 753.91 436.25 753.91 604.91 702.16 613.9 628.85 610.73" fill="#d9dfe4" fill-rule="evenodd"/>
        <rect x="633.16" y="452.48" width="62.53" height="18.06" rx="1.59" fill="#f0f2f4"/>
        <circle cx="664.37" cy="461.63" r="3.74" fill="#d1d9df"/>
        <line x1="693.9" y1="470.54" x2="634.83" y2="470.54" fill="none" stroke="#d1d9df" stroke-width="0.67"/>
        <rect x="633.16" y="479.79" width="62.53" height="18.06" rx="1.59" fill="#f0f2f4"/>
        <circle cx="664.37" cy="488.94" r="3.74" fill="#d1d9df"/>
        <line x1="693.9" y1="497.85" x2="634.83" y2="497.85" fill="none" stroke="#d1d9df" stroke-width="0.67"/>
        <rect x="633.16" y="507.22" width="62.53" height="18.06" rx="1.59" fill="#f0f2f4"/>
        <circle cx="664.37" cy="516.38" r="3.74" fill="#d1d9df"/>
        <line x1="693.9" y1="525.28" x2="634.83" y2="525.28" fill="none" stroke="#d1d9df" stroke-width="0.67"/>
        <rect x="633.16" y="534.53" width="62.53" height="18.06" rx="1.59" fill="#f0f2f4"/>
        <circle cx="664.37" cy="543.69" r="3.74" fill="#d1d9df"/>
        <line x1="693.9" y1="552.59" x2="634.83" y2="552.59" fill="none" stroke="#d1d9df" stroke-width="0.67"/>
        <polygon points="701.98 613.9 701.98 436.25 753.94 436.25 753.94 604.91 701.98 613.9" fill="#c1cad0" fill-rule="evenodd"/>
        <path d="M662,434.33H937v9.14H662a4.57,4.57,0,0,1,0-9.14Z" fill="#d1daf0" fill-rule="evenodd"/>
        <path d="M928.24,434.33h86.19a4.57,4.57,0,1,1,0,9.14H928.24Z" fill="#b1bfe2" fill-rule="evenodd"/>
        <line x1="672.89" y1="438.18" x2="927.13" y2="438.18" fill="none" stroke="#5f7bc0" stroke-width="0.64"/>
      </g>
      <g>
        <path d="M919.1,393q-1.82,19-1.81,27.81t3,23.24h-66.7q0-27.42-.28-51c-.31-20.68-2.86-46.33,2.84-48a25.65,25.65,0,0,1,8-2l12-1h18.53q25.79.62,35.76,9.25t17.13,44.81l-26.9,3Z" fill="#56a3f1" fill-rule="evenodd"/>
        <g id="man-ra">
          <g id="man-rfa">
            <path id="Path-254" d="M802.55,351.67a29.7,29.7,0,0,1-1.42-6.17l0-.29a33.18,33.18,0,0,0-1.55-6.73l-.71-2.06a13.13,13.13,0,0,0-1.76-3.41,16.9,16.9,0,0,1-1.87-3.38l-5.68-13.73a1.6,1.6,0,0,0-3,1L790.11,330h0c-2.75.95-3.82,2.29-3.22,4q-3-.06-3.42,2.34-3.35.74-2,4.71l2.45,7.14a9.59,9.59,0,0,0,2.82,4.13,9.62,9.62,0,0,1,2.85,4.12L808,408a14.39,14.39,0,0,0,7.16,8.07,11.68,11.68,0,0,0,10.42,0l2.93-1.46a9.09,9.09,0,0,0,5-9,25.23,25.23,0,0,0-4-11.42l-24.2-36.91A25.61,25.61,0,0,1,802.55,351.67Z" fill="#ffbcad" fill-rule="evenodd"/>
            <path id="Path-255" d="M790.29,330.37l2.17,8.07a1.57,1.57,0,0,1-1,1.9,1.63,1.63,0,0,1-2-.85l-2.32-4.93h0" fill="none" stroke="#cc8271" stroke-linecap="round" stroke-width="0.97"/>
            <path id="Path-255-Copy" d="M787.11,334.56l1.8,5.61a1.5,1.5,0,0,1-.95,1.88,1.7,1.7,0,0,1-2.06-.83l-2.2-4.33h0" fill="none" stroke="#cc8271" stroke-linecap="round" stroke-width="0.97"/>
            <path id="Path-255-Copy-2" d="M783.7,336.89l2,4.87a1.38,1.38,0,0,1-.73,1.81l-.09,0a1.69,1.69,0,0,1-2.06-.83l-1.58-3.11h0" fill="none" stroke="#cc8271" stroke-linecap="round" stroke-width="0.97"/>
            <path id="Path-256" d="M798.07,335.49l-7.43-1.26a1.08,1.08,0,0,0-1.22,1.43,4.46,4.46,0,0,0,2.25,2.57l2.42,1.21h0Q788,343.15,792,351.8" fill="#ffbcad" stroke="#cc8271" stroke-linecap="round" stroke-width="0.97" fill-rule="evenodd"/>
          </g>
          <polygon points="850.27 397.32 827.58 384.27 815.79 404.62 838.48 417.68 850.27 397.32" fill="#ffbcad" fill-rule="evenodd"/>
          <path d="M869.89,363.19c-5.3,9-11.21,19.26-16.63,29.78l-4.89,9.24L823.84,385.3l20.95-31a24.67,24.67,0,0,1,2.56-3.19A25.66,25.66,0,0,1,856.1,345a12.55,12.55,0,0,1,9.68.41C869.22,347.17,875.19,354.17,869.89,363.19Z" fill="#56a3f1" fill-rule="evenodd"/>
          <polygon points="855.83 376.23 842.62 397.68 848.37 402.21 853.26 392.97 853.26 392.97 855.83 376.23" fill="#5299e1" fill-rule="evenodd"/>
        </g>
        <path d="M912.66,373.79q-2.6,33.72-6,49.76t-50.81,19.82h0l18.39.65h46q-3-14.49-3-23.24T919.1,393l.11.45v-12Z" fill="#5299e1" fill-rule="evenodd"/>
        <path d="M885.84,429H844v5.53h41.88a.9.9,0,0,0,.9-.91V429.9A.9.9,0,0,0,885.84,429Z" fill="#b8bfc4" fill-rule="evenodd"/>
        <path d="M837.68,383.54h-67.1a1.81,1.81,0,0,0-1.81,1.81,1.88,1.88,0,0,0,.07.53l14.25,47.3a1.82,1.82,0,0,0,1.74,1.29H852.7a1.81,1.81,0,0,0,1.81-1.81,2,2,0,0,0-.08-.55l-15-47.3A1.79,1.79,0,0,0,837.68,383.54Z" fill="#b8bfc4" fill-rule="evenodd"/>
        <path d="M836.3,383.54H769.2a1.81,1.81,0,0,0-1.81,1.81,1.88,1.88,0,0,0,.07.53l14.25,47.3a1.82,1.82,0,0,0,1.74,1.29h67.87a1.81,1.81,0,0,0,1.81-1.81,2,2,0,0,0-.08-.55l-15-47.3A1.79,1.79,0,0,0,836.3,383.54Z" fill="#d9dfe4" fill-rule="evenodd"/>
        <ellipse cx="807.4" cy="411.88" rx="4.83" ry="4.84" fill="#fff"/>
        <path d="M897,346.23v.14a9.8,9.8,0,0,1-9.8,9.8,9.94,9.94,0,0,1-9.94-9.94v-21h19.44Z" fill="#ffbcad" fill-rule="evenodd"/>
        <path d="M892.5,328.05c.51,7.57-6.32,16.6-15.2,17.32v-6.95h-.19a11.82,11.82,0,0,1-5-1.55q1.62-1.14,3.7-2.45Z" fill="#cc5d37" fill-rule="evenodd" opacity="0.3" style="isolation: isolate"/>
        <g id="man-head">
          <path d="M866.81,316.09l-.88-7.31a20.9,20.9,0,0,1,1.12-9.63,10.87,10.87,0,0,1,6.39-6.44l1.28-.48a21.22,21.22,0,0,1,12.14-.82l.54.12a15.14,15.14,0,0,1,10,7.63l.2.39a20.28,20.28,0,0,1,2,13.67l-1.76,8.55h0l-10,5.54Z" fill="#2b3545" fill-rule="evenodd"/>
          <path d="M900.45,318.67q0,2.41-3.71,6.58c-6.65,10.81-14.45,13.28-19.44,13.28v-.11a11.64,11.64,0,0,1-10.92-11.81l.32-20.39a4.88,4.88,0,0,1,4.88-4.8h12.11a4.87,4.87,0,0,1,4.47,2.93l1.58,3.6a20.71,20.71,0,0,0,1.13,2.26l1.4,2.41a13,13,0,0,1,1.65,5.17l.2,2.11a.72.72,0,0,0,.71.65.73.73,0,0,0,.72-.65l.26-2.66c1.71-1.62,3.11-1.62,4.22,0A2.46,2.46,0,0,1,900.45,318.67Z" fill="#ffbcad" fill-rule="evenodd"/>
          <circle cx="869.89" cy="314.21" r="1" fill="#3d2d29"/>
          <circle cx="879.46" cy="313.91" r="1" fill="#3d2d29"/>
          <path d="M875,313.91l-.64,3.3a2.89,2.89,0,0,1-1.49,2l-.25.14a1.83,1.83,0,0,0-1,1.62,1,1,0,0,0,1,1h.06l3.21-.19h0" fill="none" stroke="#cc8271" stroke-width="0.91"/>
          <path d="M867.2,309.18a7.59,7.59,0,0,1,5.86-.17" fill="none" stroke="#2b3545" stroke-linecap="round" stroke-width="0.91"/>
          <path d="M877.64,308.81a9.08,9.08,0,0,1,6.47-.23" fill="none" stroke="#2b3545" stroke-linecap="round" stroke-width="0.91"/>
          <ellipse cx="869.71" cy="314.07" rx="4.22" ry="4.1" fill="none" stroke="#2b3545" stroke-width="0.91"/>
          <ellipse cx="880.42" cy="314.13" rx="4.22" ry="4.1" fill="none" stroke="#2b3545" stroke-width="0.91"/>
          <line x1="873.8" y1="313.77" x2="876.33" y2="313.77" fill="none" stroke="#2b3545" stroke-width="0.91"/>
          <line x1="884.93" y1="313.77" x2="895.69" y2="313.2" fill="none" stroke="#2b3545" stroke-width="0.91"/>
          <path d="M893.63,316.09a5.13,5.13,0,0,1,.21,1l0,.19.25,2.68a.71.71,0,0,0,.71.63.72.72,0,0,0,.64-.37,22.58,22.58,0,0,1-1.51,5.56,14,14,0,0,0-1.25,5.13c-4.38,5-9.23,7.54-15.41,7.66v-.11h-.19a11.46,11.46,0,0,1-10.73-11.28V327l0-1.12a10.93,10.93,0,0,1,7.82-3.26h2.92A8.39,8.39,0,0,1,883,325l.92.92a3.68,3.68,0,0,0,3.19,1.27,5,5,0,0,0,3.41-1.84l.9-1.15a10.17,10.17,0,0,0,2.2-6.31Z" fill="#2b3545" fill-rule="evenodd"/>
          <path d="M878.85,326.71l-8-.28q1.22,3.49,3.84,3.64C876.39,330.16,877.79,329,878.85,326.71Z" fill="#f9f9f9" fill-rule="evenodd"/>
        </g>
        <polygon points="769.47 576.7 768.09 595.54 784.45 604.07 790.77 598.34 793.31 579.57 769.47 576.7" fill="#ffbcad" fill-rule="evenodd"/>
        <polygon points="819.9 576.69 822.42 594.58 838.07 604.06 845.43 595.93 843.75 579.56 819.9 576.69" fill="#ffbcad" fill-rule="evenodd"/>
        <path d="M822,590.16q-11.91,14.94-20.21,17.35t-8.14,8.78a44.24,44.24,0,0,0,22.12,3.25,75.65,75.65,0,0,0,18.7-4.51l.6,1.25,12.81-2.43q-.33-8.07-.89-12.28a35.79,35.79,0,0,0-1.73-7.46q-7.74,5.5-14.1,1.1T822,590.16Z" fill="#1e1d1d" fill-rule="evenodd"/>
        <path d="M768.08,590.18q-11.91,14.94-20.21,17.35t-8.14,8.78a44.26,44.26,0,0,0,22.12,3.25,75.65,75.65,0,0,0,18.71-4.51l.59,1.25L794,613.87q-.35-8.07-.9-12.28a35.79,35.79,0,0,0-1.73-7.46q-7.74,5.5-14.1,1.1T768.08,590.18Z" fill="#1e1d1d" fill-rule="evenodd"/>
        <path d="M829.05,443.37q-48.84-7.11-53,14.18t-9.91,123.16A39.78,39.78,0,0,0,782,585.29a26.36,26.36,0,0,0,15.13-2.77l11.81-103.6Z" fill="#1e1d1d" fill-rule="evenodd"/>
        <line x1="789.59" y1="584.78" x2="804.86" y2="465.02" fill="none" stroke="#fff" stroke-width="0.76" opacity="0.2" style="isolation: isolate"/>
        <path d="M920.28,443.37q5.31,30.39-9.75,41c-14.71,10.39-39.81,4.09-64.53,4.09l-.76,95.64a34,34,0,0,1-14.83,3.23q-8.07,0-13.12-3.23-11.85-111.33-9.09-125.56t24.27-15.19Z" fill="#333" fill-rule="evenodd"/>
        <path d="M838.49,586l-7-99.55a19.21,19.21,0,0,1,1.55-9,7,7,0,0,1,6.6-4.25l44.71.84a21.74,21.74,0,0,0,13.76-4.56,15.66,15.66,0,0,0,6.07-12.39v-13.7h0" fill="none" stroke="#fff" stroke-width="0.76" opacity="0.2" style="isolation: isolate"/>
        <path d="M921.34,399.09l2.89,15.72-31.94,8.58.77,9.48q33.29,1.65,42.42,1.66c9.14,0,13.44-5.92,13.44-13.28q0-7.37-4.08-24.93Z" fill="#ffbcad" fill-rule="evenodd"/>
        <path d="M883.89,434.35a2.48,2.48,0,0,1-2.61,2.35h0l-2.58-.14h0c-3.37-.17-5.34-.88-5.89-2.1q-4.92-1.31-4.51-4.15l-10,1.39a1.76,1.76,0,0,1-1.8-.94,1.05,1.05,0,0,1,.45-1.42l.16-.06,16.45-5.34a30.74,30.74,0,0,1,12.16-1.37l12.42,1.1h0l-.48,9.2Z" fill="#ffbcad" fill-rule="evenodd"/>
        <line x1="868.3" y1="430.31" x2="872.04" y2="428.78" fill="none" stroke="#d08574" stroke-linecap="round" stroke-width="1.02"/>
        <line x1="872.81" y1="434.46" x2="876.39" y2="432.25" fill="none" stroke="#d08574" stroke-linecap="round" stroke-width="1.02"/>
        <line x1="884.01" y1="434.46" x2="879.86" y2="433.66" fill="none" stroke="#d08574" stroke-linecap="round" stroke-width="1.02"/>
      </g>
      <g>
        <polygon points="925.39 435.28 925.39 612.93 929.35 613.99 989.71 603.41 989.71 435.28 925.39 435.28" fill="#d9dfe4" fill-rule="evenodd"/>
        <polygon points="929.35 435.28 929.35 613.99 993.68 603.41 993.68 435.28 929.35 435.28" fill="#c1cad0" fill-rule="evenodd"/>
        <path d="M617.57,434.42H928.33v9.14H617.57a4.57,4.57,0,0,1,0-9.14Z" fill="#e8ebee" fill-rule="evenodd"/>
        <path d="M927.89,434.42h86.2a4.57,4.57,0,0,1,0,9.14h-86.2Z" fill="#d9dfe4" fill-rule="evenodd"/>
        <line x1="628.51" y1="443.56" x2="927.66" y2="443.56" fill="none" stroke="#d1d9df" stroke-width="0.64"/>
      </g>
    </g>
  </g>
  <path d="M495.69,224H343.57a23.16,23.16,0,0,0-23.16,23.17V590a23.16,23.16,0,0,0,23.16,23.17H495.69A23.16,23.16,0,0,0,518.85,590V247.17A23.16,23.16,0,0,0,495.69,224Z" fill="#b8bfc4" fill-rule="evenodd"/>
  <path d="M512.37,293.5h0a2.78,2.78,0,0,0-2.78,2.78v74.13a2.79,2.79,0,0,0,2.78,2.78h0a2.78,2.78,0,0,0,2.78-2.78V296.28A2.77,2.77,0,0,0,512.37,293.5Z" fill="#e8ebee" fill-rule="evenodd"/>
  <path d="M512.37,386.16h0a2.79,2.79,0,0,0-2.78,2.78v27.8a2.78,2.78,0,0,0,2.78,2.78h0a2.77,2.77,0,0,0,2.78-2.78v-27.8A2.78,2.78,0,0,0,512.37,386.16Z" fill="#e8ebee" fill-rule="evenodd"/>
  <path d="M482.72,224H333.39a23.17,23.17,0,0,0-23.17,23.17V590a23.17,23.17,0,0,0,23.17,23.17H482.72A23.17,23.17,0,0,0,505.89,590V247.17A23.17,23.17,0,0,0,482.72,224Z" fill="#e8ebee" fill-rule="evenodd"/>
  <line x1="438.8" y1="233.73" x2="402.6" y2="233.73" fill="none" stroke="#b8bfc4" stroke-linecap="round" stroke-width="2.78"/>
  <circle cx="394.87" cy="234.19" r="2.78" fill="#b8bfc4"/>
  <path d="M479.23,242.4H348.51a20.43,20.43,0,0,0-20.43,20.43v319.6a20.43,20.43,0,0,0,20.43,20.43H479.23a20.43,20.43,0,0,0,20.43-20.43V262.83A20.43,20.43,0,0,0,479.23,242.4Z" fill="#fff" fill-rule="evenodd"/>
  <g id="avatars">
    <path id="av-bg" d="M488.06,392H339.32a4.4,4.4,0,0,0-4.4,4.4V577.6a16,16,0,0,0,16,16H476.46a16,16,0,0,0,16-16V396.4A4.4,4.4,0,0,0,488.06,392Z" fill="#f4f6f7" fill-rule="evenodd" opacity="0.6" style="isolation: isolate"/>
    <g id="av-1">
      <path d="M390.84,413.6h79.9a1.73,1.73,0,1,1,0,3.46h-79.9a1.73,1.73,0,1,1,0-3.46Z" fill="#cfd1d3" fill-rule="evenodd"/>
      <path d="M390.84,424H457.5a1.73,1.73,0,0,1,0,3.46H390.84a1.73,1.73,0,1,1,0-3.46Z" fill="#e5e7e9" fill-rule="evenodd" opacity="0.4" style="isolation: isolate"/>
      <ellipse cx="366.09" cy="420" rx="12.78" ry="12.8" fill="#fff"/>
      <path d="M366.09,421.28a11.5,11.5,0,0,1,10.28,6.33,12.77,12.77,0,0,1-20.55,0A11.49,11.49,0,0,1,366.09,421.28Z" fill="#cdd5d9" fill-rule="evenodd"/>
      <ellipse cx="366.09" cy="416.16" rx="3.83" ry="3.84" fill="#cdd5d9"/>
    </g>
    <g id="av-2">
      <path d="M390.84,461.6h79.9a1.73,1.73,0,1,1,0,3.46h-79.9a1.73,1.73,0,1,1,0-3.46Z" fill="#cfd1d3" fill-rule="evenodd"/>
      <path d="M390.84,472H457.5a1.73,1.73,0,0,1,0,3.46H390.84a1.73,1.73,0,1,1,0-3.46Z" fill="#e5e7e9" fill-rule="evenodd" opacity="0.4" style="isolation: isolate"/>
      <ellipse cx="366.09" cy="468" rx="12.78" ry="12.8" fill="#fff"/>
      <path d="M366.09,469.28a11.5,11.5,0,0,1,10.28,6.33,12.77,12.77,0,0,1-20.55,0A11.49,11.49,0,0,1,366.09,469.28Z" fill="#cdd5d9" fill-rule="evenodd"/>
      <ellipse cx="366.09" cy="464.16" rx="3.83" ry="3.84" fill="#cdd5d9"/>
    </g>
    <g id="av-3">
      <path d="M390.84,509.6h79.9a1.73,1.73,0,1,1,0,3.46h-79.9a1.73,1.73,0,0,1,0-3.46Z" fill="#cfd1d3" fill-rule="evenodd"/>
      <path d="M390.84,520H457.5a1.73,1.73,0,0,1,0,3.46H390.84a1.73,1.73,0,1,1,0-3.46Z" fill="#e5e7e9" fill-rule="evenodd" opacity="0.4" style="isolation: isolate"/>
      <ellipse cx="366.09" cy="516" rx="12.78" ry="12.8" fill="#fff"/>
      <path d="M366.09,517.28a11.5,11.5,0,0,1,10.28,6.33,12.77,12.77,0,0,1-20.55,0A11.49,11.49,0,0,1,366.09,517.28Z" fill="#cdd5d9" fill-rule="evenodd"/>
      <ellipse cx="366.09" cy="512.16" rx="3.83" ry="3.84" fill="#cdd5d9"/>
    </g>
    <g id="av-4">
      <path d="M390.84,557.6h79.9a1.73,1.73,0,0,1,0,3.46h-79.9a1.73,1.73,0,0,1,0-3.46Z" fill="#cfd1d3" fill-rule="evenodd"/>
      <path d="M390.84,568H457.5a1.73,1.73,0,0,1,0,3.46H390.84a1.73,1.73,0,1,1,0-3.46Z" fill="#e5e7e9" fill-rule="evenodd" opacity="0.4" style="isolation: isolate"/>
      <ellipse cx="366.09" cy="564" rx="12.78" ry="12.8" fill="#fff"/>
      <path d="M366.09,565.28a11.5,11.5,0,0,1,10.28,6.33,12.77,12.77,0,0,1-20.55,0A11.49,11.49,0,0,1,366.09,565.28Z" fill="#cdd5d9" fill-rule="evenodd"/>
      <ellipse cx="366.09" cy="560.16" rx="3.83" ry="3.84" fill="#cdd5d9"/>
    </g>
  </g>
  <g>
    <!-- <g>
      <path d="M387.27,265.35h-3.15V251.63h5.06a7.4,7.4,0,0,1,2.81.52,4.39,4.39,0,0,1,2,1.56,4.43,4.43,0,0,1,.74,2.6,4.15,4.15,0,0,1-.79,2.58,4.76,4.76,0,0,1-2.08,1.57A7.71,7.71,0,0,1,389,261h-1.73Zm1.81-11.17h-1.81v4.27h1.85a2.42,2.42,0,0,0,1.65-.55,2,2,0,0,0,.65-1.51,2.14,2.14,0,0,0-.61-1.65A2.45,2.45,0,0,0,389.08,254.18Z" fill="#ff7f00"/>
      <path d="M401.4,255.59h3.17v9.78h-1.75l-.75-1a10.25,10.25,0,0,1-1.93,1,5.56,5.56,0,0,1-1.94.38,3.14,3.14,0,0,1-2.65-1.05,4.48,4.48,0,0,1-.82-2.84v-6.21h3.17v6a1.87,1.87,0,0,0,.3,1.13,1.07,1.07,0,0,0,.93.42,4.55,4.55,0,0,0,2.27-.87Z" fill="#ff7f00"/>
      <path d="M404.69,264.5l.93-2.06a7.73,7.73,0,0,0,1.38.5,5.74,5.74,0,0,0,1.28.19,2.13,2.13,0,0,0,.86-.17.54.54,0,0,0,.37-.48.66.66,0,0,0-.35-.5,3.78,3.78,0,0,0-1-.44,8.43,8.43,0,0,1-2.42-1.25,2.33,2.33,0,0,1-.95-1.9,2.75,2.75,0,0,1,1.09-2.29,4.79,4.79,0,0,1,3-.84,7.49,7.49,0,0,1,1.78.26,4.61,4.61,0,0,1,1.72.77l-.9,2.06a6.28,6.28,0,0,0-2.5-.63,1.4,1.4,0,0,0-.77.19.53.53,0,0,0-.3.46c0,.21.42.47,1.27.77,2.24.78,3.37,1.86,3.37,3.26a2.82,2.82,0,0,1-1,2.34,4.83,4.83,0,0,1-3,.83,9.2,9.2,0,0,1-2-.26A4.68,4.68,0,0,1,404.69,264.5Z" fill="#ff7f00"/>
      <path d="M422.68,259.12v6.23h-3.15v-6a1.8,1.8,0,0,0-.31-1.12,1.06,1.06,0,0,0-.92-.41,5.1,5.1,0,0,0-2.3.84v6.68h-3.14v-14l3.14-.22v5.08a9.22,9.22,0,0,1,1.63-.68,5.16,5.16,0,0,1,1.6-.27Q422.68,255.24,422.68,259.12Z" fill="#ff7f00"/>
      <path d="M430.86,259.86h-4.61v5.49H423.1v-13.7h8.35l.36,2.46h-5.56v3.27h4.25Z" fill="#252525"/>
      <path d="M432,258.59l-.84-2.42a7.39,7.39,0,0,1,1.83-.63,9.5,9.5,0,0,1,2.1-.28,4.79,4.79,0,0,1,2.18.49,3.43,3.43,0,0,1,1.46,1.36,3.9,3.9,0,0,1,.51,2v6.23h-1.75l-.75-1a3.15,3.15,0,0,1-2.4,1.25,3.7,3.7,0,0,1-2.68-.88,3.18,3.18,0,0,1-.91-2.39,2.62,2.62,0,0,1,1-2.24,4.59,4.59,0,0,1,2.76-.74h1.54a1.45,1.45,0,0,0-.42-1,1.37,1.37,0,0,0-1-.35,5.76,5.76,0,0,0-1.33.18A7.72,7.72,0,0,0,432,258.59Zm1.41,3.69a.86.86,0,0,0,.27.63.93.93,0,0,0,.68.26,2.54,2.54,0,0,0,1.72-.77v-1.19h-1.54a1.09,1.09,0,0,0-.81.31A1,1,0,0,0,433.4,262.28Z" fill="#252525"/>
      <path d="M443,265.35h-3.16v-9.76h1.61l.89,1.39a8.8,8.8,0,0,1,1.63-1,4,4,0,0,1,1.67-.43l.63,2.52a4.22,4.22,0,0,0-1.62.39,6.17,6.17,0,0,0-1.65,1Z" fill="#252525"/>
    </g> -->
    <!-- <polygon points="381.47 251.62 385.95 256.11 381.47 260.6 381.47 251.62" fill="#252525"/> -->
  </g>
  <g>
    <circle cx="507.48" cy="219.52" r="53.48" fill="#ff7600"/>
    <circle cx="507.48" cy="219.52" r="38.78" transform="translate(-5.9 14.16) rotate(-1.59)" fill="#e6f4fc"/>
    <circle cx="507.48" cy="219.52" r="24.08" transform="translate(-6.23 15) rotate(-1.68)" fill="#ff7600"/>
    <circle cx="507.48" cy="219.52" r="9.38" fill="#333"/>
    <path d="M507.48,166c-1.56,0-3.1.07-4.63.2a53.48,53.48,0,0,1,0,106.56c1.53.13,3.07.2,4.63.2a53.48,53.48,0,1,0,0-107Z" fill="#ec7005"/>
    <g id="arrow">
      <path d="M557.06,157.24,545.33,169a2.43,2.43,0,0,0-.72,1.91l.68,10.82,13.82-13.82-.64-10.11A.83.83,0,0,0,557.06,157.24Z" fill="#56a3f1"/>
      <path d="M569.76,169.94,558,181.67a2.43,2.43,0,0,1-1.91.72l-10.82-.68,13.82-13.82,10.11.64a.83.83,0,0,1,.54,1.41Z" fill="#56a3f1"/>
      <path d="M507.48,221.27a1.75,1.75,0,0,1-1.24-3l58.45-58.44a1.75,1.75,0,0,1,2.47,2.47l-58.44,58.45A1.75,1.75,0,0,1,507.48,221.27Z" fill="#b8bfc3"/>
    </g>
  </g>
  <g id="button">
    <path d="M349.68,278H478a5,5,0,0,1,5,5v33.12a5,5,0,0,1-5,5H349.68a5,5,0,0,1-5-5V283.05A5,5,0,0,1,349.68,278Z" fill="#ff7600" fill-rule="evenodd"/>
    <polygon points="380.71 303.57 383.16 300.29 383.16 309 388 309 388 291 384.78 291 379.78 297.86 374.33 291 371 291 371 309 375.84 309 375.84 300.29 378.77 303.84 380.71 303.57" fill="#fff"/>
    <path d="M403,302.39a7.21,7.21,0,0,0-.7-3.22,5.43,5.43,0,0,0-2.07-2.31,6.2,6.2,0,0,0-3.35-.86,7.69,7.69,0,0,0-3.52.8,5.91,5.91,0,0,0-2.46,2.29,6.65,6.65,0,0,0-.9,3.5,6.11,6.11,0,0,0,1,3.48,6,6,0,0,0,2.7,2.2,10,10,0,0,0,4,.73,12.41,12.41,0,0,0,3-.38,6.85,6.85,0,0,0,2.28-.94l-1.34-3.11a7.94,7.94,0,0,1-3.51.83,3.67,3.67,0,0,1-1.91-.44,2.31,2.31,0,0,1-1-1.23H403Zm-7.91-.94a1.74,1.74,0,0,1,1.66-1.75,1.46,1.46,0,0,1,1.24.56,1.94,1.94,0,0,1,.42,1.19Z" fill="#fff"/>
    <path d="M409.6,300.54a10.41,10.41,0,0,1,1.34-.51,4.6,4.6,0,0,1,1.14-.22,1.16,1.16,0,0,1,1,.43,1.79,1.79,0,0,1,.31,1.08V309H418v-8.12a5.36,5.36,0,0,0-1.11-3.54,4.11,4.11,0,0,0-3.34-1.34,9.45,9.45,0,0,0-5,1.71l-.81-1.29H405V309h4.6Z" fill="#fff"/>
    <path d="M426.48,297V293l-4.59.63V297H420v3.62h1.89v3.54a4.42,4.42,0,0,0,.8,2.67,4.86,4.86,0,0,0,2.1,1.66,7.22,7.22,0,0,0,2.83.56,5.9,5.9,0,0,0,1.88-.34,4.71,4.71,0,0,0,1.5-.75l-1.31-3.14a3.57,3.57,0,0,1-1.77.48,1.29,1.29,0,0,1-1-.44,1.72,1.72,0,0,1-.4-1.2v-3h3.64l-.43-3.62Z" fill="#fff"/>
    <path d="M446,302.64a6.27,6.27,0,0,1-.93,3.45,5.87,5.87,0,0,1-2.54,2.18,8.69,8.69,0,0,1-3.63.73,7.29,7.29,0,0,1-5-1.66,6.07,6.07,0,0,1-1.9-4.83,6.42,6.42,0,0,1,.93-3.48,6.05,6.05,0,0,1,2.52-2.26A8.07,8.07,0,0,1,439,296a8.25,8.25,0,0,1,3.64.76,5.69,5.69,0,0,1,2.47,2.26A7,7,0,0,1,446,302.64ZM439,305.25a2.13,2.13,0,0,0,1.68-.66,2.86,2.86,0,0,0,.58-1.95,3.53,3.53,0,0,0-.57-2.08,1.83,1.83,0,0,0-1.59-.81,2,2,0,0,0-1.67.74,3.1,3.1,0,0,0-.59,2,3.17,3.17,0,0,0,.56,2A1.88,1.88,0,0,0,439,305.25Z" fill="#fff"/>
    <path d="M452.89,301.36a6.69,6.69,0,0,1,2-1,6.49,6.49,0,0,1,2.12-.41L456,296a6.06,6.06,0,0,0-2.23.48,10.61,10.61,0,0,0-2.15,1.13L450.44,296H448v13h4.89Z" fill="#fff"/>
  </g>
  <g>
    <path d="M349.68,335.61H478a5,5,0,0,1,5,5v33.12a5,5,0,0,1-5,5H349.68a5,5,0,0,1-5-5V340.65A5,5,0,0,1,349.68,335.61Z" fill="#56a3f1" fill-rule="evenodd"/>
    <polygon points="380.33 360.37 382.68 357.14 382.68 365.71 387.34 365.71 387.34 348 384.24 348 379.44 354.75 374.2 348 371 348 371 365.71 375.65 365.71 375.65 357.14 378.46 360.63 380.33 360.37" fill="#fff"/>
    <path d="M402.5,359.2a7.93,7.93,0,0,0-.68-3.31,5.53,5.53,0,0,0-2-2.37,5.72,5.72,0,0,0-3.25-.88,7,7,0,0,0-3.41.82,5.94,5.94,0,0,0-2.39,2.35,7.21,7.21,0,0,0-.87,3.6,6.57,6.57,0,0,0,.95,3.58,5.82,5.82,0,0,0,2.62,2.25,9.19,9.19,0,0,0,3.85.76,11.27,11.27,0,0,0,2.95-.39,6.66,6.66,0,0,0,2.21-1l-1.3-3.21a7.27,7.27,0,0,1-3.4.86,3.41,3.41,0,0,1-1.86-.45,2.31,2.31,0,0,1-1-1.27h7.55Zm-7.67-1a1.69,1.69,0,0,1,.47-1.25,1.49,1.49,0,0,1,1.14-.55,1.38,1.38,0,0,1,1.2.57,2.11,2.11,0,0,1,.41,1.23Z" fill="#fff"/>
    <path d="M408.94,357.22a10.57,10.57,0,0,1,1.35-.51,4.74,4.74,0,0,1,1.15-.22,1.2,1.2,0,0,1,1,.43,1.86,1.86,0,0,1,.3,1.08v7.71h4.66v-8.15A5.37,5.37,0,0,0,416.3,354a4.16,4.16,0,0,0-3.37-1.34,9.66,9.66,0,0,0-5.07,1.72l-.81-1.3h-2.76v12.63h4.65Z" fill="#fff"/>
    <path d="M425.43,353.6v-4.06l-4.66.65v3.41h-1.91v3.73h1.91V361a4.59,4.59,0,0,0,.81,2.75,5.05,5.05,0,0,0,2.13,1.71,7.24,7.24,0,0,0,2.87.57,6.05,6.05,0,0,0,1.9-.35,4.72,4.72,0,0,0,1.52-.77l-1.33-3.23a3.55,3.55,0,0,1-1.79.49,1.35,1.35,0,0,1-1.06-.45,1.86,1.86,0,0,1-.39-1.24v-3.12h3.68l-.44-3.73Z" fill="#fff"/>
    <path d="M443.37,359.2a7.93,7.93,0,0,0-.67-3.31,5.6,5.6,0,0,0-2-2.37,5.74,5.74,0,0,0-3.25-.88,7,7,0,0,0-3.41.82,5.94,5.94,0,0,0-2.39,2.35,7.21,7.21,0,0,0-.87,3.6,6.57,6.57,0,0,0,1,3.58,5.82,5.82,0,0,0,2.62,2.25,9.14,9.14,0,0,0,3.84.76,11.35,11.35,0,0,0,3-.39,6.66,6.66,0,0,0,2.21-1L442,361.44a7.24,7.24,0,0,1-3.4.86,3.4,3.4,0,0,1-1.85-.45,2.31,2.31,0,0,1-1-1.27h7.54Zm-7.67-1a1.74,1.74,0,0,1,.48-1.25,1.49,1.49,0,0,1,1.14-.55,1.4,1.4,0,0,1,1.2.57,2.11,2.11,0,0,1,.41,1.23Z" fill="#fff"/>
    <path d="M457,359.2a7.93,7.93,0,0,0-.68-3.31,5.57,5.57,0,0,0-2-2.37,5.74,5.74,0,0,0-3.25-.88,7,7,0,0,0-3.41.82,5.88,5.88,0,0,0-2.39,2.35,7.21,7.21,0,0,0-.87,3.6,6.57,6.57,0,0,0,.94,3.58,5.87,5.87,0,0,0,2.62,2.25,9.19,9.19,0,0,0,3.85.76,11.22,11.22,0,0,0,2.95-.39,6.56,6.56,0,0,0,2.21-1l-1.3-3.21a7.24,7.24,0,0,1-3.4.86,3.38,3.38,0,0,1-1.85-.45,2.31,2.31,0,0,1-1-1.27H457Zm-7.67-1a1.69,1.69,0,0,1,.47-1.25,1.52,1.52,0,0,1,1.14-.55,1.38,1.38,0,0,1,1.2.57,2,2,0,0,1,.41,1.23Z" fill="#fff"/>
  </g>
  <g>
    <path d="M561.56,554.34q-6.15-6.47-17.75-3.56t-11.6,37.45" fill="none" stroke="#19243d" stroke-width="0.98"/>
    <path d="M518,565.94q14.89-9.2,14.24,20.94" fill="none" stroke="#19243d" stroke-width="0.98"/>
    <path d="M495.93,534.73q29.18-2.94,36,52.15" fill="none" stroke="#19243d" stroke-width="0.98"/>
    <path d="M563.35,528.62q-28.74,4.54-32.89,46.71" fill="none" stroke="#19243d" stroke-width="0.98"/>
    <path d="M547.37,506q-14.18-6.34-15.13,16.84t-1.78,61.69" fill="none" stroke="#19243d" stroke-width="0.98"/>
    <line x1="517.97" y1="491.45" x2="532.24" y2="586.88" fill="none" stroke="#19243d" stroke-width="0.98"/>
    <path d="M525.72,478.4q-4.49,0-8.54,4.18c-1.84-3.4-6-3.52-10-3.52s-5.69.61-5.16,2.26,3.65,0,2.91,1.26-4.92.73-8.42,1.17c-2.34.3-4,2.26-5,5.9,2-2.12,7-3.43,9.93-3.67s6.19.24,5,.89-15.88,2.8-17,6a11.69,11.69,0,0,0,0,7.08,22.73,22.73,0,0,1,12.82-8.16q.89-.16,1.74-.27l.38,0c4.71-.49,8.33.44,3.19,1.39-5.9,1.08-12.62,6.27-15.09,8.91s-1.11,9.18,0,13.84c1,4.16,1.22.88,1.87-2.14l.06-.3c.06-.26.12-.51.19-.75.86-3.18,5.65-6.58,7.31-8.51s5.16-7.12,6.86-5.59-.13,3.76-3.21,6.45-9.84,10.07-10.21,13.51,2.69,5.41,4.9,7.06c1.65,1.22,1.47-.85,1.27-3l0-.32c-.06-.63-.11-1.26-.11-1.78,0-2.37,2.58-6.63,5.69-8.62,2-1.29.71,1.85-.84,5.5l-.19.43c-.12.29-.24.58-.37.87l-.18.44A42.56,42.56,0,0,0,504.1,523c-1.39,4.72,2.38,11.57,10.77,9.94,8.08-1.58,6.18-10.1,5.16-14.2l-.07-.3h0l0-.15a19.07,19.07,0,0,0-2-4.26l-.22-.38-.11-.19-.23-.38h0l-.22-.37c-2-3.37-4-6.35-1.47-5,4,2.19,6.06,5.81,7.73,9.18s.86,5.6,1.94,7.71,5-2.89,5-6.33-4.62-10.13-7.86-13.51-6.83-5.74-5.3-7.21,5,0,10.48,6.35q5.51,6.35,5.2,13h0l3.89-7.56c1.91-9.83-14.33-20.95-9.09-18.21s8.4,8.12,9.56,10.64,1.79,0,2.63-4.21c.56-2.8,0-4.95-1.56-6.43.72-3.83-5.54-6.28-8.85-8.54s2.49,0,6,1.73S530.22,478.4,525.72,478.4Zm-5.4,5.24c1.3,0,2.35.75,2.35,1.68s-1,1.69-2.35,1.69-2.35-.76-2.35-1.69S519,483.64,520.32,483.64Z" fill="#5ccd71" fill-rule="evenodd"/>
    <path d="M517.18,482.58q-8,18.87-4,42.26" fill="none" stroke="#f9f9f9" stroke-width="0.5"/>
    <path d="M477.57,549.28q3.33-4.86,5.91-5.52c2.58-.66-.1-1.55-2.4-.36Q478.79,544.6,477.57,549.28Z" fill="#f9f9f9" fill-rule="evenodd"/>
    <path d="M554.74,492.94c-3.65,0-9.85,4.9-9.85,3.9,0-.3.55-.68,1.21-1.06l.2-.12c1.51-.85,3.3-1.66.15-1.44a28.26,28.26,0,0,0-9.73,2.62q-2.55,1.29-6.58,8.94c-4,7.66,2.55,16.38,2.55,11.76s4-9.22,5.95-9.22c1.74,0,.3,2-1.42,4.34L537,513c-.08.12-.17.23-.25.34-1.91,2.62,0,7.95,1.92,8.83s4.34,1.14,3.31-1.85-1-7.35,0-9.59,4.1-4.22,2.94-1.83,0,9.91.67,12.82,3.9,1.59,6.55,2.82,1.63-1.23,1-4.76-3.68-6.81-3.68-8.72,2.87-1.18,3.68,1.91,2,8.32,4.33,10.34,8.08.72,6.38-.4-5.1-7.13-4.77-8.88,3.54,4.78,4.77,6.73,2.16,1,4.36.53,0-2.48,0-3.29,1.35,0,2.94.81,1-1.67,2.43-3.58-.4-3.29-4-4.17-14.82-2.08-8.51-2.73,11.07,2,13,2.73,1.38-3-.91-5.27-11.9-1.62-17.21-.89-5.84-.73-2.23-2,16.37,0,18.38,0-2.67-4.8-6.57-4.8a34.36,34.36,0,0,0-5.31.7l-.54.1-1.22.24c-4,.77-7.68,1.57-6.7.75,1.65-1.37,9.53-3.08,12.74-3.08s-5.26-3-7-3-8.51,5.76-8.51,4.26S558.39,492.94,554.74,492.94Zm1.51,19.67c.74,0,1.34.45,1.34,1s-.6,1-1.34,1-1.34-.45-1.34-1S555.51,512.61,556.25,512.61ZM544.5,500.48c.93,0,1.68.46,1.68,1s-.75,1-1.68,1-1.68-.46-1.68-1S543.57,500.48,544.5,500.48Z" fill="#41a152" fill-rule="evenodd"/>
    <path d="M562.13,512.28q-12-6.66-29.52-10.73" fill="none" stroke="#f9f9f9" stroke-width="0.5"/>
    <path d="M553.33,527c.53,1.18,1.84.08,2.38,3.14s2.75,4.56,3.76,3.56-.65-3.92.44-3.56,5.24,4.6,7.47,4.6-2.41-3.87-1.39-3.87,4,4.66,9.29,4.66-2.66-3.13-3.2-4.66,3.62.5,5.19,2.83,3.28,3.65,6.63,3-3.08-2.93-3.08-3.85,3.91,1.9,6.49,1.9,2.72-2.81,0-2.81,1.09-.33,2.35-1.06,2.84-3.27-3.23-3-10.4,1.63-9.16.66,1.21-2.67-2-1.81-6.39,2.77-5.47.82,4.71-1.49,3.21-2.66-5.49-.49-7,1.58-3.19,1.66-2.36.26,5.14-3,.71-3.44-4.15,4-5.1,3.7,1.29-4.41-1.55-4.06S552.81,525.76,553.33,527Z" fill="#5ccd71" fill-rule="evenodd"/>
    <ellipse cx="530.29" cy="613.01" rx="17.46" ry="3.37" fill="#d6daed"/>
    <path d="M546.64,578.64H514a1.46,1.46,0,0,0-1.46,1.47,1.84,1.84,0,0,0,0,.33l7.12,31.14a2.44,2.44,0,0,0,2.38,1.9h17.64a2.44,2.44,0,0,0,2.4-2l6-31.11a1.45,1.45,0,0,0-1.16-1.72A1.27,1.27,0,0,0,546.64,578.64Z" fill="#2b3545" fill-rule="evenodd"/>
    <polygon points="513.53 584.71 515.53 593.47 545.57 593.47 547.25 584.71 513.53 584.71" fill="#fff" fill-rule="evenodd"/>
    <line x1="542.57" y1="608.74" x2="519.3" y2="608.74" fill="none" stroke="#f9f9f9" stroke-width="0.5"/>
    <line x1="543.28" y1="605.11" x2="518.44" y2="605.11" fill="none" stroke="#f9f9f9" stroke-width="0.5"/>
    <path d="M510.73,561c-5.91-.33-8.46,3.86-10.41,6.53-1.23,1.68.95,2.29,3.27,2.94l.58.16a9.52,9.52,0,0,1,3,1.22c.91.69.16.84-1.65.85h-.36c-1.15,0-2.66-.05-4.41-.05h-.56a64.59,64.59,0,0,0-6.94.36c-8.69,1-8.17,9.74-6.13,10.16s5.48-3.67,10.18-4.56,5.31-.07,3.46,1.57c-1.66,1.47-6.39,2.6-11.06,3.5l-.8.16-.8.15c-5.15,1-4.06,8-2.49,9.26s2.49-4.74,8.09-6.1c4.59-1.11,3.17.51,1,2.67l-.33.33-.91.92-.23.23c-2.7,2.79-7,6-5.15,9.61s4.19,2.21,9.2,2.21,2.89-10.33,4.05-14.22c.72-2.39,1.68,1.15,2.11,5.09l0,.44a22,22,0,0,1-.05,6c-.88,3.72,2.64,1.89,4.85.69s.65-11.24,0-15.86.65-7.72,3.12-2.56.69,12.69.28,15.5.41,2.74,4.95-.36,2.72-4.74,2.72-10.24c0-3.28-1.5-6.26-2.4-8l-.15-.3c-.5-1-.73-1.55-.17-1.4,1.5.41,4.9,6.76,5.16,9.75s-1.44,6.54,1.64,3.65,2.37-4.52,2.37-7.57-4.72-9.57-3.46-8.52,4.22,3.07,4.61,6.83.29,4.71,3.16,0c1.86-3.06.36-4.79-1.28-6.39l-.53-.51a7.92,7.92,0,0,1-1.74-2.13c-1.3-2.74,3.59,2.27,4.46,3.48s2-4.17-1.25-8.44q-3.22-4.26-11.42-2.13Q516.63,561.35,510.73,561Zm8.59,9.54a1.35,1.35,0,1,1-1.35,1.35A1.34,1.34,0,0,1,519.32,570.56Z" fill="#5ccd71" fill-rule="evenodd"/>
    <path d="M518.35,565.94q-12.72,8.17-22.33,26.14" fill="none" stroke="#fbfbfb" stroke-width="0.5"/>
    <path d="M536.28,538.17c.57.75,1.83,1.12,3.79,1.12,2.93,0,4.83-.19,6.79,2s6.23,8,2.32,5.9-8-4.27-6.84-3.19,7.29,4.07,7.59,5.86.65,7.19-.75,6.21-.84-3.54-2.32-5.38-7.51-6.08-5.84-4,7.14,7.4,7.14,10-3.1,8.66-3.73,6.67,0-7-2.53-10-5.44-4.08-3.86-1.75,5.9,7.62,4.3,12.31-4.56,3.52-3.82,1-2.24-10.31-2.24-7.75,2.77,9.49-1,9.49-5.12,1.33-6.55-.69-3-2.86-1.09-4.65,4.79-5.89,2.94-5.25-4.37,3-4.72,4.15-3.12-1.25-2.51-3.05,2.54-3.75,6.68-5.53,4.1-4.13,2.33-3.88-4.76,3.63-6.5,4.9-5.31,3.75-4.49.73-.59-4,1-5.63,9.35-1.93,10.47-3-4.8-4-9.12-1-3.92.12-2.39-1.67,7.85-.19,9.21-.79-3.28-2-7.78-2,.72-4,4-2.83,7.8,3.57,5,.95Q529.09,534.8,536.28,538.17Z" fill="#5ccd71" fill-rule="evenodd"/>
    <circle cx="539.8" cy="543.94" r="1.01" fill="#f9f9f9"/>
    <path d="M538.54,539q-1.41,2.25-3,9.77c-1.57,7.52-1.78,8-3.35,11" fill="none" stroke="#fbfbfb" stroke-width="0.5"/>
    <path d="M507.82,527.39c-9,0-9.69,4.69-10.53,5.67l-.11.1c-.91.68-.81.7-3.94,0s-8.1,0-9.73,1.45-1.1,5.07.71,3.63,3.57-.7,1.42,1.44-6.73,1.18-8.17,2.92c-1,1.15-1.25,3.52-.87,7.1-1.42,3.49-.14,8,.87,8.6s.49-4.93,3.55-8,8-7,8-5.2-6.54,3.79-8.62,9.23,2.08,11.29,3.81,12.46c1.17.8,1-1.65.87-4.48v-.45a24,24,0,0,1,.06-3.52c.42-3.75,5.14-10.27,5.79-8s-2.6,7.33-4.29,13.17,3.32,8.79,4.29,9.22c.59.26.23-.95-.15-2.33l-.1-.36a9.8,9.8,0,0,1-.4-2.21c0-1.76.57-7,1.85-7.4.89-.27.78,2.4.46,5.33l0,.49c-.13,1.15-.28,2.31-.41,3.33-.47,3.8,1.54,4.68,4.24,4.68s1.51-1.48,6.25-4.13,2.75-6-.8-9.7c-.29-.3-.58-.59-.86-.89l-.24-.25-.12-.12-.23-.25c-2.86-3-4.61-5.22.7-2.47a18.6,18.6,0,0,1,8.59,8.49c1,1.58,3-2.65,1.73-7.65S492,544.51,500,545.84s10.66,7.55,12.27,9.53,3-1.39,3-4.44h0v-.46c0-2.71-.17-3.85-3.38-7.16-3.38-3.5-19-4.53-11.21-5.07s10.68,1.44,12.61,3.32l.19.19.28.27c1.61,1.63,2.35,2.49,2.35-2.34,0-5.28-3.7-5.49-7.43-5.49a21.4,21.4,0,0,1-6.82-1q6.57-2.83,13.41,1Q517.18,527.4,507.82,527.39Zm-19.73,12.85c.93,0,1.68.45,1.68,1s-.75,1-1.68,1-1.68-.45-1.68-1S487.16,540.24,488.09,540.24Z" fill="#41a152" fill-rule="evenodd"/>
    <path d="M496,533.55q-5.19,14.61,1.24,32.46" fill="none" stroke="#f9f9f9" stroke-width="0.5"/>
    <path d="M572.37,549.65q-7.86-.9-11.67,4-3.6-.87-8.21,2.82c-4.62,3.68-1.59,6.86-.4,6.86s3.56-4.17,5.4-4.85-.73,2.89-3.18,4.85-1.53,4.11-.86,6.71,2.2,2.8,2.2,1.13,2.71-5.85,4.28-7.84,1.33,1.52-1.57,6.19-.87,7.17,1.57,8.93,3.55,1.9,4.06-.7c.17-.85.35-2.61.59-4.51l.07-.48,0-.24.06-.48c0-.08,0-.16,0-.25l.07-.47c.5-3.35,1.23-6.33,2.44-4.77,2.14,2.75.07,9.37-.92,13.8s3.39,6.7,5.64,6.7c1.66,0,1.06-3.29.63-6.55l-.06-.49a23.41,23.41,0,0,1-.21-2.78c0-.69-.06-1.43-.13-2.17l0-.41c-.37-3.23-1.06-6.26.57-4.61,1.79,1.81,2,6.18,2,11v2.35c0,5.34,2.34,5.57,4.67,5.58h.39c1.53,0,.54-2.23-.42-4.6l-.17-.41a11.23,11.23,0,0,1-1-3.57c0-2.88,2.74,6,4.29,7.76q1.56,1.77,3.09-1.06,3.6,5.52,3.6-1.08c0-6.61-3.7-8.61-5.89-10l-.12-.08-.23-.15c-2-1.39-3.62-2.94-.45-1.81,3.36,1.21,5.81,4.83,5.34,0s-5.21-5.94-8.7-6.81-5.51-1.75-.58-1.75,7.95,3.36,10.63,4.26-2.68-5.89-5.24-8.21-7-1.83-9.76-1.83-3.55-.44-.56-1.06,7.28.62,9.67,1.06-1-3.52-3.53-4.81-5.58-.41-9.52,0-1.5-1.08,3.94-1.95S580.23,550.55,572.37,549.65Zm-5.71,6.08a1,1,0,1,1-1,1A1,1,0,0,1,566.66,555.73Z" fill="#41a152" fill-rule="evenodd"/>
    <path d="M560.7,553.69q11.06,9.3,15.45,18.17" fill="none" stroke="#f9f9f9" stroke-width="0.5"/>
  </g>
  <g id="woman">
    <path d="M285.64,618.78l-12.46-9.15a13.81,13.81,0,0,1-4.24-5,14.57,14.57,0,0,1-1.5-6.45V587.62h-19.2v18.23l23.42,12.93Z" fill="#c0614c" fill-rule="evenodd"/>
    <path d="M249.3,603l2,.13a15.1,15.1,0,0,1,6.7,2l10.07,5.89a63.7,63.7,0,0,0,13.89,6l5.15,1.54a2.47,2.47,0,0,1,1.72,2.84,2.74,2.74,0,0,1-2.68,2.19H271.57a12.28,12.28,0,0,1-9.06-4l-7.57-8.26h0l.87,10.39a1.71,1.71,0,0,1-1.56,1.85h-.14a2.47,2.47,0,0,1-2.38-1.78l-4.22-14.48a6.05,6.05,0,0,1-.09-3A1.8,1.8,0,0,1,249.3,603Z" fill="#19243d" fill-rule="evenodd"/>
    <path d="M337.71,618.78l-12.35-9.14a14,14,0,0,1-4.21-5.06,24.78,24.78,0,0,1-2.08-6.39l-1.88-10.57h-19l2.48,18.23,23.21,12.93Z" fill="#c0614c" fill-rule="evenodd"/>
    <path d="M301.71,603l2,.13a14.69,14.69,0,0,1,6.63,2l10,5.89a62.76,62.76,0,0,0,13.74,6l5.1,1.53a2.49,2.49,0,0,1,1.71,2.85,2.72,2.72,0,0,1-2.67,2.19h-14.4a12.29,12.29,0,0,1-9.09-4l-7.46-8.22h0l.86,10.41a1.71,1.71,0,0,1-1.55,1.83h-.14a2.45,2.45,0,0,1-2.35-1.76l-4.18-14.5a5.94,5.94,0,0,1-.1-3A1.81,1.81,0,0,1,301.71,603Z" fill="#19243d" fill-rule="evenodd"/>
    <path d="M248.47,386.79q-14.65,21.39-8.66,46.24l3.87,59.6c.11,1.74.18,3.48.2,5.22l.92,97.93h0a38.77,38.77,0,0,0,12.65,2.35,30.28,30.28,0,0,0,11.6-2.35l6.6-149.7,7.67,59.82,12.44,85a25.39,25.39,0,0,0,14.08,1.31q7.61-1.31,10.37-4.6L303.05,420.87a66,66,0,0,0-10-28.74l-3.41-5.34H248.47Z" fill="#333" fill-rule="evenodd"/>
    <path d="M275.75,446.41a44.05,44.05,0,0,1-9.37-19.57q.21,43.23,1.45,66.24.62,11.42,4.11,37Z" fill="#1e1d1d" fill-rule="evenodd"/>
    <path d="M316.32,590,305.55,474.34a79.56,79.56,0,0,0-1.64-10.29l-14.52-63.67h0" fill="none" stroke="#fff" stroke-width="0.79" opacity="0.2" style="isolation: isolate"/>
    <path d="M264.27,597l1.47-86.27c0-.24,0-.48,0-.72l.63-79.85h0" fill="none" stroke="#fff" stroke-width="0.79" opacity="0.2" style="isolation: isolate"/>
    <g id="w-rfa">
      <path d="M348.21,324.68a1.66,1.66,0,0,1-1.13,1.56l-10,3.32-.42.29a45.94,45.94,0,0,0-10.51,10.27L309.19,363c-5.76,7.68-13.21,5.5-14.7,4s-3.93-9,3.27-15.37l25-22a15,15,0,0,0,4.26-6.4q2.07-6.13,3.5-7.41a5.45,5.45,0,0,1,3.92-1.52,8.35,8.35,0,0,1,4.87-1.23l6.41-8.29a1.35,1.35,0,0,1,1.63-.33l0,0a1,1,0,0,1,.37,1.37l-8.47,16.55a1,1,0,0,0-.11.54,1.06,1.06,0,0,0,1.12,1l6.74-.37h.06A1.13,1.13,0,0,1,348.21,324.68Z" fill="#a54c37" fill-rule="evenodd"/>
      <line x1="339.29" y1="313.05" x2="337.51" y2="315.61" fill="none" stroke="#773626" stroke-width="0.64"/>
      <line x1="340.64" y1="323.91" x2="337.89" y2="324.2" fill="none" stroke="#773626" stroke-width="0.64"/>
    </g>
    <path d="M299.18,301.16l-1.45,2.17a1.17,1.17,0,0,0,.08,1.39,1.06,1.06,0,0,0,1.32.25l1.19-.65h0l.4,6.35-3.05-4.41a1.31,1.31,0,0,0-1.66-.43,1.23,1.23,0,0,0-.61,1.55l2.25,5.77a20.57,20.57,0,0,1,1,3.34q1.25,6.18,5.22,8.37l-.77,26.79,7.15,30.14a12,12,0,0,0,8.12-12.45l-3.82-41.8h0l1-13.13a4.46,4.46,0,0,0-2.33-4.27h0a4.4,4.4,0,0,0-4-2.54,8.3,8.3,0,0,0-4.19-1l-1.84-5.32a2,2,0,0,0-1.84-1.31A2.58,2.58,0,0,0,299.18,301.16Z" fill="#c0614c" fill-rule="evenodd"/>
    <line x1="304.84" y1="306.13" x2="305.62" y2="308.38" fill="none" stroke="#a54c37" stroke-width="0.64"/>
    <line x1="300.62" y1="310.02" x2="300.74" y2="313.25" fill="none" stroke="#a54c37" stroke-width="0.64"/>
    <line x1="305.55" y1="324.68" x2="303.84" y2="324.86" fill="none" stroke="#a54c37" stroke-width="0.64"/>
    <line x1="300.22" y1="303.15" x2="300.4" y2="304.94" fill="none" stroke="#a54c37" stroke-width="0.64"/>
    <path d="M272.3,308.35,261,309.45a23.2,23.2,0,0,0-15.51,8.15,21.77,21.77,0,0,0-4.95,16.62l4.3,35.22a53.27,53.27,0,0,1-1.34,19.92l-2.17,8.28h0q20.49,3.35,30.81,4.54t27.16,0l-5.69-25.73a24.28,24.28,0,0,0,7.58,5.08,14.77,14.77,0,0,0,9.05.26q1.95-19.46-6-33.42L296.37,321a16.12,16.12,0,0,0-9.25-10.42A30.69,30.69,0,0,0,272.3,308.35Z" fill="#ff7600" fill-rule="evenodd"/>
    <path d="M278.07,344.32q-5.51,42.6,3.77,58.44,7.62.12,17.44-.58L293.71,377Q284.83,367.69,278.07,344.32Z" fill="#ec7006" fill-rule="evenodd"/>
    <path d="M282.61,309.09l-12.5,2.43.12-.92a30,30,0,0,1,3.3-10.14l8.48.59Z" fill="#c0614c" fill-rule="evenodd"/>
    <g id="w-head">
      <circle cx="287.58" cy="282.45" r="3.41" transform="matrix(1, -0.07, 0.07, 1, -19.1, 20.86)" fill="none" stroke="#2b3545" stroke-width="0.64"/>
      <path d="M274.86,258.32c6.06.18,16.14,5.42,11.25,20.8s-12.46,20-13.85,25.68-5.4,31-25.69,34.36-27.74-18.49-12.49-35.78,14.58-17.43,19.43-30.67S268.8,258.13,274.86,258.32Z" fill="#081c15" fill-rule="evenodd"/>
      <path d="M289.43,288.73a.68.68,0,0,1-.31.08l-1.55.11.35,7.84a5.88,5.88,0,0,1-1.61,4.31l0,0a5.73,5.73,0,0,1-4.13,1.79l-8.62-2.43a29.66,29.66,0,0,1,2.82-4.32,12.13,12.13,0,0,0,2.71-7.06c-2.13-2.09-3-4.19-2.6-6.3.58-3.17,5.13-2.31,5,.28l.09,1.31a.55.55,0,0,0,.49.51.38.38,0,0,0,.43-.35.13.13,0,0,0,0-.06l-.1-1.37a1.58,1.58,0,0,1,.68-1.41,8.55,8.55,0,0,0,2.12-2.16,12.19,12.19,0,0,0,1.79-4.07l.22,5a11,11,0,0,0,1.23,4.6l1.33,2.58A.79.79,0,0,1,289.43,288.73Z" fill="#c0614c" fill-rule="evenodd"/>
      <path d="M279.06,289.08q15.53,60.76-40.52,50l6.63-15Z" fill="#081c15" fill-rule="evenodd"/>
      <path d="M287.68,292.92a2.74,2.74,0,0,1-2.33-.33" fill="none" stroke="#2b3545" stroke-width="0.64"/>
      <path d="M280.45,283.15a1.46,1.46,0,0,0-2.1-.93c-1.44.59-.61,3.22,0,4.36" fill="none" stroke="#a54c37" stroke-width="0.64"/>
      <line x1="291.05" y1="282.45" x2="281.24" y2="281.57" fill="none" stroke="#2b3545" stroke-width="0.64"/>
    </g>
    <path d="M303.84,348.47q6.77,9.5,6.76,26.25" fill="none" stroke="#c65f07" stroke-linecap="round" stroke-width="0.59"/>
    <path d="M278.07,344.32q6.72,24.07,15.52,32.13" fill="none" stroke="#c65f07" stroke-linecap="round" stroke-width="0.59"/>
  </g>
  <path id="l1" d="M555.42,393.32l166-213" fill="#ffbcad" fill-rule="evenodd"/>
  <path id="l2" d="M721.43,180.35l50.13,39.32" fill="#ffbcad" fill-rule="evenodd"/>
  <path id="l3" d="M771.56,219.67l39.12-46.38" fill="#ffbcad" fill-rule="evenodd"/>
</svg>